<svg xmlns="http://www.w3.org/2000/svg" width="40.866" height="41.035" viewBox="0 0 40.866 41.035">
  <g id="Group_4817" data-name="Group 4817" transform="translate(0.001)">
    <path id="Path_32647" data-name="Path 32647" d="M731.845,229.767c0,3.353.16,6.546,0,9.9a10.537,10.537,0,0,1-10.219,10.378c-6.866.319-13.572.319-20.438,0a9.984,9.984,0,0,1-9.9-10.059c-.319-6.866-.319-13.891,0-20.757a10.136,10.136,0,0,1,9.9-9.74c6.706-.319,13.572-.319,20.278,0,6.067.319,10.059,4.63,10.378,10.538.16,3.353,0,6.546,0,9.74ZM711.408,213.8h0c-3.193,0-6.387-.16-9.42,0-3.992.16-6.387,2.4-6.387,6.387-.16,6.227-.16,12.454,0,18.522.16,4.151,2.4,6.546,6.706,6.546,6.067.16,12.294.16,18.362,0,4.311-.16,6.547-2.555,6.706-6.706.16-6.067.16-11.975,0-18.043-.16-4.471-2.4-6.706-6.866-6.866C717.475,213.8,714.442,213.8,711.408,213.8Z" transform="translate(-691.051 -209.25)" fill="#e0aa55"/>
    <path id="Path_32648" data-name="Path 32648" d="M711.7,212.135c3.212,0,6.6-.178,9.993,0,5,.178,7.673,2.677,7.673,7.673.178,6.781.178,13.383,0,20.164-.178,4.818-2.677,7.495-7.495,7.495-6.781.178-13.74.178-20.521,0-4.818-.178-7.316-2.677-7.495-7.316-.178-6.959-.178-13.918,0-20.7.178-4.461,2.677-6.959,7.138-7.138,3.747-.178,7.316,0,10.707-.178Z" transform="translate(-691.336 -209.446)" fill="#e0aa55"/>
    <path id="Path_32649" data-name="Path 32649" d="M712.214,228.291l.639-4.471h-4.311v-2.874a2.229,2.229,0,0,1,2.555-2.4h1.916v-3.832a22.509,22.509,0,0,0-3.513-.319c-3.513,0-5.908,2.235-5.908,6.067v3.513H699.6v4.471h3.992v10.857h4.95V228.451h3.672Z" transform="translate(-685.949 -206.177)" fill="#fff"/>
  </g>
</svg>
