<svg xmlns="http://www.w3.org/2000/svg" width="41" height="41.083" viewBox="0 0 41 41.083">
  <g id="Group_4819" data-name="Group 4819" transform="translate(20423.529 6947.55)">
    <path id="Path_32665" data-name="Path 32665" d="M711.781,314.653c3.832,0,7.664,0,11.336.16,5.748.319,8.782,3.193,8.782,8.941.16,7.664,0,15.488-.319,23.152-.16,5.429-3.193,8.462-8.622,8.622-7.824.16-15.648,0-23.471-.16-5.429-.16-8.3-3.193-8.462-8.622-.16-7.983,0-15.967.319-23.95.16-5.109,3.193-7.983,8.3-8.143,3.992-.319,7.984,0,12.135,0Z" transform="translate(-21114.49 -7262.062)" fill="#715397"/>
    <path id="Path_32660" data-name="Path 32660" d="M13.518,10.667A13.255,13.255,0,0,0,9.243,36.553c.676.125.924-.286.924-.639,0-.315-.011-1.151-.017-2.259-3.76.8-4.553-1.782-4.553-1.782a3.541,3.541,0,0,0-1.5-1.943c-1.224-.823.095-.807.095-.807a2.828,2.828,0,0,1,2.07,1.369A2.911,2.911,0,0,0,10.195,31.6a2.812,2.812,0,0,1,.856-1.776c-3-.332-6.157-1.475-6.157-6.564a5.075,5.075,0,0,1,1.391-3.564A4.648,4.648,0,0,1,6.4,16.178s1.132-.356,3.717,1.362a12.962,12.962,0,0,1,6.759,0c2.568-1.718,3.7-1.362,3.7-1.362a4.776,4.776,0,0,1,.135,3.516A5.1,5.1,0,0,1,22.1,23.258c0,5.1-3.16,6.226-6.167,6.553a3.152,3.152,0,0,1,.912,2.458c0,1.778-.017,3.206-.017,3.637,0,.348.237.764.929.631A13.265,13.265,0,0,0,27.035,23.95,13.4,13.4,0,0,0,13.518,10.667Z" transform="translate(-20416.547 -6950.631)" fill="#fff"/>
  </g>
</svg>
