<svg xmlns="http://www.w3.org/2000/svg" width="41" height="41.083" viewBox="0 0 41 41.083">
  <g id="Group_4815" data-name="Group 4815" transform="translate(20624.51 6947.599)">
    <path id="Path_32663" data-name="Path 32663" d="M711.781,314.653c3.832,0,7.664,0,11.336.16,5.748.319,8.782,3.193,8.782,8.941.16,7.664,0,15.488-.319,23.152-.16,5.429-3.193,8.462-8.622,8.622-7.824.16-15.648,0-23.471-.16-5.429-.16-8.3-3.193-8.462-8.622-.16-7.983,0-15.967.319-23.95.16-5.109,3.193-7.983,8.3-8.143,3.992-.319,7.984,0,12.135,0Z" transform="translate(-21315.471 -7262.11)" fill="#76529c"/>
    <g id="Group_3839" data-name="Group 3839" transform="translate(-20616.32 -6939.048)">
      <path id="Path_41" data-name="Path 41" d="M196.608,178.01h.006v-8.8c0-4.307-.927-7.625-5.963-7.625a5.227,5.227,0,0,0-4.708,2.588h-.07v-2.186H181.1v16.028h4.971v-7.936c0-2.09.4-4.11,2.984-4.11,2.55,0,2.588,2.385,2.588,4.244v7.8Z" transform="translate(-172.608 -154.003)" fill="#fff"/>
      <path id="Path_42" data-name="Path 42" d="M8.448,170.176h4.977V186.2H8.448Z" transform="translate(-8.052 -162.197)" fill="#fff"/>
      <path id="Path_43" data-name="Path 43" d="M2.883,0A2.9,2.9,0,1,0,5.766,2.883,2.884,2.884,0,0,0,2.883,0Z" transform="translate(0 0)" fill="#fff"/>
    </g>
  </g>
</svg>
