<svg xmlns="http://www.w3.org/2000/svg" width="41" height="41.083" viewBox="0 0 41 41.083">
  <g id="Group_4818" data-name="Group 4818" transform="translate(20471.805 6947.551)">
    <path id="Path_32664" data-name="Path 32664" d="M711.781,314.653c3.832,0,7.664,0,11.336.16,5.748.319,8.782,3.193,8.782,8.941.16,7.664,0,15.488-.319,23.152-.16,5.429-3.193,8.462-8.622,8.622-7.824.16-15.648,0-23.471-.16-5.429-.16-8.3-3.193-8.462-8.622-.16-7.983,0-15.967.319-23.95.16-5.109,3.193-7.983,8.3-8.143,3.992-.319,7.984,0,12.135,0Z" transform="translate(-21162.766 -7262.062)" fill="#79b8cc"/>
    <path id="Path_32662" data-name="Path 32662" d="M24.966,55.857l2.165-2.071v-.453h-7.5l-5.345,13.3-6.081-13.3H.343v.453l2.529,3.044a1.061,1.061,0,0,1,.343.885V69.68a1.364,1.364,0,0,1-.365,1.187L0,74.319v.448H8.077v-.453L5.228,70.867a1.407,1.407,0,0,1-.392-1.187V59.331l7.09,15.441h.824l6.1-15.441v12.3c0,.324,0,.391-.212.6l-2.193,2.122v.454h10.64v-.453l-2.114-2.07a.629.629,0,0,1-.242-.6V56.461a.626.626,0,0,1,.241-.6Z" transform="translate(-20464.871 -6991.082)" fill="#fff"/>
  </g>
</svg>
