<svg xmlns="http://www.w3.org/2000/svg" width="41" height="41.083" viewBox="0 0 41 41.083">
  <g id="Group_4816" data-name="Group 4816" transform="translate(20573.383 6947.599)">
    <path id="Path_32653" data-name="Path 32653" d="M711.781,314.653c3.832,0,7.664,0,11.336.16,5.748.319,8.782,3.193,8.782,8.941.16,7.664,0,15.488-.319,23.152-.16,5.429-3.193,8.462-8.622,8.622-7.824.16-15.648,0-23.471-.16-5.429-.16-8.3-3.193-8.462-8.622-.16-7.983,0-15.967.319-23.95.16-5.109,3.193-7.983,8.3-8.143,3.992-.319,7.984,0,12.135,0Z" transform="translate(-21264.344 -7262.11)" fill="#d26f5d"/>
    <path id="Path_32654" data-name="Path 32654" d="M722.908,321.73a11.925,11.925,0,0,1-3.017.862c.431-.144,1.149-1.006,1.437-1.293a10.713,10.713,0,0,0,1.006-1.724v-.144h-.144a15.284,15.284,0,0,1-3.592,1.293h-.287c-.144-.144-.144-.287-.287-.287a10.724,10.724,0,0,0-1.724-1.006,8.137,8.137,0,0,0-2.586-.431,4.844,4.844,0,0,0-2.442.718,10.849,10.849,0,0,0-2.011,1.58,5.466,5.466,0,0,0-1.149,2.442,7.811,7.811,0,0,0,0,2.586c0,.144,0,.144-.144.144-4.885-.718-8.907-2.442-12.068-6.178-.144-.144-.287-.144-.287,0-1.437,2.155-.718,5.6,1.006,7.183l.718.718a6.065,6.065,0,0,1-2.3-.718c-.144-.144-.287,0-.287.144v.718a6.35,6.35,0,0,0,3.879,5.028c.287.144.575.144.718.287a5.709,5.709,0,0,1-2.3,0c-.144,0-.287,0-.144.144a6.379,6.379,0,0,0,4.741,4.023,1.3,1.3,0,0,1,.718.144h0c-.575.862-2.442,1.437-3.3,1.724a11.9,11.9,0,0,1-5.028.718H693.6v.144a3.6,3.6,0,0,0,1.006.575,13.178,13.178,0,0,0,3.3,1.293c6.034,1.58,12.786.431,17.24-4.023,3.592-3.592,4.741-8.333,4.741-13.217,0-.144.287-.287.287-.431a12.237,12.237,0,0,0,2.3-2.442.709.709,0,0,0,.144-.431h0C723.051,321.73,723.051,321.73,722.908,321.73Z" transform="translate(-21260.77 -7256.748)" fill="#fff"/>
  </g>
</svg>
