<svg xmlns="http://www.w3.org/2000/svg" width="41" height="41.083" viewBox="0 0 41 41.083">
  <g id="Group_4820" data-name="Group 4820" transform="translate(20375.301 6947.55)">
    <path id="Path_32666" data-name="Path 32666" d="M711.781,314.653c3.832,0,7.664,0,11.336.16,5.748.319,8.782,3.193,8.782,8.941.16,7.664,0,15.488-.319,23.152-.16,5.429-3.193,8.462-8.622,8.622-7.824.16-15.648,0-23.471-.16-5.429-.16-8.3-3.193-8.462-8.622-.16-7.983,0-15.967.319-23.95.16-5.109,3.193-7.983,8.3-8.143,3.992-.319,7.984,0,12.135,0Z" transform="translate(-21066.262 -7262.062)" fill="#e0aa55"/>
    <path id="Path_32661" data-name="Path 32661" d="M29.168,77.686l.037.244A3.782,3.782,0,0,0,26.635,75.3l-.026-.006c-2.326-.631-11.685-.631-11.685-.631s-9.336-.012-11.685.631A3.784,3.784,0,0,0,.649,77.9l-.006.026A41.586,41.586,0,0,0,.681,92.781l-.039-.246A3.782,3.782,0,0,0,3.214,95.16l.026.006c2.323.633,11.685.633,11.685.633s9.334,0,11.685-.633A3.783,3.783,0,0,0,29.2,92.561l.006-.026a38.866,38.866,0,0,0,.622-7.021c0-.091,0-.183,0-.275s0-.185,0-.286a40.1,40.1,0,0,0-.66-7.267ZM11.938,89.771V80.706l7.789,4.54Z" transform="translate(-20369.711 -7012.415)" fill="#fff"/>
  </g>
</svg>
