<svg xmlns="http://www.w3.org/2000/svg" width="611.194" height="315.085" viewBox="0 0 611.194 315.085">
  <g id="Group_4884" data-name="Group 4884" transform="translate(611.194) rotate(90)">
    <path id="Path_73754" data-name="Path 73754" d="M0,133.2a32.552,32.552,0,0,1,12.9,2.574A33.232,33.232,0,0,1,27.65,147.92a33.261,33.261,0,0,1,5.643,18.537v216.36a66.582,66.582,0,1,0,133.164,0V166.457a165.827,165.827,0,0,0-13.146-64.815A166.5,166.5,0,0,0,93.148,28.519,166.346,166.346,0,0,0,0,0Z" transform="translate(0 0)" fill="#d26f5d"/>
    <path id="Path_73755" data-name="Path 73755" d="M131.326,354.535A131.333,131.333,0,0,1,0,223.208V52.579a52.505,52.505,0,1,1,105.01,0V223.208a25.878,25.878,0,0,0,4.453,14.674,27.615,27.615,0,0,0,11.588,9.586,28.461,28.461,0,0,0,10.274,2.029Z" transform="translate(78.731 256.66)" fill="#fff" opacity="0.45"/>
    <path id="Path_73756" data-name="Path 73756" d="M0,105.027H0A105.027,105.027,0,0,1,105.028,0h0V105.027Z" transform="translate(210.057 92.355)" fill="#715397"/>
    <path id="Path_73757" data-name="Path 73757" d="M0,59.719H0A59.72,59.72,0,0,1,59.72,0h0V59.719Z" transform="translate(255.365 137.664)" fill="#e0aa55"/>
    <path id="Path_73758" data-name="Path 73758" d="M0,105.027H0A105.026,105.026,0,0,0,105.028,0H0Z" transform="translate(210.057 296.11)" fill="#e0aa55"/>
    <path id="Path_73759" data-name="Path 73759" d="M0,59.72H0A59.721,59.721,0,0,0,59.72,0H0Z" transform="translate(210.057 296.11)" fill="#715397"/>
    <rect id="Rectangle_1495" data-name="Rectangle 1495" width="105.028" height="105.028" transform="translate(315.085 191.081) rotate(90)" fill="#33357d"/>
    <path id="Path_73761" data-name="Path 73761" d="M0,105.029V0H105.028A105.027,105.027,0,0,1,0,105.029Z" transform="translate(210.057 506.166)" fill="#e0aa55"/>
    <path id="Path_73795" data-name="Path 73795" d="M0,0V105.027H105.028A105.027,105.027,0,0,0,0,0Z" transform="translate(210.056 401.139)" fill="#33357d"/>
    <path id="Path_73762" data-name="Path 73762" d="M0,65.967V0H65.965A65.965,65.965,0,0,1,0,65.967Z" transform="translate(210.057 506.166)" fill="#fff" opacity="0.45"/>
    <path id="Path_73794" data-name="Path 73794" d="M0,0V65.965H65.966A65.965,65.965,0,0,0,0,0Z" transform="translate(210.058 440.202)" fill="#715397"/>
    <path id="Path_73763" data-name="Path 73763" d="M105.028,105.027h0A105.028,105.028,0,0,0,0,0H0V105.027Z" transform="translate(0 81.011)" fill="#79b8cc"/>
    <path id="Path_73764" data-name="Path 73764" d="M105.028,0H0V105.029H0A105.028,105.028,0,0,0,105.028,0Z" transform="translate(0 186.038)" fill="#e0aa55"/>
    <path id="Path_73765" data-name="Path 73765" d="M60.693,60.692h0A60.692,60.692,0,0,0,0,0H0V60.692Z" transform="translate(0 125.347)" fill="#fff" opacity="0.45"/>
    <path id="Path_73766" data-name="Path 73766" d="M60.693,0H0V60.693H0A60.692,60.692,0,0,0,60.693,0Z" transform="translate(0 186.038)" fill="#5a408b"/>
    <path id="Path_73767" data-name="Path 73767" d="M55.528,27.763h0A27.764,27.764,0,0,0,27.764,0h0A27.763,27.763,0,0,0,0,27.763H0A27.764,27.764,0,0,0,27.764,55.527h0A27.764,27.764,0,0,0,55.528,27.763Z" transform="translate(154.53 450.639)" fill="#e0aa55"/>
    <path id="Path_73768" data-name="Path 73768" d="M13.14,6.569h0A6.569,6.569,0,0,0,6.57,0h0A6.57,6.57,0,0,0,0,6.569H0a6.57,6.57,0,0,0,6.57,6.57h0A6.569,6.569,0,0,0,13.14,6.569Z" transform="translate(175.723 471.832)" fill="#33357d"/>
    <path id="Path_73769" data-name="Path 73769" d="M55.528,27.764h0A27.764,27.764,0,0,0,27.764,0h0A27.763,27.763,0,0,0,0,27.764H0A27.764,27.764,0,0,0,27.764,55.528h0A27.764,27.764,0,0,0,55.528,27.764Z" transform="translate(154.529 395.112)" fill="#d26f5d"/>
    <path id="Path_73770" data-name="Path 73770" d="M13.14,6.571h0A6.57,6.57,0,0,0,6.57,0h0A6.571,6.571,0,0,0,0,6.571H0a6.571,6.571,0,0,0,6.57,6.571h0A6.57,6.57,0,0,0,13.14,6.571Z" transform="translate(175.722 416.305)" fill="#4eaec5"/>
    <path id="Path_73771" data-name="Path 73771" d="M55.526,27.763h0A27.763,27.763,0,0,0,27.763,0h0A27.762,27.762,0,0,0,0,27.763H0A27.763,27.763,0,0,0,27.763,55.527h0A27.763,27.763,0,0,0,55.526,27.763Z" transform="translate(99.003 450.639)" fill="#33357d"/>
    <path id="Path_73772" data-name="Path 73772" d="M13.14,6.569h0A6.569,6.569,0,0,0,6.57,0h0A6.569,6.569,0,0,0,0,6.569H0a6.569,6.569,0,0,0,6.57,6.57h0A6.569,6.569,0,0,0,13.14,6.569Z" transform="translate(120.197 471.832)" fill="#e0aa55"/>
    <rect id="Rectangle_1499" data-name="Rectangle 1499" width="55.527" height="55.527" rx="27.764" transform="matrix(0.054, 0.999, -0.999, 0.054, 152.979, 393.645)" fill="#715397"/>
    <path id="Path_73773" data-name="Path 73773" d="M13.14,6.571h0A6.57,6.57,0,0,0,6.57,0h0A6.57,6.57,0,0,0,0,6.571H0a6.57,6.57,0,0,0,6.57,6.571h0A6.57,6.57,0,0,0,13.14,6.571Z" transform="translate(120.196 416.305)" fill="#d26f5d"/>
    <g id="Group_4872" data-name="Group 4872" transform="translate(215.688 200.701)">
      <path id="Path_73774" data-name="Path 73774" d="M0,5.088a5.087,5.087,0,0,0,8.685,3.6,5.087,5.087,0,0,0,0-7.194A5.088,5.088,0,0,0,0,5.088" transform="translate(62.694 0)" fill="#4eaec5"/>
      <path id="Path_73775" data-name="Path 73775" d="M0,5.088v.025a5.088,5.088,0,1,0,10.175,0V5.088A5.088,5.088,0,1,0,0,5.088Z" transform="translate(62.694 52.454)" fill="#4eaec5"/>
      <path id="Path_73776" data-name="Path 73776" d="M0,5.087v.026a5.088,5.088,0,1,0,10.175,0V5.087A5.088,5.088,0,0,0,0,5.087Z" transform="translate(62.694 26.221)" fill="#4eaec5"/>
      <path id="Path_73777" data-name="Path 73777" d="M0,5.088a5.088,5.088,0,0,0,8.685,3.6,5.088,5.088,0,0,0-7.2-7.2A5.121,5.121,0,0,0,0,5.088" transform="translate(62.694 78.7)" fill="#4eaec5"/>
      <path id="Path_73778" data-name="Path 73778" d="M0,5.088a5.086,5.086,0,0,0,8.685,3.6A5.087,5.087,0,1,0,1.49,1.491,5.119,5.119,0,0,0,0,5.088" transform="translate(83.591 0)" fill="#4eaec5"/>
      <path id="Path_73779" data-name="Path 73779" d="M0,5.088v.025a5.087,5.087,0,1,0,10.174,0V5.088A5.087,5.087,0,1,0,0,5.088Z" transform="translate(83.591 52.454)" fill="#4eaec5"/>
      <path id="Path_73780" data-name="Path 73780" d="M0,5.087v.026a5.087,5.087,0,1,0,10.174,0V5.087A5.087,5.087,0,0,0,0,5.087Z" transform="translate(83.591 26.221)" fill="#4eaec5"/>
      <path id="Path_73781" data-name="Path 73781" d="M0,5.088a5.087,5.087,0,0,0,8.685,3.6A5.088,5.088,0,0,0,1.49,1.49,5.12,5.12,0,0,0,0,5.088" transform="translate(83.591 78.7)" fill="#4eaec5"/>
      <path id="Path_73782" data-name="Path 73782" d="M0,5.088a5.09,5.09,0,0,0,5.088,5.088,5.087,5.087,0,0,0,3.6-8.685,5.084,5.084,0,0,0-7.194,0A5.124,5.124,0,0,0,0,5.088" transform="translate(41.794 0)" fill="#4eaec5"/>
      <path id="Path_73783" data-name="Path 73783" d="M0,5.088v.025a5.087,5.087,0,1,0,10.175,0V5.088A5.087,5.087,0,1,0,0,5.088Z" transform="translate(41.794 52.454)" fill="#4eaec5"/>
      <path id="Path_73784" data-name="Path 73784" d="M0,5.087v.026a5.087,5.087,0,1,0,10.175,0V5.087A5.087,5.087,0,0,0,0,5.087Z" transform="translate(41.794 26.221)" fill="#4eaec5"/>
      <path id="Path_73785" data-name="Path 73785" d="M0,5.088a5.087,5.087,0,0,0,8.684,3.6A5.087,5.087,0,1,0,1.49,1.49,5.125,5.125,0,0,0,0,5.088" transform="translate(41.794 78.7)" fill="#4eaec5"/>
      <path id="Path_73786" data-name="Path 73786" d="M0,5.088a5.087,5.087,0,0,0,8.685,3.6A5.088,5.088,0,0,0,5.088,0,5.089,5.089,0,0,0,0,5.088" transform="translate(20.898 0)" fill="#4eaec5"/>
      <path id="Path_73787" data-name="Path 73787" d="M0,5.088v.025a5.088,5.088,0,1,0,10.175,0V5.088A5.088,5.088,0,1,0,0,5.088Z" transform="translate(20.898 52.454)" fill="#4eaec5"/>
      <path id="Path_73788" data-name="Path 73788" d="M0,5.087v.026a5.088,5.088,0,1,0,10.175,0V5.087A5.088,5.088,0,0,0,0,5.087Z" transform="translate(20.898 26.221)" fill="#4eaec5"/>
      <path id="Path_73789" data-name="Path 73789" d="M0,5.088a5.088,5.088,0,0,0,8.685,3.6A5.087,5.087,0,0,0,5.088,0,5.087,5.087,0,0,0,0,5.088" transform="translate(20.898 78.7)" fill="#4eaec5"/>
      <path id="Path_73790" data-name="Path 73790" d="M0,5.088a5.087,5.087,0,0,0,8.685,3.6A5.087,5.087,0,1,0,1.49,1.491,5.121,5.121,0,0,0,0,5.088" transform="translate(0 0)" fill="#4eaec5"/>
      <path id="Path_73791" data-name="Path 73791" d="M0,5.088v.025a5.087,5.087,0,1,0,10.174,0V5.088A5.087,5.087,0,1,0,0,5.088Z" transform="translate(0 52.454)" fill="#4eaec5"/>
      <path id="Path_73792" data-name="Path 73792" d="M0,5.087v.026a5.087,5.087,0,1,0,10.174,0V5.087A5.087,5.087,0,0,0,0,5.087Z" transform="translate(0 26.221)" fill="#4eaec5"/>
      <path id="Path_73793" data-name="Path 73793" d="M0,5.088a5.088,5.088,0,0,0,8.685,3.6A5.088,5.088,0,0,0,1.49,1.49,5.121,5.121,0,0,0,0,5.088" transform="translate(0 78.7)" fill="#4eaec5"/>
    </g>
  </g>
</svg>
