<svg xmlns="http://www.w3.org/2000/svg" width="611.195" height="315.085" viewBox="0 0 611.195 315.085">
  <g id="Group_4909" data-name="Group 4909" transform="translate(611.194) rotate(90)">
    <path id="Path_74128" data-name="Path 74128" d="M0,316.235a32.552,32.552,0,0,0,12.9-2.574,33.233,33.233,0,0,0,14.753-12.15,33.261,33.261,0,0,0,5.643-18.537V66.613a66.582,66.582,0,1,1,133.164,0v216.36a165.826,165.826,0,0,1-13.146,64.815,166.5,166.5,0,0,1-60.164,73.123A166.346,166.346,0,0,1,0,449.431Z" transform="translate(0 161.764)" fill="#d26f5d"/>
    <path id="Path_74129" data-name="Path 74129" d="M131.326,0A131.333,131.333,0,0,0,0,131.327V301.956a52.505,52.505,0,1,0,105.01,0V131.327a25.878,25.878,0,0,1,4.453-14.674,27.615,27.615,0,0,1,11.588-9.586,28.461,28.461,0,0,1,10.274-2.029Z" transform="translate(78.731 0)" fill="#fff" opacity="0.45"/>
    <path id="Path_74130" data-name="Path 74130" d="M0,0H0A105.027,105.027,0,0,0,105.028,105.027h0V0Z" transform="translate(210.057 413.812)" fill="#715397"/>
    <path id="Path_74131" data-name="Path 74131" d="M0,0H0A59.72,59.72,0,0,0,59.72,59.719h0V0Z" transform="translate(255.365 413.812)" fill="#e0aa55"/>
    <path id="Path_74132" data-name="Path 74132" d="M0,0H0A105.026,105.026,0,0,1,105.028,105.027H0Z" transform="translate(210.057 210.057)" fill="#e0aa55"/>
    <path id="Path_74133" data-name="Path 74133" d="M0,0H0A59.721,59.721,0,0,1,59.72,59.72H0Z" transform="translate(210.057 255.365)" fill="#715397"/>
    <rect id="Rectangle_1544" data-name="Rectangle 1544" width="105.028" height="105.028" transform="translate(210.056 420.114) rotate(-90)" fill="#33357d"/>
    <path id="Path_74134" data-name="Path 74134" d="M0,0V105.029H105.028A105.027,105.027,0,0,0,0,0Z" transform="translate(210.057 0)" fill="#e0aa55"/>
    <path id="Path_74135" data-name="Path 74135" d="M0,105.027V0H105.028A105.027,105.027,0,0,1,0,105.027Z" transform="translate(210.056 105.029)" fill="#33357d"/>
    <path id="Path_74136" data-name="Path 74136" d="M0,0V65.967H65.965A65.965,65.965,0,0,0,0,0Z" transform="translate(210.057 39.062)" fill="#fff" opacity="0.45"/>
    <path id="Path_74137" data-name="Path 74137" d="M0,65.965V0H65.966A65.965,65.965,0,0,1,0,65.965Z" transform="translate(210.058 105.028)" fill="#715397"/>
    <path id="Path_74138" data-name="Path 74138" d="M105.028,0h0A105.028,105.028,0,0,1,0,105.027H0V0Z" transform="translate(0 425.156)" fill="#79b8cc"/>
    <path id="Path_74139" data-name="Path 74139" d="M105.028,105.027H0V0H0A105.028,105.028,0,0,1,105.028,105.027Z" transform="translate(0 320.128)" fill="#e0aa55"/>
    <path id="Path_74140" data-name="Path 74140" d="M60.693,0h0A60.692,60.692,0,0,1,0,60.692H0V0Z" transform="translate(0 425.156)" fill="#fff" opacity="0.45"/>
    <path id="Path_74141" data-name="Path 74141" d="M60.693,60.691H0V0H0A60.692,60.692,0,0,1,60.693,60.691Z" transform="translate(0 364.463)" fill="#5a408b"/>
    <path id="Path_74142" data-name="Path 74142" d="M55.528,27.764h0A27.764,27.764,0,0,1,27.764,55.527h0A27.763,27.763,0,0,1,0,27.764H0A27.764,27.764,0,0,1,27.764,0h0A27.764,27.764,0,0,1,55.528,27.764Z" transform="translate(154.53 105.029)" fill="#e0aa55"/>
    <path id="Path_74143" data-name="Path 74143" d="M13.14,6.57h0A6.569,6.569,0,0,1,6.57,13.14h0A6.57,6.57,0,0,1,0,6.57H0A6.57,6.57,0,0,1,6.57,0h0A6.569,6.569,0,0,1,13.14,6.57Z" transform="translate(175.723 126.222)" fill="#33357d"/>
    <path id="Path_74144" data-name="Path 74144" d="M55.528,27.764h0A27.764,27.764,0,0,1,27.764,55.528h0A27.763,27.763,0,0,1,0,27.764H0A27.764,27.764,0,0,1,27.764,0h0A27.764,27.764,0,0,1,55.528,27.764Z" transform="translate(154.529 160.555)" fill="#d26f5d"/>
    <path id="Path_74145" data-name="Path 74145" d="M13.14,6.571h0a6.57,6.57,0,0,1-6.57,6.571h0A6.571,6.571,0,0,1,0,6.571H0A6.571,6.571,0,0,1,6.57,0h0A6.57,6.57,0,0,1,13.14,6.571Z" transform="translate(175.722 181.748)" fill="#4eaec5"/>
    <path id="Path_74146" data-name="Path 74146" d="M55.526,27.764h0A27.763,27.763,0,0,1,27.763,55.527h0A27.762,27.762,0,0,1,0,27.764H0A27.763,27.763,0,0,1,27.763,0h0A27.763,27.763,0,0,1,55.526,27.764Z" transform="translate(99.003 105.029)" fill="#33357d"/>
    <path id="Path_74147" data-name="Path 74147" d="M13.14,6.57h0A6.569,6.569,0,0,1,6.57,13.14h0A6.569,6.569,0,0,1,0,6.57H0A6.569,6.569,0,0,1,6.57,0h0A6.569,6.569,0,0,1,13.14,6.57Z" transform="translate(120.197 126.222)" fill="#e0aa55"/>
    <rect id="Rectangle_1545" data-name="Rectangle 1545" width="55.527" height="55.527" rx="27.764" transform="matrix(0.054, -0.999, 0.999, 0.054, 97.534, 214.533)" fill="#715397"/>
    <path id="Path_74148" data-name="Path 74148" d="M13.14,6.571h0a6.57,6.57,0,0,1-6.57,6.571h0A6.57,6.57,0,0,1,0,6.571H0A6.57,6.57,0,0,1,6.57,0h0A6.57,6.57,0,0,1,13.14,6.571Z" transform="translate(120.196 181.748)" fill="#d26f5d"/>
    <g id="Group_4908" data-name="Group 4908" transform="translate(215.688 321.619)">
      <path id="Path_74149" data-name="Path 74149" d="M0,5.088a5.087,5.087,0,0,1,8.685-3.6,5.087,5.087,0,0,1,0,7.194A5.088,5.088,0,0,1,0,5.088" transform="translate(62.694 78.698)" fill="#4eaec5"/>
      <path id="Path_74150" data-name="Path 74150" d="M0,5.112V5.088a5.088,5.088,0,1,1,10.175,0v.025A5.088,5.088,0,1,1,0,5.112Z" transform="translate(62.694 26.22)" fill="#4eaec5"/>
      <path id="Path_74151" data-name="Path 74151" d="M0,5.114V5.088a5.088,5.088,0,1,1,10.175,0v.026A5.088,5.088,0,0,1,0,5.114Z" transform="translate(62.694 52.452)" fill="#4eaec5"/>
      <path id="Path_74152" data-name="Path 74152" d="M0,5.087a5.088,5.088,0,0,1,8.685-3.6,5.088,5.088,0,0,1-7.2,7.2A5.121,5.121,0,0,1,0,5.087" transform="translate(62.694 0)" fill="#4eaec5"/>
      <path id="Path_74153" data-name="Path 74153" d="M0,5.088a5.086,5.086,0,0,1,8.685-3.6A5.087,5.087,0,1,1,1.49,8.685,5.119,5.119,0,0,1,0,5.088" transform="translate(83.591 78.698)" fill="#4eaec5"/>
      <path id="Path_74154" data-name="Path 74154" d="M0,5.112V5.088a5.087,5.087,0,1,1,10.174,0v.025A5.087,5.087,0,1,1,0,5.112Z" transform="translate(83.591 26.22)" fill="#4eaec5"/>
      <path id="Path_74155" data-name="Path 74155" d="M0,5.114V5.088a5.087,5.087,0,1,1,10.174,0v.026A5.087,5.087,0,0,1,0,5.114Z" transform="translate(83.591 52.452)" fill="#4eaec5"/>
      <path id="Path_74156" data-name="Path 74156" d="M0,5.087a5.087,5.087,0,0,1,8.685-3.6,5.088,5.088,0,0,1-7.195,7.2A5.12,5.12,0,0,1,0,5.087" transform="translate(83.591 0)" fill="#4eaec5"/>
      <path id="Path_74157" data-name="Path 74157" d="M0,5.088A5.09,5.09,0,0,1,5.088,0a5.087,5.087,0,0,1,3.6,8.685,5.084,5.084,0,0,1-7.194,0A5.124,5.124,0,0,1,0,5.088" transform="translate(41.794 78.698)" fill="#4eaec5"/>
      <path id="Path_74158" data-name="Path 74158" d="M0,5.112V5.088a5.087,5.087,0,1,1,10.175,0v.025A5.087,5.087,0,1,1,0,5.112Z" transform="translate(41.794 26.22)" fill="#4eaec5"/>
      <path id="Path_74159" data-name="Path 74159" d="M0,5.114V5.088a5.087,5.087,0,1,1,10.175,0v.026A5.087,5.087,0,0,1,0,5.114Z" transform="translate(41.794 52.452)" fill="#4eaec5"/>
      <path id="Path_74160" data-name="Path 74160" d="M0,5.087a5.087,5.087,0,0,1,8.684-3.6,5.087,5.087,0,1,1-7.194,7.2A5.125,5.125,0,0,1,0,5.087" transform="translate(41.794 0)" fill="#4eaec5"/>
      <path id="Path_74161" data-name="Path 74161" d="M0,5.088a5.087,5.087,0,0,1,8.685-3.6,5.088,5.088,0,0,1-3.6,8.685A5.089,5.089,0,0,1,0,5.088" transform="translate(20.898 78.698)" fill="#4eaec5"/>
      <path id="Path_74162" data-name="Path 74162" d="M0,5.112V5.088a5.088,5.088,0,1,1,10.175,0v.025A5.088,5.088,0,1,1,0,5.112Z" transform="translate(20.898 26.22)" fill="#4eaec5"/>
      <path id="Path_74163" data-name="Path 74163" d="M0,5.114V5.088a5.088,5.088,0,1,1,10.175,0v.026A5.088,5.088,0,0,1,0,5.114Z" transform="translate(20.898 52.452)" fill="#4eaec5"/>
      <path id="Path_74164" data-name="Path 74164" d="M0,5.087a5.088,5.088,0,0,1,8.685-3.6,5.087,5.087,0,0,1-3.6,8.685A5.087,5.087,0,0,1,0,5.087" transform="translate(20.898 0)" fill="#4eaec5"/>
      <path id="Path_74165" data-name="Path 74165" d="M0,5.088a5.087,5.087,0,0,1,8.685-3.6A5.087,5.087,0,1,1,1.49,8.685,5.121,5.121,0,0,1,0,5.088" transform="translate(0 78.698)" fill="#4eaec5"/>
      <path id="Path_74166" data-name="Path 74166" d="M0,5.112V5.088a5.087,5.087,0,1,1,10.174,0v.025A5.087,5.087,0,1,1,0,5.112Z" transform="translate(0 26.22)" fill="#4eaec5"/>
      <path id="Path_74167" data-name="Path 74167" d="M0,5.114V5.088a5.087,5.087,0,1,1,10.174,0v.026A5.087,5.087,0,0,1,0,5.114Z" transform="translate(0 52.452)" fill="#4eaec5"/>
      <path id="Path_74168" data-name="Path 74168" d="M0,5.087a5.088,5.088,0,0,1,8.685-3.6,5.088,5.088,0,0,1-7.195,7.2A5.121,5.121,0,0,1,0,5.087" transform="translate(0 0)" fill="#4eaec5"/>
    </g>
  </g>
</svg>
