<svg xmlns="http://www.w3.org/2000/svg" viewBox="0 280 383 459.432">
  <g id="Group_4880" data-name="Group 4880" transform="translate(-2928 1016.915) rotate(-90)">
    <path id="Path_73570" data-name="Path 73570" d="M383,459.432V190.356C383,85.115,297.2,0,191.5,0,85.628,0,0,85.115,0,190.356V459.432Z" transform="translate(557.482 3311) rotate(-90)" fill="#33357d"/>
    <path id="Path_73566" data-name="Path 73566" d="M100.276,0h0A100.275,100.275,0,0,1,0,100.276H0V0Z" transform="translate(740.958 3119.235) rotate(90)" fill="#d26f5d"/>
    <path id="Path_73567" data-name="Path 73567" d="M57.017,0h0A57.017,57.017,0,0,1,0,57.017H0V0Z" transform="translate(740.958 3119.235) rotate(90)" fill="#79b8cc"/>
    <path id="Path_73565" data-name="Path 73565" d="M0,0H0A100.275,100.275,0,0,0,100.275,100.276h0V0Z" transform="translate(740.958 3018.959) rotate(90)" fill="#715397"/>
    <path id="Path_73568" data-name="Path 73568" d="M0,0H0A57.017,57.017,0,0,0,57.017,57.017h0V0Z" transform="translate(740.958 3062.217) rotate(90)" fill="#fff"/>
  </g>
</svg>
