<svg xmlns="http://www.w3.org/2000/svg" viewBox="280 0 458.233 382">
  <g id="Group_4875" data-name="Group 4875" transform="translate(-847.483 -1308)">
    <path id="Path_73571" data-name="Path 73571" d="M382,458.233V189.859C382,84.893,296.426,0,191,0,85.4,0,0,84.893,0,189.859V458.233Z" transform="translate(1305.716 1308) rotate(90)" fill="#79b8cc"/>
    <path id="Path_73572" data-name="Path 73572" d="M100.014,0h0A100.013,100.013,0,0,1,0,100.014H0V0Z" transform="translate(1122.719 1498.735) rotate(-90)" fill="#d26f5d"/>
    <path id="Path_73574" data-name="Path 73574" d="M56.868,0h0A56.868,56.868,0,0,1,0,56.868H0V0Z" transform="translate(1122.719 1498.735) rotate(-90)" fill="#33357d"/>
    <path id="Path_73573" data-name="Path 73573" d="M0,0H0A100.013,100.013,0,0,0,100.014,100.014h0V0Z" transform="translate(1122.719 1598.279) rotate(-90)" fill="#715397"/>
    <path id="Path_73575" data-name="Path 73575" d="M0,0H0A56.868,56.868,0,0,0,56.868,56.868h0V0Z" transform="translate(1122.719 1555.134) rotate(-90)" fill="#fff"/>
  </g>
</svg>
