<svg xmlns="http://www.w3.org/2000/svg" width="100%" height="100%" viewBox="0 0 274.265 85.805">
    <defs>
        <style>
            .a {
                fill: #0070a2;
            }

            .b {
                fill: #112252;
            }

            .c {
                fill: #818386;
            }
        </style>
    </defs>
    <g transform="translate(-194.535 -292.551)">
        <path class="a"
            d="M533.386,335.094v-3.6a11.106,11.106,0,0,1,22.212.142h0V338.5q3.34.24,6.691.3v-7.145a17.775,17.775,0,0,0-28.9-13.81V296.2h-6.691v37.442C528.924,334.134,531.155,334.628,533.386,335.094Z"
            transform="translate(-252.469 -2.771)" />
        <path class="a" d="M922.095,366.729c2.253-1.034,4.513-2.054,6.792-3.023v-11.13h-6.792Z"
            transform="translate(-553.005 -45.624)" />
        <path class="a"
            d="M349.91,383.374q1.581.111,3.16.24a11.017,11.017,0,0,1,10.292-6.8,10.885,10.885,0,0,1,10.967,9.738q1.617.3,3.234.631,1.763.357,3.524.734v-.142a17.768,17.768,0,0,0-34.913-4.621Q348.046,383.247,349.91,383.374Z"
            transform="translate(-115.259 -58.911)" />
        <path class="a"
            d="M696.643,394.493a11.214,11.214,0,0,1-2.229-6.747,11.072,11.072,0,0,1,22.142,0,11.524,11.524,0,0,1-.449,3.205q3.6-1,7.142-2.229v-.96a17.762,17.762,0,1,0-34.044,7.147Q692.934,394.812,696.643,394.493Z"
            transform="translate(-374.865 -58.868)" />
        <path class="a" d="M920.883,305a4.558,4.558,0,1,0-4.558-4.558h0A4.587,4.587,0,0,0,920.883,305Z"
            transform="translate(-548.62 -2.535)" />
        <path class="a"
            d="M217.946,313.771a20.707,20.707,0,0,0,7.032,5.18c.281.139,1.5.78,2.735,1.478.609.348,1.586.924,2.586,1.6l.022.017h0a18.115,18.115,0,0,1,2.728,2.159c.065.067.13.137.192.2q3.743-.264,7.5-.266c-.223-.48-.48-.96-.763-1.461h0l-.014-.024h0a21.874,21.874,0,0,0-5.921-6.252h0c-.24-.18-.48-.343-.708-.5h0l-.084-.058-.338-.226-.118-.077-.36-.24-.079-.048-.389-.24-.036-.022c-1.161-.686-2.217-1.2-3.287-1.759l-.312-.168-.178-.1-.338-.19-.158-.091c-.166-.1-.331-.194-.5-.3l-.506-.319-.156-.1-.319-.209-.156-.108-.3-.2-.158-.113-.259-.187-.151-.115-.24-.18-.142-.113-.218-.175-.132-.11-.2-.17-.122-.11-.185-.166-.115-.108-.168-.161-.1-.106-.156-.158-.1-.1-.142-.154-.089-.1-.127-.149-.082-.1-.113-.144-.074-.1-.1-.139-.067-.1-.091-.137-.06-.1-.079-.132-.053-.1-.07-.13-.046-.094-.06-.125-.041-.094-.05-.12-.036-.094-.043-.115-.031-.094-.036-.11-.026-.091a.405.405,0,0,0-.029-.106l-.022-.091-.022-.1a.176.176,0,0,0-.017-.091c-.017-.031,0-.065-.017-.1s0-.06-.014-.091,0-.06-.012-.091a.233.233,0,0,1,0-.091v-1.075a7.119,7.119,0,0,1,.3-1.739H221.9a5.675,5.675,0,0,1,1.084-1.963h0A5.686,5.686,0,0,1,233,305.007v.312a2.018,2.018,0,0,1,.019.3v.022l6.641-2.361a12.452,12.452,0,0,0-14.053-10.612l-.258.039a11.113,11.113,0,0,0-2.308.6,12.459,12.459,0,0,0-8.157,11.7,12.644,12.644,0,0,0,.132,2.138A12.121,12.121,0,0,0,217.946,313.771Z"
            transform="translate(-15.465)" />
        <path class="b" d="M647.165,480.547v9.093h6.7v-8.812Q650.507,480.779,647.165,480.547Z"
            transform="translate(-344.036 -142.892)" />
        <path class="b"
            d="M731.04,456.326Q727,457.7,722.883,458.79a11.055,11.055,0,0,1-16.917,3.054q-4.043.4-8.121.526a17.766,17.766,0,0,0,15.369,8.851,17.568,17.568,0,0,0,14.167-6.977c2.135,3.133,5.127,6.195,9.042,6.835v-6.694A10.7,10.7,0,0,1,731.04,456.326Z"
            transform="translate(-382.557 -124.482)" />
        <path class="b"
            d="M886.371,410.666v5.473a11.243,11.243,0,0,1-11.209,11.276h-.067v6.792a18.073,18.073,0,0,0,18.068-18.068v-8.522C890.884,408.605,888.624,409.632,886.371,410.666Z"
            transform="translate(-517.281 -87.46)" />
        <path class="b"
            d="M379.162,437.464q-3.359-.72-6.739-1.372a11.008,11.008,0,0,1-11.01,10.448,11.173,11.173,0,0,1-10.861-13.5q-3.359-.264-6.73-.393a17.876,17.876,0,0,0,17.591,20.587,17.566,17.566,0,0,0,14.17-6.989c2.135,3.133,5.127,6.195,9.043,6.835v-6.694A10.817,10.817,0,0,1,379.162,437.464Z"
            transform="translate(-113.311 -106.484)" />
        <path class="b" d="M526.695,460.267v13.886h6.691V461.721Q530.039,461,526.695,460.267Z"
            transform="translate(-252.469 -127.478)" />
        <path class="b"
            d="M219.055,432.416a7.531,7.531,0,0,1,.326.686h.024a9.733,9.733,0,0,1,.746,3.743,9.462,9.462,0,1,1-18.786-1.6,66.525,66.525,0,0,0-6.83,2.305l.019.151a16.738,16.738,0,0,0,4.331,10.125,16.086,16.086,0,0,0,11.255,5.057,17.841,17.841,0,0,0,3.855-.218,16.314,16.314,0,0,0,12.824-15.945,15.524,15.524,0,0,0-.794-4.489Q222.537,432.219,219.055,432.416Z"
            transform="translate(0 -106.169)" />
        <path class="b"
            d="M1042.62,541.756q.561.142.561.5v.172q0,.413-.617.5-.4,0-.53-.585Q1042.15,541.758,1042.62,541.756Zm0,2q.561.139.561.5v7q0,.437-.561.53h-.031q-.444,0-.554-.585v-6.768Q1042.1,543.755,1042.62,543.755Z"
            transform="translate(-644.169 -189.416)" />
        <path class="b"
            d="M1058.513,550.326q.554.142.554.5v.64a4.047,4.047,0,0,1,2.761-1.14,3.88,3.88,0,0,1,2.917,1.372,3.783,3.783,0,0,1,.928,2.4V557.8q0,.381-.554.48h-.031q-.554-.1-.554-.554v-3.239a2.763,2.763,0,0,0-1.888-2.879,3.388,3.388,0,0,0-.821-.118h-.086a2.68,2.68,0,0,0-2.45,1.639,4.14,4.14,0,0,0-.225,1.6v3.059q0,.43-.554.523h-.031q-.444,0-.554-.585v-6.718Q1058,550.326,1058.513,550.326Z"
            transform="translate(-656.247 -195.93)" />
        <path class="b"
            d="M1100.953,550.506a3.553,3.553,0,0,1,3.152,1.819l.024.225v.031q0,.461-.578.547-.382,0-.78-.662a2.544,2.544,0,0,0-1.818-.78,2.365,2.365,0,0,0-2.106,1.271l-.024.149q0,.381.866.461,3.323.8,3.637.921a1.618,1.618,0,0,1,.835,1.389v.024q0,1.2-1.764,2.2a3.857,3.857,0,0,1-1.615.343,3.6,3.6,0,0,1-2.973-1.646.575.575,0,0,1-.118-.319v-.17q0-.422.641-.48.273,0,.78.72a2.543,2.543,0,0,0,1.787.72,2.39,2.39,0,0,0,2.02-1.154l.055-.173v-.031q0-.374-.516-.429a26.068,26.068,0,0,1-4.1-1.07,1.621,1.621,0,0,1-.72-1.327q0-1.091,1.583-2.106A3.7,3.7,0,0,1,1100.953,550.506Z"
            transform="translate(-686.43 -196.067)" />
        <path class="b"
            d="M1136.988,550.417a4,4,0,0,1,3.956,3.956,3.963,3.963,0,0,1-3.87,3.956h-.24a4,4,0,0,1-2.685-1.185v3.987q0,.367-.578.48-.413,0-.547-.578v-6.4a3.972,3.972,0,0,1,2.833-4.043A5.7,5.7,0,0,1,1136.988,550.417Zm-2.8,3.87v.149a2.7,2.7,0,0,0,1.531,2.45,2.529,2.529,0,0,0,1.185.288h.173a2.719,2.719,0,0,0,2.512-1.7,2.944,2.944,0,0,0,.2-1.039v-.149a2.7,2.7,0,0,0-1.2-2.224,2.8,2.8,0,0,0-1.622-.48,2.809,2.809,0,0,0-2.778,2.706Z"
            transform="translate(-713.329 -195.999)" />
        <path class="b"
            d="M1175.83,541.756q.561.142.561.5v.172q0,.413-.617.5-.4,0-.53-.585Q1175.36,541.758,1175.83,541.756Zm0,2q.561.139.561.5v7q0,.437-.561.53h-.031q-.444,0-.554-.585v-6.768Q1175.314,543.755,1175.83,543.755Z"
            transform="translate(-745.42 -189.416)" />
        <path class="b"
            d="M1192.38,550.056q.561.139.561.5v.648a4.082,4.082,0,0,1,2.754-1.147,4.264,4.264,0,0,1,1.68.382.694.694,0,0,1,.24.48v.031q-.093.554-.554.554h-.031a4.39,4.39,0,0,0-1.2-.257h-.17a2.652,2.652,0,0,0-2.529,1.787,3.181,3.181,0,0,0-.173,1.084v3.44q0,.437-.561.531h-.058q-.444,0-.554-.585v-6.768Q1191.859,550.056,1192.38,550.056Z"
            transform="translate(-757.992 -195.725)" />
        <path class="b"
            d="M1225.24,541.756q.561.142.561.5v.172q0,.413-.617.5-.4,0-.53-.585Q1224.777,541.758,1225.24,541.756Zm0,2q.561.139.561.5v7q0,.437-.561.53h-.031q-.444,0-.554-.585v-6.768Q1224.729,543.755,1225.24,543.755Z"
            transform="translate(-782.976 -189.416)" />
        <path class="b"
            d="M1241.153,550.326q.554.142.554.5v.64a4.047,4.047,0,0,1,2.762-1.14,3.88,3.88,0,0,1,2.917,1.372,3.781,3.781,0,0,1,.928,2.4V557.8q0,.381-.554.48h-.031q-.554-.1-.554-.554v-3.239a2.763,2.763,0,0,0-1.888-2.879,3.384,3.384,0,0,0-.82-.118h-.086a2.68,2.68,0,0,0-2.45,1.639,4.145,4.145,0,0,0-.225,1.6v3.059q0,.43-.554.523h-.031q-.444,0-.554-.585v-6.718Q1240.637,550.326,1241.153,550.326Z"
            transform="translate(-795.069 -195.93)" />
        <path class="b"
            d="M1284.86,550.376a4.011,4.011,0,0,1,3.973,3.8l-.031.983v3.5q0,.984-1.507,2.147a4.4,4.4,0,0,1-2.435.756,4.3,4.3,0,0,1-3.6-1.943,1.535,1.535,0,0,1-.257-.578v-.086q0-.381.523-.5h.086q.391,0,.662.72a3.187,3.187,0,0,0,2.584,1.31,3.008,3.008,0,0,0,2.785-1.679l.055-.374v-1.3a4.015,4.015,0,0,1-2.754,1.185h-.24a4.023,4.023,0,0,1-2.98-1.507,4.226,4.226,0,0,1-.842-2.466,3.953,3.953,0,0,1,1.708-3.246A4.037,4.037,0,0,1,1284.86,550.376Zm-2.841,3.887v.142a2.8,2.8,0,0,0,1.857,2.639,3.192,3.192,0,0,0,.9.149h.173a2.808,2.808,0,0,0,2.615-1.857,3.8,3.8,0,0,0,.139-.866v-.18a2.815,2.815,0,0,0-1.881-2.639,4.178,4.178,0,0,0-.9-.142h-.11a2.806,2.806,0,0,0-2.615,1.826A2.921,2.921,0,0,0,1282.02,554.263Z"
            transform="translate(-825.715 -195.968)" />
        <path class="b"
            d="M1041.583,602.857h.086q.53.117.53.506V607.2a4.029,4.029,0,1,1,4.77,6.367,3.985,3.985,0,0,1-1.795.48h-.24a4.1,4.1,0,0,1-3.035-1.528,4.405,4.405,0,0,1-.859-2.716v-6.442Q1041.053,602.97,1041.583,602.857Zm.617,7.046v.149a2.852,2.852,0,0,0,1.888,2.685,3.294,3.294,0,0,0,.912.149h.18a2.851,2.851,0,0,0,2.653-1.888,3.782,3.782,0,0,0,.149-.881v-.19a2.863,2.863,0,0,0-1.919-2.685,3.985,3.985,0,0,0-.912-.148h-.118a2.85,2.85,0,0,0-2.654,1.857,2.937,2.937,0,0,0-.182.953Z"
            transform="translate(-643.413 -235.858)" />
        <path class="b"
            d="M1085.244,615.9q.561.141.561.5v.648a4.082,4.082,0,0,1,2.754-1.147,4.26,4.26,0,0,1,1.679.381.7.7,0,0,1,.24.48v.031q-.094.554-.554.554h-.031a4.4,4.4,0,0,0-1.2-.257h-.173a2.652,2.652,0,0,0-2.529,1.787,3.18,3.18,0,0,0-.17,1.084v3.464q0,.437-.561.53h-.031q-.444,0-.554-.585v-6.792Q1084.727,615.9,1085.244,615.9Z"
            transform="translate(-676.579 -245.77)" />
        <path class="b"
            d="M1118.03,607.607q.561.142.562.5v.173q0,.412-.617.5-.4,0-.53-.585Q1117.562,607.607,1118.03,607.607Zm0,2q.561.142.562.5v7.008q0,.437-.562.53H1118q-.444,0-.554-.585v-6.782q.072-.672.585-.67Z"
            transform="translate(-701.487 -239.468)" />
        <path class="b"
            d="M1133.434,603.017h.118q.53.11.53.48v9.52h.617q.381,0,.5.562v.024q-.094.562-.561.562h-1.14q-.454,0-.561-.585v-9.921Q1133,603.017,1133.434,603.017Z"
            transform="translate(-713.261 -235.98)" />
        <path class="b"
            d="M1151.514,603.017h.118q.53.11.53.48v9.52h.616q.382,0,.5.562v.024q-.093.562-.561.562h-1.14q-.453,0-.561-.585v-9.921Q1151.077,603.017,1151.514,603.017Z"
            transform="translate(-727.003 -235.98)" />
        <path class="b"
            d="M1170.82,607.607q.561.142.561.5v.173q0,.412-.617.5-.4,0-.53-.585Q1170.35,607.607,1170.82,607.607Zm0,2q.561.142.561.5v7.008q0,.437-.561.53h-.031q-.444,0-.554-.585v-6.782q.069-.672.585-.67Z"
            transform="translate(-741.612 -239.468)" />
        <path class="b"
            d="M1188.967,616.157a4.018,4.018,0,0,1,3.582,2.217,4.476,4.476,0,0,1,.405,1.864v3.378q0,.429-.554.523h-.031a.593.593,0,0,1-.554-.437v-.031l.031-.72v-.036a3.966,3.966,0,0,1-2.771,1.226h-.233a3.985,3.985,0,0,1-3.388-2.037,4.4,4.4,0,0,1-.48-1.982,3.96,3.96,0,0,1,2.186-3.527A4.233,4.233,0,0,1,1188.967,616.157Zm-2.855,3.932v.086a2.812,2.812,0,0,0,1.749,2.622,2.924,2.924,0,0,0,.991.2h.225a2.816,2.816,0,0,0,2.4-1.451,2.936,2.936,0,0,0,.343-1.31v-.118a2.787,2.787,0,0,0-1.656-2.567,2.908,2.908,0,0,0-1.2-.257h-.031a2.84,2.84,0,0,0-2.653,1.833,3.43,3.43,0,0,0-.168.957Z"
            transform="translate(-752.816 -245.967)" />
        <path class="b"
            d="M1228.373,616.157q.554.139.554.5v.641a4.045,4.045,0,0,1,2.761-1.14,3.88,3.88,0,0,1,2.917,1.372,3.781,3.781,0,0,1,.928,2.411v3.707q0,.382-.554.48h-.031q-.554-.1-.554-.554v-3.248a2.763,2.763,0,0,0-1.888-2.879,3.354,3.354,0,0,0-.821-.118h-.086a2.68,2.68,0,0,0-2.45,1.639,4.143,4.143,0,0,0-.225,1.6v3.059q0,.429-.554.523h-.031q-.444,0-.554-.585v-6.718Q1227.859,616.157,1228.373,616.157Z"
            transform="translate(-785.355 -245.967)" />
        <path class="b"
            d="M1271.967,616.066a4.057,4.057,0,0,1,2.81,1.164.619.619,0,0,1,.086.3v.031q-.1.554-.554.554h-.031a2.475,2.475,0,0,1-.936-.554,2.832,2.832,0,0,0-1.288-.329h-.173a2.767,2.767,0,0,0-2.574,1.787,3.421,3.421,0,0,0-.2,1.084,2.852,2.852,0,0,0,1.787,2.639,3.2,3.2,0,0,0,1.14.2,3.074,3.074,0,0,0,1.982-.821l.24-.055h.094q.429,0,.523.554v.024q0,.6-1.874,1.32a5.691,5.691,0,0,1-.936.118h-.24a4.049,4.049,0,0,1-3-1.521,4.243,4.243,0,0,1-.849-2.481,4,4,0,0,1,1.725-3.277A4.08,4.08,0,0,1,1271.967,616.066Z"
            transform="translate(-815.895 -245.898)" />
        <path class="b"
            d="M1308.326,616.1a3.99,3.99,0,0,1,3.6,2.193,4.048,4.048,0,0,1,.437,1.864v.149q-.1.585-.554.585h-6.156a2.908,2.908,0,0,0,1.483,1.778,3.069,3.069,0,0,0,2.809-.18h.173q.523.1.523.53v.093q0,.72-2.1.991h-.2a3.929,3.929,0,0,1-3.448-2.013,4.074,4.074,0,0,1-.523-1.989,3.966,3.966,0,0,1,2.075-3.5A4.282,4.282,0,0,1,1308.326,616.1Zm-2.778,3.654h5.609a2.906,2.906,0,0,0-.7-1.552,2.812,2.812,0,0,0-1.9-.9h-.319a2.692,2.692,0,0,0-2.31,1.372A2.949,2.949,0,0,0,1305.548,619.751Z"
            transform="translate(-843.562 -245.922)" />
        <rect class="c" width="1.679" height="23.721" transform="translate(385.723 354.413)" />
        <path class="b"
            d="M428.226,582.146a9.21,9.21,0,1,1-9.21-9.211A9.21,9.21,0,0,1,428.226,582.146Zm-3.464,0A5.758,5.758,0,1,0,419,587.9,5.758,5.758,0,0,0,424.761,582.146Z"
            transform="translate(-163.623 -213.116)" />
        <path class="b"
            d="M356.681,585.31c-.194-2.416-1.679-4.059-4.424-4.885L350,579.761c-1.583-.48-2.315-1.2-2.236-2.272a1.816,1.816,0,0,1,.708-1.4,2.637,2.637,0,0,1,1.665-.6,3.26,3.26,0,0,1,1.8.5,1.559,1.559,0,0,1,.705,1.173v.756H356.1v-.9a4.354,4.354,0,0,0-2.02-3.287,6.167,6.167,0,0,0-3.652-1.118h-.288A6.476,6.476,0,0,0,346,574.123a4.464,4.464,0,0,0-1.643,3.7c.122,2.366,1.475,3.923,4.019,4.628l2.284.638c1.754.5,2.6,1.367,2.577,2.658a2.4,2.4,0,0,1-.765,1.79,3.582,3.582,0,0,1-2.368.785h-.067a3.2,3.2,0,0,1-2.159-.88,3.474,3.474,0,0,1-.9-2.426h-3.335v.36a5.444,5.444,0,0,0,1.768,4.047,6.648,6.648,0,0,0,4.345,1.79q.228.012.449.012a6.855,6.855,0,0,0,4.513-1.588A4.886,4.886,0,0,0,356.681,585.31Z"
            transform="translate(-113.328 -212.87)" />
        <path class="b"
            d="M505.011,544.326l-.012.036h5.17v3.464h-5.194l.036,14.7h-3.426V544.261a9.15,9.15,0,0,1,9.126-9.174h.048V538.5A5.818,5.818,0,0,0,505.011,544.326Z"
            transform="translate(-233.383 -184.347)" />
        <path class="b"
            d="M562.735,577.265V580.7a9.167,9.167,0,0,1-9.21-9.124c0-.029,0-.058,0-.087V559.036h3.464v3.5h5.758v3.5h-5.758v5.453A5.808,5.808,0,0,0,562.735,577.265Z"
            transform="translate(-272.861 -202.551)" />
        <path class="b"
            d="M742.266,591.292c-2.027-.331-3.572-1.919-4.678-3.536a9.094,9.094,0,0,1-7.332,3.611,9.211,9.211,0,1,1,0-18.421A9.117,9.117,0,0,1,739.43,582c0,.039,0,.077,0,.115v.773a5.641,5.641,0,0,0,2.836,4.938Zm-12.01-14.849a5.669,5.669,0,0,0-5.757,5.58c0,.031,0,.063,0,.094a5.729,5.729,0,1,0,11.458,0,5.638,5.638,0,0,0-5.6-5.674Z"
            transform="translate(-400.191 -213.123)" />
        <path class="b"
            d="M825.395,591.219V572.986h3.464v1.879a9.163,9.163,0,0,1,5.758-2.027V576.3A5.731,5.731,0,0,0,828.859,582c0,.017,0,.035,0,.053v9.174Z"
            transform="translate(-479.505 -213.04)" />
        <path class="b"
            d="M889.732,588.92a9.141,9.141,0,1,1,2.6-4.9l-14.561.038a5.893,5.893,0,0,0,1.408,2.344,5.7,5.7,0,0,0,8.061.115l.041-.04ZM877.8,580.59h10.943a6,6,0,0,0-1.44-2.318,5.688,5.688,0,0,0-8.128.108,6,6,0,0,0-1.377,2.212Z"
            transform="translate(-516.602 -213.349)" />
        <path class="b"
            d="M628.847,573.6v11.43a3.378,3.378,0,0,1-6.756,0V573.6h-3.359v11.43a3.379,3.379,0,0,1-6.758,0h0V573.6h-3.359v11.43a6.732,6.732,0,0,0,11.8,4.443,6.732,6.732,0,0,0,11.794-4.443V573.6Z"
            transform="translate(-314.735 -213.618)" />
    </g>
</svg>