<svg id="Layer_1" data-name="Layer 1" xmlns="http://www.w3.org/2000/svg" viewBox="0 0 100 100">
  <g>
    <path d="M31.17,31.44a6.11,6.11,0,0,1,.48-2.4,6.19,6.19,0,0,1,5.72-3.8H77.66a12.4,12.4,0,1,0,0-24.8H37.37a31,31,0,0,0-31,31Z" style="fill: #333481"/>
    <path d="M93.16,68.62a31,31,0,0,1-31,31H21.88a12.4,12.4,0,1,1,0-24.79H62.16a6.12,6.12,0,0,0,3.46-1A6.57,6.57,0,0,0,67.89,71a7,7,0,0,0,.48-2.42Z" style="fill: #333481"/>
    <path d="M93.16,68.62a31,31,0,0,0-31-31H37.37a6,6,0,0,1-2.4-.48,6.29,6.29,0,0,1-2.75-2.25,6.2,6.2,0,0,1-1-3.46H6.37a31,31,0,0,0,31,31H62.16a6.43,6.43,0,0,1,2.41.46,6.3,6.3,0,0,1,3.8,5.72Z" style="fill: #27235d"/>
  </g>
</svg>
