<svg xmlns="http://www.w3.org/2000/svg" xmlns:xlink="http://www.w3.org/1999/xlink" width="1920" height="9.575" viewBox="0 0 1920 9.575">
  <defs>
    <clipPath id="clip-path">
      <rect id="Rectangle_1343" data-name="Rectangle 1343" width="1920" height="9.576" fill="none"/>
    </clipPath>
  </defs>
  <g id="Group_3810" data-name="Group 3810" transform="translate(-289.033 -562.651)">
    <g id="Group_3809" data-name="Group 3809" transform="translate(289.033 562.651)" clip-path="url(#clip-path)">
      <g id="Group_3808" data-name="Group 3808" transform="translate(-219.858 -383.949)">
        <rect id="Rectangle_1340" data-name="Rectangle 1340" width="726.07" height="2309.499" transform="translate(3.218 726.07) rotate(-90)" fill="#172870"/>
        <g id="Group_3807" data-name="Group 3807" transform="translate(0 0)">
          <g id="Group_3806" data-name="Group 3806">
            <g id="Group_3794" data-name="Group 3794" transform="translate(1739.677 153.136)">
              <g id="Group_3793" data-name="Group 3793" transform="translate(287.472)">
                <path id="Path_32599" data-name="Path 32599" d="M825.244,493.962a177.766,177.766,0,0,0,22.286-1.319c10.337-1.271,19.282-3.481,25.491-6.23,6.161-2.764,9.643-5.864,9.754-9.5V365.988c0-18.864,51.521-34.15,115.1-34.15,63.47,0,115,15.286,115,34.15V476.91c0,11.681-8.035,22.979-22.714,33.229-21.793,15.32-58.164,28.3-103.963,37.488-45.8,9.2-101.714,14.621-160.954,14.621Z" transform="translate(-825.244 -331.838)" fill="#5a408b"/>
              </g>
              <path id="Path_32600" data-name="Path 32600" d="M1027.577,562.248c-59.24,0-115.213-5.388-160.9-14.621-45.9-9.153-82.216-22.136-104.017-37.488-14.679-10.217-22.707-21.517-22.707-33.229V366.035c0-18.878,51.417-34.167,114.991-34.167s115,15.289,115,34.167V476.91c0,3.671,3.586,6.77,9.751,9.536,6.32,2.718,15.265,4.926,25.383,6.229a197.32,197.32,0,0,0,22.5,1.318Z" transform="translate(-739.953 -331.838)" fill="#e8942d"/>
            </g>
            <g id="Group_3805" data-name="Group 3805">
              <path id="Path_32601" data-name="Path 32601" d="M621.127,438.7,319.7,488.359l.436,227.016-42.649,69.76L686.882,801.04l531.235-11.568,542.74-108.227,145.8-25.077,285.4-290.6,218.973-.053V276.2L1268.379,290.757l-178.334-4.724" transform="translate(-96.54 -178.702)" fill="#172870"/>
              <g id="Group_3795" data-name="Group 3795" transform="translate(1012.218 229.07)">
                <path id="Path_32602" data-name="Path 32602" d="M524.121,667.222v94.635c0,23.856,65.273,43.225,145.689,43.225,80.548,0,145.689-19.369,145.689-43.225V452.6a13.269,13.269,0,0,0,.131-1.547c0-23.857-65.273-43.285-145.821-43.285-80.416,0-145.689,19.428-145.689,43.285V667.222" transform="translate(-524.121 -407.772)" fill="#4eaec5"/>
              </g>
              <path id="Path_32603" data-name="Path 32603" d="M906.845,849.3H695.67L588.5,815.512l-8.324-12.04,326.723-3.7,18.729,17.288Z" transform="translate(620.966 -178.702)" fill="#4eaec5"/>
              <g id="Group_3796" data-name="Group 3796" transform="translate(0 510.609)">
                <path id="Path_32604" data-name="Path 32604" d="M694.595,797.042c0,59.5-162.569,107.73-363.106,107.73l0-53.854h0c100.289,0,181.588-24.121,181.588-53.876,0-29.7-81.02-53.792-181.069-53.875h-.522V689.311h.859C532.495,689.449,694.595,737.629,694.595,797.042Z" transform="translate(31.465 -689.311)" fill="#d85144"/>
                <path id="Path_32605" data-name="Path 32605" d="M586.906,743.166c-100.289,0-181.588,24.122-181.588,53.877s81.3,53.877,181.588,53.877v53.852c-200.537,0-363.1-48.232-363.1-107.73" transform="translate(-223.803 -689.311)" fill="#4eaec5"/>
              </g>
              <path id="Path_32606" data-name="Path 32606" d="M523.919,854.692c0-27.64,75.634-50.078,168.794-50.078s168.949,22.438,168.949,50.078c0,27.688-75.789,50.08-168.949,50.08S523.919,882.38,523.919,854.692Z" transform="translate(487.618 -178.702)" fill="#e8942d"/>
              <g id="Group_3797" data-name="Group 3797" transform="translate(219.176 245.048)">
                <path id="Path_32607" data-name="Path 32607" d="M288.831,700.909v94.635c0,23.856,65.276,43.225,145.689,43.225,80.548,0,145.693-19.369,145.693-43.225V433.977a13.21,13.21,0,0,0,.131-1.547c0-23.856-65.276,9.029-145.824,9.029-80.413,0-145.689,19.428-145.689,43.285V700.909" transform="translate(-288.831 -423.75)" fill="#d85144"/>
              </g>
              <rect id="Rectangle_1341" data-name="Rectangle 1341" width="89.316" height="358.583" transform="translate(1.317 626.287) rotate(-90)" fill="#e8942d"/>
              <g id="Group_3798" data-name="Group 3798" transform="translate(1227.269 492.261)">
                <path id="Path_32608" data-name="Path 32608" d="M977.64,760.133c0,49.247-134.56,89.169-300.546,89.169l0-44.575h0c83.008,0,150.3-19.966,150.3-44.594,0-24.586-67.059-44.524-149.872-44.592H677.1V670.963h.711C843.468,671.078,977.64,710.957,977.64,760.133Z" transform="translate(-376.551 -670.963)" fill="#4eaec5"/>
                <path id="Path_32609" data-name="Path 32609" d="M677.093,804.725" transform="translate(-376.553 -670.963)" fill="#030504"/>
                <path id="Path_32610" data-name="Path 32610" d="M587.925,760.133c0-49.247,134.557-89.17,300.543-89.17l0,44.576h0c-83.012,0-150.3,19.965-150.3,44.594" transform="translate(-587.925 -670.963)" fill="#e8942d"/>
              </g>
              <path id="Path_32611" data-name="Path 32611" d="M1192.969,805.082h402.585c83.025,0,150.431-20,150.431-44.632,0-24.675-67.406-44.631-150.431-44.631H446.066c-1.793-.019-3.58-.041-5.386-.041-83.025,0-150.637,20-150.637,44.672,0,24.635,67.612,44.632,150.637,44.632h752.289" transform="translate(-66.782 -178.702)" fill="#5a408b"/>
              <g id="Group_3799" data-name="Group 3799" transform="translate(219.206 214.767)">
                <path id="Path_32612" data-name="Path 32612" d="M703.963,490.951c0,53.837-147.1,97.48-328.558,97.48l0-48.73h0c90.747,0,164.311-21.826,164.311-48.75,0-26.878-73.311-48.674-163.843-48.749h-.472V393.469h.775C557.287,393.6,703.963,437.19,703.963,490.951Z" transform="translate(-83.639 -393.469)" fill="#4eaec5"/>
                <path id="Path_32613" data-name="Path 32613" d="M375.4,539.7" transform="translate(-83.641 -393.469)" fill="#030504"/>
                <path id="Path_32614" data-name="Path 32614" d="M288.84,490.951c0-53.838,110.306-97.482,291.766-97.482l0,48.731h0c-90.747,0-164.311,21.826-164.311,48.751" transform="translate(-288.84 -393.469)" fill="#d85144"/>
              </g>
              <path id="Path_32615" data-name="Path 32615" d="M667.474,615.834c185.869,0,336.54,44.7,336.54,99.849H835.779c0-27.578-75.351-49.935-168.305-49.935-92.79,0-164.507,22.044-164.77,49.556l-.381.226-.772.294-170.617-.14v-.236C331.369,660.41,481.878,615.834,667.474,615.834Z" transform="translate(30.15 -178.702)" fill="#e8942d"/>
              <path id="Path_32616" data-name="Path 32616" d="M381.324,710.974c0-27.64,75.634-50.078,168.794-50.078s168.949,22.438,168.949,50.078c0,27.688-75.789,50.081-168.949,50.081S381.324,738.662,381.324,710.974Z" transform="translate(149.599 -178.702)" fill="#4eaec5"/>
              <path id="Path_32617" data-name="Path 32617" d="M382.1,715.822a15.68,15.68,0,0,1-.779-4.848c0-27.64,75.634-50.078,168.794-50.078s168.949,22.438,168.949,50.078a15.584,15.584,0,0,1-.782,4.847" transform="translate(149.599 -178.702)" fill="#fff" opacity="0.45"/>
              <path id="Path_32618" data-name="Path 32618" d="M897,530.069H405.093c25-5.759,67.208-17.633,66.068-39.118-1.217-22.926-47.092-34.938-66.833-39.447H897" transform="translate(204.129 -178.702)" fill="#fff" opacity="0.45"/>
              <g id="Group_3804" data-name="Group 3804" transform="translate(487.457)">
                <g id="Group_3800" data-name="Group 3800" transform="translate(524.626 97.407)">
                  <path id="Path_32619" data-name="Path 32619" d="M815.591,413.969V319.335c0-23.857-65.273-43.226-145.689-43.226-80.548,0-145.689,19.369-145.689,43.226V628.587a13.247,13.247,0,0,0-.131,1.548c0,23.856,65.273,43.284,145.821,43.284,80.417,0,145.689-19.428,145.689-43.284V413.969" transform="translate(-524.081 -276.109)" fill="#4eaec5"/>
                </g>
                <path id="Path_32620" data-name="Path 32620" d="M470.8,234.172H681.98l107.173,33.79L797.478,280l-326.723,3.7-18.729-17.288Z" transform="translate(-170.262 -178.702)" fill="#4eaec5"/>
                <path id="Path_32621" data-name="Path 32621" d="M695.471,287.983c0-59.5,162.568-107.73,363.106-107.73l0,53.854h0c-100.289,0-181.589,24.121-181.589,53.876,0,29.7,81.02,53.792,181.069,53.875h.522v53.856h-.859C857.571,395.576,695.471,347.4,695.471,287.983Z" transform="translate(406.823 -178.702)" fill="#d85144"/>
                <path id="Path_32622" data-name="Path 32622" d="M803.158,341.858c100.289,0,181.588-24.121,181.588-53.876S903.447,234.1,803.158,234.1V180.253c200.537,0,363.1,48.232,363.1,107.73" transform="translate(662.094 -178.702)" fill="#4eaec5"/>
                <path id="Path_32623" data-name="Path 32623" d="M848.309,228.782c0,27.64-75.634,50.078-168.794,50.078s-168.949-22.438-168.949-50.078c0-27.687,75.789-50.08,168.949-50.08S848.309,201.1,848.309,228.782Z" transform="translate(-31.492 -178.702)" fill="#e8942d"/>
                <g id="Group_3801" data-name="Group 3801" transform="translate(1317.665 66.032)">
                  <path id="Path_32624" data-name="Path 32624" d="M1050.883,382.593V287.959c0-23.857-65.276-43.225-145.689-43.225-80.548,0-145.693,19.368-145.693,43.225V649.525a13.22,13.22,0,0,0-.132,1.547c0,23.857,65.276-9.028,145.824-9.028,80.413,0,145.689-19.429,145.689-43.285V382.593" transform="translate(-759.37 -244.734)" fill="#d85144"/>
                </g>
                <rect id="Rectangle_1342" data-name="Rectangle 1342" width="89.316" height="358.583" transform="translate(1827.038 99.784) rotate(90)" fill="#e8942d"/>
                <g id="Group_3802" data-name="Group 3802" transform="translate(0 55.47)">
                  <path id="Path_32625" data-name="Path 32625" d="M368.428,323.341c0-49.246,134.557-89.169,300.543-89.169l0,44.576h0c-83.012,0-150.3,19.965-150.3,44.593,0,24.586,67.059,44.524,149.872,44.593h.432v44.577h-.711C502.6,412.4,368.428,372.518,368.428,323.341Z" transform="translate(-368.428 -234.172)" fill="#4eaec5"/>
                  <path id="Path_32626" data-name="Path 32626" d="M457.6,276.467" transform="translate(-157.052 -234.172)" fill="#030504"/>
                  <path id="Path_32627" data-name="Path 32627" d="M758.14,323.341c0,49.247-134.557,89.17-300.543,89.17l0-44.575h0c83.012,0,150.3-19.966,150.3-44.6" transform="translate(-157.054 -234.172)" fill="#e8942d"/>
                </g>
                <path id="Path_32628" data-name="Path 32628" d="M965.7,278.392H563.109c-83.025,0-150.428,20-150.428,44.632,0,24.675,67.4,44.632,150.428,44.632H1712.6c1.79.018,3.576.04,5.383.04,83.025,0,150.637-20,150.637-44.672,0-24.635-67.612-44.632-150.637-44.632H965.7" transform="translate(-263.527 -178.702)" fill="#5a408b"/>
                <g id="Group_3803" data-name="Group 3803" transform="translate(988.823 316.369)">
                  <path id="Path_32629" data-name="Path 32629" d="M661.8,592.552c0-53.837,147.1-97.481,328.558-97.481l0,48.73h0c-90.75,0-164.314,21.827-164.314,48.751,0,26.877,73.311,48.673,163.843,48.749h.472v48.732h-.775C808.482,689.908,661.8,646.312,661.8,592.552Z" transform="translate(-661.805 -495.071)" fill="#4eaec5"/>
                  <path id="Path_32630" data-name="Path 32630" d="M759.287,543.8" transform="translate(-430.725 -495.071)" fill="#030504"/>
                  <path id="Path_32631" data-name="Path 32631" d="M1051.052,592.552c0,53.837-110.306,97.481-291.766,97.481l0-48.73h0c90.747,0,164.311-21.827,164.311-48.751" transform="translate(-430.727 -495.071)" fill="#d85144"/>
                </g>
                <path id="Path_32632" data-name="Path 32632" d="M940.6,467.641c-185.866,0-336.54-44.7-336.54-99.849H772.293c0,27.578,75.351,49.935,168.305,49.935,92.789,0,164.753-22.556,165.016-50.069l3.283.133h168.241v.237C1276.707,423.064,1126.2,467.641,940.6,467.641Z" transform="translate(190.132 -178.702)" fill="#e8942d"/>
                <path id="Path_32633" data-name="Path 32633" d="M990.9,372.5c0,27.64-75.634,50.078-168.794,50.078S653.161,400.14,653.161,372.5c0-27.688,75.789-50.08,168.949-50.08S990.9,344.812,990.9,372.5Z" transform="translate(306.528 -178.702)" fill="#4eaec5"/>
              </g>
              <path id="Path_32634" data-name="Path 32634" d="M490.887,539.757c-90.642,0-164.234-21.788-164.234-48.727,0-26.894,73.591-48.725,164.234-48.725" transform="translate(20.002 -178.702)" fill="#fff" opacity="0.45"/>
              <path id="Path_32635" data-name="Path 32635" d="M563.271,367.843c-83.2,0-150.752-20-150.752-44.727,0-24.685,67.548-44.724,150.752-44.724" transform="translate(223.546 -178.702)" fill="#fff" opacity="0.45"/>
            </g>
            <path id="Path_32636" data-name="Path 32636" d="M653.417,367.658c8.285-25.355,80.272-45.2,168.046-45.2,87.629,0,159.748,19.849,168.039,45.206" transform="translate(794.592 -178.702)" fill="#fff" opacity="0.45"/>
          </g>
          <path id="Path_32637" data-name="Path 32637" d="M898.829,500.924c0,23.6-64.569,42.752-144.1,42.752S610.5,524.521,610.5,500.924c0-23.637,64.7-42.753,144.23-42.753S898.829,477.287,898.829,500.924Z" transform="translate(692.86 -178.702)" fill="#fff" opacity="0.45"/>
        </g>
      </g>
    </g>
  </g>
</svg>
