<svg id="Layer_1" data-name="Layer 1" xmlns="http://www.w3.org/2000/svg" viewBox="0 0 161.99 96.08">
  <g>
    <g>
      <g>
        <path d="M137.92,34.61l-2.47,1.54a1,1,0,0,1-1,0l-2.33-1.44c-.29-.18-.32-.46-.07-.61l2.47-1.54a1,1,0,0,1,1,.05L137.85,34C138.14,34.18,138.17,34.46,137.92,34.61Z" transform="translate(0 0)" style="fill: #150035"/>
        <path d="M138,42.15l-2.47,1.54a1.05,1.05,0,0,1-1,0l-2.32-1.44c-.29-.19-.33-.46-.07-.62l2.46-1.53a1,1,0,0,1,1,0l2.33,1.45C138.17,41.72,138.2,42,138,42.15Z" transform="translate(0 0)" style="fill: #150035"/>
        <path d="M144,38.39l-2.47,1.53a1,1,0,0,1-1,0l-2.32-1.45c-.3-.18-.33-.45-.08-.61l2.47-1.53a1,1,0,0,1,1,0l2.32,1.45C144.22,38,144.25,38.23,144,38.39Z" transform="translate(0 0)" style="fill: #150035"/>
        <path d="M143.69,45.72l-2.47,1.53a1,1,0,0,1-1,0l-2.32-1.45c-.29-.18-.32-.45-.07-.61l2.46-1.53a1,1,0,0,1,1,0l2.33,1.45C143.91,45.29,143.94,45.56,143.69,45.72Z" transform="translate(0 0)" style="fill: #150035"/>
        <path d="M149.73,42l-2.46,1.54a1.05,1.05,0,0,1-1,0L144,42c-.29-.18-.32-.45-.07-.61l2.47-1.53a1,1,0,0,1,1,0l2.33,1.45C150,41.53,150,41.81,149.73,42Z" transform="translate(0 0)" style="fill: #150035"/>
        <path d="M155.78,38.2l-2.46,1.53a1,1,0,0,1-1,0L150,38.24c-.29-.18-.32-.45-.07-.61l2.47-1.53a1,1,0,0,1,1,0l2.32,1.45C156,37.77,156,38,155.78,38.2Z" transform="translate(0 0)" style="fill: #150035"/>
        <path d="M161.83,34.44,159.36,36a1,1,0,0,1-1,0l-2.33-1.45c-.29-.18-.32-.45-.07-.61l2.47-1.53a1,1,0,0,1,1,0l2.33,1.45C162.05,34,162.08,34.28,161.83,34.44Z" transform="translate(0 0)" style="fill: #150035"/>
        <path d="M155.48,45.53,153,47.06a1,1,0,0,1-1,0l-2.32-1.45c-.29-.18-.33-.45-.07-.61l2.46-1.53a1,1,0,0,1,1,0l2.33,1.45C155.7,45.1,155.73,45.37,155.48,45.53Z" transform="translate(0 0)" style="fill: #150035"/>
        <path d="M161.52,41.77l-2.46,1.53a1,1,0,0,1-1,0l-2.33-1.45c-.29-.18-.32-.45-.07-.61l2.47-1.53a1,1,0,0,1,1,0l2.32,1.44C161.74,41.34,161.77,41.61,161.52,41.77Z" transform="translate(0 0)" style="fill: #150035"/>
      </g>
      <g>
        <g>
          <path d="M157,14.67,148.6,9.38a.8.8,0,0,0-.92,0L137.5,16.17a.45.45,0,0,0-.13.6l9.82,11.34a.46.46,0,0,1,.06.23V32c0,1.07,4-2,4.73-1.55h0a.4.4,0,0,1,.14.15l-5,3.37a.41.41,0,0,0,.53.17l0,0,10.21-6.85a2.24,2.24,0,0,0,.44-1.15V17.44A3.55,3.55,0,0,0,157,14.67Z" transform="translate(0 0)" style="fill: #fff"/>
          <path d="M147.46,35.57a1.51,1.51,0,0,1-.42,0,1.8,1.8,0,0,1-1.15-.88l-.61-1.12L146,33,146,33l-.09-1V28.7l-9.71-11.26a1.85,1.85,0,0,1,.58-2.42l10.18-6.83a2.14,2.14,0,0,1,2.43,0l8.38,5.29a4.89,4.89,0,0,1,2,4v8.67a3.65,3.65,0,0,1-.73,2l-.33.31-10.22,6.85A1.72,1.72,0,0,1,147.46,35.57Zm-8.28-18.84,9.23,10.7a1.88,1.88,0,0,1,.23.9v1.91l.22-.12c1.54-.82,2.69-1.43,3.68-.95l4.32-2.9a.64.64,0,0,0,.08-.19V17.44a2.28,2.28,0,0,0-.69-1.59h0l-8.11-5.12Z" transform="translate(0 0)" style="fill: #150035"/>
        </g>
        <g>
          <path d="M140,26.51l-.08.73L147,33.71a.65.65,0,0,0,.88.28l.06,0,10-6.7a2.33,2.33,0,0,0,.44-1.16V18a.27.27,0,0,0-.26-.3.29.29,0,0,0-.16,0L147.9,24.49a.36.36,0,0,0-.1.11Z" transform="translate(0 0)" style="fill: #150035"/>
          <path d="M147.62,35.46a2,2,0,0,1-.48-.06,2,2,0,0,1-1.17-.78l-7.52-6.82.24-2.4,8.44-2.07,10.07-6.76a1.67,1.67,0,0,1,1.7-.09,1.71,1.71,0,0,1,.89,1.5v8.13a3.62,3.62,0,0,1-.73,2l-.33.31-10,6.7A2.11,2.11,0,0,1,147.62,35.46Zm-5.45-8,5.55,5,9.22-6.18a1.07,1.07,0,0,0,.07-.19v-6l-8.11,5.44-.16.31Z" transform="translate(0 0)" style="fill: #150035"/>
        </g>
        <g>
          <path d="M146.42,34.3,138,29a3.57,3.57,0,0,1-1.35-2.78V17.57c0-1.07.6-1.56,1.35-1.1l8.38,5.28a3.6,3.6,0,0,1,1.35,2.78V33.2C147.77,34.27,147.16,34.76,146.42,34.3Z" transform="translate(0 0)" style="fill: #ffb000"/>
          <path d="M147,35.86a2.4,2.4,0,0,1-1.28-.38h0l-8.38-5.29a4.86,4.86,0,0,1-2-4V17.57a2.6,2.6,0,0,1,1.21-2.4,2.18,2.18,0,0,1,2.27.12l8.38,5.29a4.87,4.87,0,0,1,2,4V33.2A2.62,2.62,0,0,1,148,35.61,1.92,1.92,0,0,1,147,35.86Zm-8.88-17.72v8.09a2.28,2.28,0,0,0,.69,1.6l7.6,4.8V24.54a2.3,2.3,0,0,0-.69-1.6Z" transform="translate(0 0)" style="fill: #150035"/>
        </g>
        <rect x="147.8" y="25.09" width="10.69" height="2.14" transform="translate(10.46 87.64) rotate(-33.01)" style="fill: #ffb000"/>
      </g>
    </g>
    <g>
      <g>
        <path d="M25.72,60.3l-2.66,1.54A1.17,1.17,0,0,1,22,61.79l-2.5-1.44c-.31-.18-.35-.46-.07-.62l2.65-1.53a1.2,1.2,0,0,1,1.06,0l2.5,1.45C26,59.87,26,60.15,25.72,60.3Z" transform="translate(0 0)" style="fill: #150035"/>
        <path d="M25.39,67.63l-2.66,1.54a1.2,1.2,0,0,1-1.06,0l-2.5-1.44c-.32-.19-.35-.46-.08-.62l2.66-1.53a1.17,1.17,0,0,1,1.06,0L25.31,67C25.63,67.2,25.66,67.47,25.39,67.63Z" transform="translate(0 0)" style="fill: #150035"/>
        <path d="M31.9,63.87l-2.65,1.54a1.22,1.22,0,0,1-1.07,0l-2.5-1.44c-.31-.19-.35-.46-.07-.62l2.65-1.53a1.19,1.19,0,0,1,1.07,0l2.5,1.45C32.14,63.44,32.17,63.71,31.9,63.87Z" transform="translate(0 0)" style="fill: #150035"/>
        <path d="M31.57,71.2l-2.65,1.53a1.19,1.19,0,0,1-1.07,0l-2.5-1.45c-.31-.18-.35-.45-.07-.61l2.65-1.53a1.17,1.17,0,0,1,1.06,0l2.5,1.45C31.81,70.77,31.84,71,31.57,71.2Z" transform="translate(0 0)" style="fill: #150035"/>
        <path d="M38.08,67.44,35.43,69a1.17,1.17,0,0,1-1.06,0l-2.5-1.44c-.32-.19-.35-.46-.08-.62l2.66-1.53a1.2,1.2,0,0,1,1.06,0L38,66.83C38.32,67,38.36,67.28,38.08,67.44Z" transform="translate(0 0)" style="fill: #150035"/>
        <path d="M38.12,75l-2.66,1.53a1.17,1.17,0,0,1-1.06,0L31.9,75c-.32-.18-.35-.45-.08-.61l2.66-1.53a1.17,1.17,0,0,1,1.06,0L38,74.37C38.35,74.55,38.38,74.82,38.12,75Z" transform="translate(0 0)" style="fill: #150035"/>
        <path d="M44.62,71.22,42,72.75a1.17,1.17,0,0,1-1.06,0l-2.5-1.45c-.32-.18-.35-.45-.08-.61L41,69.11a1.2,1.2,0,0,1,1.06,0l2.5,1.44C44.86,70.79,44.9,71.06,44.62,71.22Z" transform="translate(0 0)" style="fill: #150035"/>
        <path d="M44.3,78.55l-2.66,1.53a1.17,1.17,0,0,1-1.06,0l-2.5-1.45c-.32-.18-.35-.45-.08-.61l2.66-1.54a1.2,1.2,0,0,1,1.06,0l2.5,1.44C44.53,78.12,44.57,78.39,44.3,78.55Z" transform="translate(0 0)" style="fill: #150035"/>
        <path d="M6.82,49.39,4.16,50.92a1.17,1.17,0,0,1-1.06,0L.6,49.43c-.32-.18-.35-.45-.08-.61l2.66-1.54a1.2,1.2,0,0,1,1.06,0l2.5,1.44C7.05,49,7.09,49.23,6.82,49.39Z" transform="translate(0 0)" style="fill: #150035"/>
        <path d="M6.48,56.72,3.83,58.25a1.19,1.19,0,0,1-1.07,0L.26,56.76c-.31-.18-.34-.46-.07-.61l2.66-1.54a1.2,1.2,0,0,1,1.06,0l2.5,1.44C6.72,56.28,6.76,56.56,6.48,56.72Z" transform="translate(0 0)" style="fill: #150035"/>
        <path d="M13,53l-2.66,1.53a1.17,1.17,0,0,1-1.06,0L6.78,53c-.31-.18-.35-.45-.08-.61l2.66-1.54a1.2,1.2,0,0,1,1.06,0l2.5,1.44C13.23,52.52,13.27,52.8,13,53Z" transform="translate(0 0)" style="fill: #150035"/>
        <path d="M12.67,60.29,10,61.82a1.2,1.2,0,0,1-1.06,0l-2.5-1.45c-.32-.18-.35-.46-.08-.61L9,58.18a1.17,1.17,0,0,1,1.06,0l2.5,1.44C12.9,59.85,12.94,60.13,12.67,60.29Z" transform="translate(0 0)" style="fill: #150035"/>
        <path d="M19.18,56.52l-2.66,1.54A1.17,1.17,0,0,1,15.46,58L13,56.57c-.32-.19-.35-.46-.08-.62l2.66-1.53a1.17,1.17,0,0,1,1.06,0l2.5,1.45C19.42,56.09,19.45,56.37,19.18,56.52Z" transform="translate(0 0)" style="fill: #150035"/>
        <path d="M19.21,64.06,16.55,65.6a1.17,1.17,0,0,1-1.06,0L13,64.11c-.32-.18-.35-.46-.08-.62L15.57,62a1.17,1.17,0,0,1,1.06,0l2.5,1.45C19.45,63.63,19.48,63.91,19.21,64.06Z" transform="translate(0 0)" style="fill: #150035"/>
        <path d="M50.81,74.79l-2.66,1.53a1.17,1.17,0,0,1-1.06,0l-2.5-1.45c-.32-.18-.35-.46-.08-.61l2.66-1.54a1.2,1.2,0,0,1,1.06,0l2.5,1.44C51,74.35,51.08,74.63,50.81,74.79Z" transform="translate(0 0)" style="fill: #150035"/>
        <path d="M57.32,71l-2.66,1.53a1.17,1.17,0,0,1-1.06,0l-2.5-1.45c-.31-.18-.35-.45-.07-.61l2.65-1.54a1.2,1.2,0,0,1,1.06,0l2.5,1.44C57.56,70.59,57.59,70.87,57.32,71Z" transform="translate(0 0)" style="fill: #150035"/>
        <path d="M63.83,67.26,61.18,68.8a1.17,1.17,0,0,1-1.06,0l-2.5-1.44c-.32-.18-.35-.46-.08-.61l2.65-1.54a1.19,1.19,0,0,1,1.07,0l2.5,1.44C64.07,66.83,64.11,67.11,63.83,67.26Z" transform="translate(0 0)" style="fill: #150035"/>
        <path d="M70.35,63.51,67.69,65a1.2,1.2,0,0,1-1.06,0l-2.5-1.45c-.32-.18-.35-.45-.08-.61l2.66-1.54a1.2,1.2,0,0,1,1.06.05l2.5,1.45C70.58,63.07,70.62,63.35,70.35,63.51Z" transform="translate(0 0)" style="fill: #150035"/>
        <path d="M76.86,59.75,74.2,61.28a1.2,1.2,0,0,1-1.06,0l-2.5-1.45c-.31-.18-.35-.45-.08-.61l2.66-1.54a1.17,1.17,0,0,1,1.06,0l2.5,1.44C77.1,59.31,77.13,59.59,76.86,59.75Z" transform="translate(0 0)" style="fill: #150035"/>
        <path d="M83.37,56l-2.65,1.54a1.17,1.17,0,0,1-1.06-.05L77.16,56c-.32-.18-.35-.46-.08-.62l2.66-1.53a1.2,1.2,0,0,1,1.06,0l2.5,1.45C83.61,55.55,83.65,55.83,83.37,56Z" transform="translate(0 0)" style="fill: #150035"/>
        <path d="M57,78.36l-2.66,1.53a1.2,1.2,0,0,1-1.06,0l-2.5-1.45c-.31-.18-.35-.46-.08-.61l2.66-1.54a1.17,1.17,0,0,1,1.06,0l2.5,1.44C57.22,77.92,57.26,78.2,57,78.36Z" transform="translate(0 0)" style="fill: #150035"/>
        <path d="M63.5,74.6l-2.65,1.53a1.22,1.22,0,0,1-1.07,0l-2.5-1.45c-.31-.18-.34-.46-.07-.61l2.65-1.54a1.19,1.19,0,0,1,1.07.05L63.43,74C63.74,74.16,63.78,74.44,63.5,74.6Z" transform="translate(0 0)" style="fill: #150035"/>
        <path d="M70,70.84l-2.66,1.53a1.2,1.2,0,0,1-1.06,0l-2.5-1.45c-.32-.18-.35-.46-.08-.61l2.66-1.54a1.17,1.17,0,0,1,1.06,0l2.5,1.44C70.25,70.4,70.29,70.68,70,70.84Z" transform="translate(0 0)" style="fill: #150035"/>
        <path d="M76.53,67.07l-2.66,1.54a1.17,1.17,0,0,1-1.06,0l-2.5-1.44c-.32-.18-.35-.46-.08-.61L72.89,65A1.17,1.17,0,0,1,74,65l2.5,1.44C76.77,66.64,76.8,66.92,76.53,67.07Z" transform="translate(0 0)" style="fill: #150035"/>
        <path d="M83,63.31l-2.66,1.53a1.17,1.17,0,0,1-1.06,0l-2.5-1.44c-.31-.19-.35-.46-.07-.62l2.65-1.53a1.17,1.17,0,0,1,1.06,0L83,62.7C83.28,62.88,83.31,63.16,83,63.31Z" transform="translate(0 0)" style="fill: #150035"/>
        <path d="M90.05,52.19l-2.66,1.53a1.17,1.17,0,0,1-1.06,0l-2.5-1.45c-.31-.18-.35-.45-.08-.61l2.66-1.53a1.17,1.17,0,0,1,1.06,0L90,51.58C90.29,51.76,90.32,52,90.05,52.19Z" transform="translate(0 0)" style="fill: #150035"/>
        <path d="M96.56,48.43,93.91,50a1.17,1.17,0,0,1-1.06,0l-2.5-1.45c-.32-.18-.35-.45-.08-.61l2.66-1.53a1.17,1.17,0,0,1,1.06,0l2.5,1.45C96.8,48,96.84,48.27,96.56,48.43Z" transform="translate(0 0)" style="fill: #150035"/>
        <path d="M89.72,59.52l-2.66,1.53A1.17,1.17,0,0,1,86,61l-2.5-1.45c-.32-.18-.35-.45-.08-.61l2.66-1.53a1.17,1.17,0,0,1,1.06,0l2.5,1.45C90,59.09,90,59.36,89.72,59.52Z" transform="translate(0 0)" style="fill: #150035"/>
        <path d="M96.23,55.76l-2.65,1.53a1.19,1.19,0,0,1-1.07,0L90,55.81c-.31-.19-.35-.46-.07-.62l2.65-1.53a1.17,1.17,0,0,1,1.06,0l2.5,1.45C96.47,55.33,96.5,55.6,96.23,55.76Z" transform="translate(0 0)" style="fill: #150035"/>
      </g>
      <g>
        <path d="M39,83.34l-2.66,1.53a1.2,1.2,0,0,1-1.06,0l-2.5-1.45c-.31-.18-.35-.46-.07-.61l2.65-1.54a1.17,1.17,0,0,1,1.06,0l2.5,1.44C39.24,82.9,39.27,83.18,39,83.34Z" transform="translate(0 0)" style="fill: #150035"/>
        <path d="M39,90.87l-2.66,1.54a1.2,1.2,0,0,1-1.06,0l-2.5-1.44c-.31-.19-.35-.46-.08-.62l2.66-1.53a1.17,1.17,0,0,1,1.06,0L39,90.26C39.27,90.44,39.3,90.71,39,90.87Z" transform="translate(0 0)" style="fill: #150035"/>
        <path d="M45.54,87.11l-2.65,1.53a1.17,1.17,0,0,1-1.06,0l-2.5-1.45c-.32-.18-.35-.45-.08-.61L41.91,85a1.17,1.17,0,0,1,1.06,0l2.5,1.45C45.78,86.68,45.82,87,45.54,87.11Z" transform="translate(0 0)" style="fill: #150035"/>
        <path d="M45.21,94.44,42.55,96a1.2,1.2,0,0,1-1.06,0L39,94.49c-.31-.19-.35-.46-.07-.62l2.65-1.53a1.17,1.17,0,0,1,1.06,0l2.5,1.45C45.45,94,45.48,94.28,45.21,94.44Z" transform="translate(0 0)" style="fill: #150035"/>
        <path d="M51.72,90.68l-2.65,1.54a1.2,1.2,0,0,1-1.06,0l-2.5-1.44c-.32-.19-.35-.46-.08-.62l2.66-1.53a1.17,1.17,0,0,1,1.06,0l2.5,1.45C52,90.25,52,90.52,51.72,90.68Z" transform="translate(0 0)" style="fill: #150035"/>
        <path d="M58.24,86.92l-2.66,1.53a1.17,1.17,0,0,1-1.06,0L52,87c-.32-.18-.35-.45-.08-.61l2.66-1.53a1.17,1.17,0,0,1,1.06,0l2.5,1.45C58.47,86.49,58.51,86.76,58.24,86.92Z" transform="translate(0 0)" style="fill: #150035"/>
        <path d="M64.75,83.16l-2.66,1.53a1.17,1.17,0,0,1-1.06,0l-2.5-1.45c-.31-.18-.35-.45-.07-.61l2.65-1.53a1.17,1.17,0,0,1,1.06,0l2.5,1.44C65,82.73,65,83,64.75,83.16Z" transform="translate(0 0)" style="fill: #150035"/>
        <path d="M57.91,94.25l-2.66,1.53a1.17,1.17,0,0,1-1.06,0l-2.5-1.45c-.32-.18-.35-.45-.08-.61l2.66-1.53a1.17,1.17,0,0,1,1.06,0l2.5,1.45C58.15,93.82,58.18,94.09,57.91,94.25Z" transform="translate(0 0)" style="fill: #150035"/>
        <path d="M64.42,90.49,61.76,92a1.17,1.17,0,0,1-1.06,0l-2.5-1.45c-.31-.18-.35-.45-.08-.61l2.66-1.53a1.17,1.17,0,0,1,1.06,0l2.5,1.45C64.66,90.06,64.69,90.33,64.42,90.49Z" transform="translate(0 0)" style="fill: #150035"/>
      </g>
      <g>
        <g>
          <path d="M43.64,65.18,3,41.55a1.53,1.53,0,0,1-.9-1.4h0v-.1l.11-12.51A.55.55,0,0,1,2.71,27l20.51-.17a.64.64,0,0,0,.27-.07l20-11.33a5.82,5.82,0,0,1,5.28-.24l20.43,12a.55.55,0,0,0,.28.07l20.42-.17a.55.55,0,0,1,.55.54h0l-.08,12.57a2.24,2.24,0,0,1-1.28,1.63L48.92,64.93A5.88,5.88,0,0,1,43.64,65.18Z" transform="translate(0 0)" style="fill: #ffb000"/>
          <path d="M45.93,67.09a6,6,0,0,1-3-.7h0L2.25,42.76a2.9,2.9,0,0,1-1.6-2.68L.77,27.54a1.94,1.94,0,0,1,1.92-1.92L23,25.45,42.84,14.23A7.17,7.17,0,0,1,49.5,14L69.74,25.9l20.19-.16h0a1.93,1.93,0,0,1,1.94,1.93v0L91.8,40.26a3.6,3.6,0,0,1-2,2.82L49.61,66.15A7.41,7.41,0,0,1,45.93,67.09ZM44.33,64a4.57,4.57,0,0,0,3.89-.23L88.44,40.66c.43-.25.57-.47.58-.53l.08-11.61-19.57.17a2.06,2.06,0,0,1-1-.25l-20.45-12a4.55,4.55,0,0,0-3.88.25L24.17,28a1.91,1.91,0,0,1-.94.25l-19.68.16L3.44,40.07c0,.12.06.19.2.27Z" transform="translate(0 0)" style="fill: #150035"/>
        </g>
        <g>
          <path d="M71.86,27.13s17.91,0,17.91,0a.7.7,0,0,1,.72.7h0l-.08,12.4a2.24,2.24,0,0,1-1.28,1.63l-40,22.92a.17.17,0,0,1-.23-.06.19.19,0,0,1,0-.08l.12-13v0h0C47.48,47.53,71.86,27.13,71.86,27.13Z" transform="translate(0 0)" style="fill: #150035"/>
          <path d="M49.17,66.4l-.86-.4a1.56,1.56,0,0,1-.78-1.35l.11-13c-.58-4.81,14.24-18,23.33-25.63l.42-.24c.28-.1.27-.1,18.39-.08h0a2.09,2.09,0,0,1,2.09,2.1h0l-.08,12.4a3.55,3.55,0,0,1-2,2.82Zm1.26-14.25-.1,10.37L88.44,40.66c.43-.25.57-.47.58-.53l.08-11.61H72.37c-10.79,9.07-22.17,20.23-22,22.7l.26.67Z" transform="translate(0 0)" style="fill: #150035"/>
        </g>
        <g>
          <path d="M89.62,25.54,48.93,1.91a5.88,5.88,0,0,0-5.28.24L3.44,25.22c-1.56.91-1.73,2.27-.37,3.05L43.76,51.9A5.89,5.89,0,0,0,49,51.66L89.25,28.59C90.81,27.68,91,26.32,89.62,25.54Z" transform="translate(0 0)" style="fill: #fff"/>
          <path d="M46,53.81a6.09,6.09,0,0,1-3-.71L2.37,29.47A2.94,2.94,0,0,1,.76,27a3.51,3.51,0,0,1,2-2.94L43,1A7.17,7.17,0,0,1,49.62.71L90.31,24.34a2.94,2.94,0,0,1,1.62,2.52,3.52,3.52,0,0,1-2,2.94L49.73,52.87A7.45,7.45,0,0,1,46,53.81ZM3.55,26.94l.21.12L44.45,50.69a4.57,4.57,0,0,0,3.89-.23L88.56,27.38a1.4,1.4,0,0,0,.57-.51h0l-.2-.12h0L48.23,3.12a4.55,4.55,0,0,0-3.88.24L4.13,26.42a1.46,1.46,0,0,0-.58.52Z" transform="translate(0 0)" style="fill: #150035"/>
        </g>
        <rect x="4.2" y="38.01" width="12.92" height="2.78" transform="translate(-29.05 48.87) rotate(-88.28)" style="fill: #150035"/>
        <rect x="73.38" y="40.23" width="11.27" height="2.14" transform="translate(36.56 119.7) rotate(-89.16)" style="fill: #ffb000"/>
        <path d="M45.51,39l-8.29-1.29,1-2.21a13.19,13.19,0,0,1-2.23-1,10.46,10.46,0,0,1-2.13-1.61l-3.72.57L27.6,27.91l4-.62a6.47,6.47,0,0,1,1.35-3.13l-3-1.71,6.6-3.81,2.63,1.52a22.27,22.27,0,0,1,6.68-1.06l1-2.1,8.29,1.29-1,2.21a14,14,0,0,1,2.23,1,10.84,10.84,0,0,1,2.13,1.61l3.72-.57,2.57,5.53-4,.62a6.35,6.35,0,0,1-1.36,3.13l3,1.71-6.6,3.81-2.63-1.51a22.92,22.92,0,0,1-6.68,1.06Zm-5.15-3,3.89.6.87-1.88h.7a20.68,20.68,0,0,0,7.1-1.1l.46-.16,2.41,1.38,2.31-1.33L55.94,32.3l1.06-1a4.58,4.58,0,0,0,1.66-3.49l0-1,3-.46-.69-1.49-3.22.5L57.29,25a8.71,8.71,0,0,0-2-1.63,14.61,14.61,0,0,0-3-1.23l-1.17-.36L52,20l-3.89-.6-.87,1.88h-.7a20.21,20.21,0,0,0-7.1,1.1L39,22.5l-2.41-1.39-2.31,1.34,2.16,1.24-1.06,1a4.61,4.61,0,0,0-1.67,3.49l0,1-3,.46.69,1.49,3.22-.5.39.42a8.71,8.71,0,0,0,2,1.63A14.11,14.11,0,0,0,40,33.85l1.17.37Zm5.81-3.71a8.33,8.33,0,0,1-5.58-1.89,3.18,3.18,0,0,1-.36-4.49,2.53,2.53,0,0,1,.36-.37c2.67-2.51,8.5-2.51,11.16,0a3.19,3.19,0,0,1,.37,4.49,3.23,3.23,0,0,1-.37.37,8.17,8.17,0,0,1-5.58,1.88Zm0-6.5a6.17,6.17,0,0,0-4.11,1.3,1.07,1.07,0,0,0,0,1.75c1.84,1.74,6.37,1.74,8.21,0h0a1.06,1.06,0,0,0,.26-1.49.92.92,0,0,0-.26-.26,6.18,6.18,0,0,0-4.1-1.3Z" transform="translate(0 0)" style="fill: #ffb000"/>
        <path d="M56,19.65a15.08,15.08,0,0,0-3.16-1.32l.92-2-6.08-.94-.92,2a21.59,21.59,0,0,0-7.48,1.15l-2.51-1.45-4.46,2.58,2.51,1.45a5.56,5.56,0,0,0-2,4.32L29.34,26,31,29.46l3.46-.54a9.66,9.66,0,0,0,2.29,1.83,15.08,15.08,0,0,0,3.16,1.32l-.92,2L45,35,46,33a21.63,21.63,0,0,0,7.48-1.15L56,33.33l4.46-2.58L57.9,29.3a5.56,5.56,0,0,0,2-4.32l3.43-.53L61.7,20.94l-3.46.54A9.86,9.86,0,0,0,56,19.65Zm-4.77,7.21c-2.25,2.11-7.44,2.11-9.69,0a2.14,2.14,0,0,1-.32-3,1.94,1.94,0,0,1,.32-.32c2.25-2.12,7.44-2.12,9.69,0a2.12,2.12,0,0,1,.32,3,2.5,2.5,0,0,1-.32.33Z" transform="translate(0 0)" style="fill: #150035"/>
        <g>
          <g>
            <path d="M59.08,63.7l-9-5.29a.91.91,0,0,0-1,0l-11,6.84a.44.44,0,0,0-.15.59L48.55,77.15a.4.4,0,0,1,.06.22V81c0,1.07,4.29-2,5.09-1.55h0a.57.57,0,0,1,.16.15L48.46,83a.44.44,0,0,0,.6.15h0l11-6.86a2.14,2.14,0,0,0,.48-1.15V66.47A3.48,3.48,0,0,0,59.08,63.7Z" transform="translate(0 0)" style="fill: #fff"/>
            <path d="M48.82,84.6a1.51,1.51,0,0,1-.42,0,1.77,1.77,0,0,1-1.14-.84l-.7-1.17.81-.51-.07,0-.09-1V77.76L36.77,66.52a1.83,1.83,0,0,1,.6-2.5l11-6.83a2.28,2.28,0,0,1,2.41,0l9,5.3a4.87,4.87,0,0,1,2.14,4v8.67a3.48,3.48,0,0,1-.8,2l-.34.3-11,6.85A1.74,1.74,0,0,1,48.82,84.6Zm-9-18.83,9.91,10.67a1.88,1.88,0,0,1,.25.93v2l.43-.21c1.66-.83,2.88-1.43,3.89-.91l4.75-3a.6.6,0,0,0,.08-.16V66.47a2.19,2.19,0,0,0-.76-1.57h0l-8.84-5.18Z" transform="translate(0 0)" style="fill: #150035"/>
          </g>
          <g>
            <path d="M40.77,75.55s0,.27-.07.72l7.68,6.47a.72.72,0,0,0,1,.25h0l10.74-6.7a2.31,2.31,0,0,0,.48-1.15V67a.31.31,0,0,0-.31-.3.3.3,0,0,0-.15.05L49.3,73.52a.47.47,0,0,0-.1.1Z" transform="translate(0 0)" style="fill: #150035"/>
            <path d="M49,84.49a2.22,2.22,0,0,1-.51-.06,2.06,2.06,0,0,1-1.15-.74l-8.12-6.83.26-2.45,9.08-2.07,10.86-6.76a1.68,1.68,0,0,1,2.32.54A1.65,1.65,0,0,1,62,67v8.13a3.48,3.48,0,0,1-.8,2l-.34.3-10.74,6.7A2.11,2.11,0,0,1,49,84.49Zm-5.94-8,6,5.08,10-6.27a1.19,1.19,0,0,0,.08-.16V69l-9,5.59-.17.28Z" transform="translate(0 0)" style="fill: #150035"/>
          </g>
          <g>
            <path d="M47.71,83.33l-9-5.29a3.48,3.48,0,0,1-1.46-2.77V66.6c0-1.07.65-1.56,1.46-1.1l9,5.29a3.44,3.44,0,0,1,1.45,2.78v8.66C49.16,83.3,48.51,83.79,47.71,83.33Z" transform="translate(0 0)" style="fill: #ffb000"/>
            <path d="M48.29,84.9A2.64,2.64,0,0,1,47,84.53h0l-9-5.29a4.89,4.89,0,0,1-2.14-4V66.6A2.62,2.62,0,0,1,37,64.22a2.26,2.26,0,0,1,2.34.08l9,5.28a4.86,4.86,0,0,1,2.14,4v8.67a2.6,2.6,0,0,1-1.2,2.38A2.19,2.19,0,0,1,48.29,84.9Zm.12-2.77-.7,1.2.71-1.2Zm-9.77-15v8.18a2.14,2.14,0,0,0,.75,1.57l8.37,4.9,0-8.18A2.19,2.19,0,0,0,47,72Z" transform="translate(0 0)" style="fill: #150035"/>
          </g>
          <rect x="49.32" y="74.12" width="11.27" height="2.14" transform="translate(-30.91 39.12) rotate(-31.05)" style="fill: #ffb000"/>
        </g>
      </g>
    </g>
  </g>
</svg>
