<svg id="Layer_1" data-name="Layer 1" xmlns="http://www.w3.org/2000/svg" viewBox="0 0 561.99 39">
  <g>
    <g>
      <path d="M7.64,39a7.65,7.65,0,1,1,7.65-7.64A7.65,7.65,0,0,1,7.64,39Zm0-12.41a4.77,4.77,0,1,0,4.77,4.77A4.77,4.77,0,0,0,7.64,26.59Z" transform="translate(0 0.01)" style="fill: #150035"/>
      <path d="M31.26,15.29A7.65,7.65,0,1,1,38.9,7.64,7.67,7.67,0,0,1,31.26,15.29Zm0-12.41A4.77,4.77,0,1,0,36,7.65,4.77,4.77,0,0,0,31.26,2.88Z" transform="translate(0 0.01)" style="fill: #150035"/>
      <path d="M78.85,39a7.65,7.65,0,1,1,7.64-7.64A7.65,7.65,0,0,1,78.85,39Zm0-12.41a4.77,4.77,0,1,0,4.76,4.77A4.77,4.77,0,0,0,78.85,26.59Z" transform="translate(0 0.01)" style="fill: #150035"/>
      <path d="M83.54,39H74.16a3,3,0,0,1-3-3V26.67a3,3,0,0,1,3-3h9.38a3,3,0,0,1,2.95,3V36A3,3,0,0,1,83.54,39ZM74.16,26.59,74.09,36l9.45.08a.08.08,0,0,0,.08-.08V26.67Z" transform="translate(0 0.01)" style="fill: #150035"/>
      <path d="M150.92,15.29a7.65,7.65,0,1,1,7.64-7.65A7.67,7.67,0,0,1,150.92,15.29Zm0-12.41a4.77,4.77,0,1,0,4.76,4.76A4.77,4.77,0,0,0,150.92,2.88Z" transform="translate(0 0.01)" style="fill: #ffb000"/>
      <path d="M155.6,15.29h-9.37a3,3,0,0,1-3-3V3a3,3,0,0,1,3-3h9.37a3,3,0,0,1,3,3v9.37A3,3,0,0,1,155.6,15.29ZM146.23,2.88l-.08,9.45,9.45.08a.09.09,0,0,0,.08-.08V3Z" transform="translate(0 0.01)" style="fill: #ffb000"/>
      <path d="M78.85,15.29a7.65,7.65,0,1,1,7.64-7.65A7.65,7.65,0,0,1,78.85,15.29Zm0-12.41a4.77,4.77,0,1,0,4.76,4.76A4.76,4.76,0,0,0,78.85,2.88Z" transform="translate(0 0.01)" style="fill: #150035"/>
      <g>
        <rect x="53.8" y="1.45" width="2.88" height="12.41" style="fill: #150035"/>
        <rect x="49.03" y="6.21" width="12.41" height="2.88" style="fill: #150035"/>
      </g>
      <g>
        <rect x="29.82" y="25.16" width="2.88" height="12.41" style="fill: #150035"/>
        <rect x="25.06" y="29.92" width="12.41" height="2.88" style="fill: #150035"/>
      </g>
      <path d="M108,39H98.68a3,3,0,0,1-3-3V26.71a3,3,0,0,1,3-3H108a3,3,0,0,1,3,3V36A3,3,0,0,1,108,39ZM98.68,26.59,98.56,36l9.41.12a.12.12,0,0,0,.12-.12V26.71Z" transform="translate(0 0.01)" style="fill: #150035"/>
      <path d="M12.29,15.29H3a3,3,0,0,1-3-3V3A3,3,0,0,1,3,0h9.29a3,3,0,0,1,3,3v9.3A3,3,0,0,1,12.29,15.29ZM3,2.88l-.12,9.41,9.41.12a.13.13,0,0,0,.12-.12V3Z" transform="translate(0 0.01)" style="fill: #150035"/>
      <path d="M155.6,39h-9.37a3,3,0,0,1-3-3V26.67a3,3,0,0,1,3-3h9.37a3,3,0,0,1,3,3V36A3,3,0,0,1,155.6,39Zm-9.37-12.41L146.15,36l9.45.08a.08.08,0,0,0,.08-.08V26.67Z" transform="translate(0 0.01)" style="fill: #ffb000"/>
      <path d="M174.53,15.29a7.65,7.65,0,1,1,7.64-7.65A7.65,7.65,0,0,1,174.53,15.29Zm0-12.41a4.77,4.77,0,1,0,4.76,4.76A4.76,4.76,0,0,0,174.53,2.88Z" transform="translate(0 0.01)" style="fill: #ffb000"/>
      <g>
        <rect x="101.89" y="1.45" width="2.88" height="12.41" style="fill: #150035"/>
        <rect x="97.13" y="6.21" width="12.41" height="2.88" style="fill: #150035"/>
      </g>
      <g>
        <rect x="125.5" y="25.16" width="2.88" height="12.41" style="fill: #ffb000"/>
        <rect x="120.74" y="29.92" width="12.41" height="2.88" style="fill: #ffb000"/>
      </g>
      <g>
        <rect x="173.09" y="25.16" width="2.88" height="12.41" style="fill: #ffb000"/>
        <rect x="168.33" y="29.92" width="12.41" height="2.88" style="fill: #ffb000"/>
      </g>
    </g>
    <g>
      <path d="M197.55,39a7.65,7.65,0,1,1,7.64-7.64A7.65,7.65,0,0,1,197.55,39Zm0-12.41a4.77,4.77,0,1,0,4.76,4.77A4.77,4.77,0,0,0,197.55,26.59Z" transform="translate(0 0.01)" style="fill: #ffb000"/>
      <path d="M221.17,15.29a7.65,7.65,0,1,1,7.64-7.65A7.67,7.67,0,0,1,221.17,15.29Zm0-12.41a4.77,4.77,0,1,0,4.76,4.76A4.77,4.77,0,0,0,221.17,2.88Z" transform="translate(0 0.01)" style="fill: #ffb000"/>
      <path d="M268.76,39a7.65,7.65,0,1,1,7.64-7.64A7.66,7.66,0,0,1,268.76,39Zm0-12.41a4.77,4.77,0,1,0,4.76,4.77A4.79,4.79,0,0,0,268.76,26.59Z" transform="translate(0 0.01)" style="fill: #ffb000"/>
      <path d="M273.44,39h-9.37a3,3,0,0,1-3-3V26.67a3,3,0,0,1,3-3h9.37a3,3,0,0,1,3,3V36A3,3,0,0,1,273.44,39Zm-9.37-12.41L264,36l9.46.08a.07.07,0,0,0,.07-.08V26.67Z" transform="translate(0 0.01)" style="fill: #ffb000"/>
      <path d="M340.82,15.29a7.65,7.65,0,1,1,7.64-7.64A7.65,7.65,0,0,1,340.82,15.29Zm0-12.41a4.77,4.77,0,1,0,4.77,4.77A4.77,4.77,0,0,0,340.82,2.88Z" transform="translate(0 0.01)" style="fill: #ffb000"/>
      <path d="M345.51,15.29h-9.37a3,3,0,0,1-3-3V3a3,3,0,0,1,3-3h9.37a3,3,0,0,1,3,3v9.37A3,3,0,0,1,345.51,15.29ZM336.14,2.88l-.08,9.45,9.45.08a.09.09,0,0,0,.08-.08V3Z" transform="translate(0 0.01)" style="fill: #ffb000"/>
      <path d="M202.24,15.29h-9.37a3,3,0,0,1-3-3V3a3,3,0,0,1,3-3h9.37a3,3,0,0,1,2.95,3v9.37A3,3,0,0,1,202.24,15.29ZM192.87,2.88l-.08,9.45,9.45.08a.09.09,0,0,0,.08-.08V3Z" transform="translate(0 0.01)" style="fill: #ffb000"/>
      <path d="M268.76,15.29a7.65,7.65,0,1,1,7.64-7.64A7.66,7.66,0,0,1,268.76,15.29Zm0-12.41a4.77,4.77,0,1,0,4.76,4.76A4.77,4.77,0,0,0,268.76,2.88Z" transform="translate(0 0.01)" style="fill: #ffb000"/>
      <g>
        <rect x="243.7" y="1.45" width="2.88" height="12.41" style="fill: #ffb000"/>
        <rect x="238.94" y="6.21" width="12.41" height="2.88" style="fill: #ffb000"/>
      </g>
      <g>
        <rect x="219.73" y="25.16" width="2.88" height="12.41" style="fill: #ffb000"/>
        <rect x="214.97" y="29.92" width="12.41" height="2.88" style="fill: #ffb000"/>
      </g>
      <path d="M297.88,39h-9.29a3,3,0,0,1-3-3V26.71a3,3,0,0,1,3-3h9.29a3,3,0,0,1,3,3V36A3,3,0,0,1,297.88,39Zm-9.29-12.41L288.47,36l9.41.12A.12.12,0,0,0,298,36V26.71Z" transform="translate(0 0.01)" style="fill: #ffb000"/>
      <path d="M316.85,15.29a7.65,7.65,0,1,1,7.64-7.65A7.65,7.65,0,0,1,316.85,15.29Zm0-12.41a4.77,4.77,0,1,0,4.76,4.77A4.78,4.78,0,0,0,316.85,2.88Z" transform="translate(0 0.01)" style="fill: #ffb000"/>
      <path d="M345.51,39h-9.37a3,3,0,0,1-3-3V26.67a3,3,0,0,1,3-3h9.37a3,3,0,0,1,3,3V36A3,3,0,0,1,345.51,39Zm-9.37-12.41L336.06,36l9.45.08a.08.08,0,0,0,.08-.08V26.67Z" transform="translate(0 0.01)" style="fill: #ffb000"/>
      <path d="M364.44,15.29a7.65,7.65,0,1,1,7.64-7.65A7.65,7.65,0,0,1,364.44,15.29Zm0-12.41a4.77,4.77,0,1,0,4.76,4.76A4.76,4.76,0,0,0,364.44,2.88Z" transform="translate(0 0.01)" style="fill: #ffb000"/>
      <g>
        <rect x="291.8" y="1.45" width="2.88" height="12.41" style="fill: #ffb000"/>
        <rect x="287.03" y="6.21" width="12.41" height="2.88" style="fill: #ffb000"/>
      </g>
      <g>
        <rect x="315.41" y="25.16" width="2.88" height="12.41" style="fill: #ffb000"/>
        <rect x="310.65" y="29.92" width="12.41" height="2.88" style="fill: #ffb000"/>
      </g>
      <g>
        <rect x="363" y="25.16" width="2.88" height="12.41" style="fill: #ffb000"/>
        <rect x="358.24" y="29.92" width="12.41" height="2.88" style="fill: #ffb000"/>
      </g>
    </g>
    <g>
      <path d="M387.46,39a7.65,7.65,0,1,1,7.64-7.64A7.65,7.65,0,0,1,387.46,39Zm0-12.41a4.77,4.77,0,1,0,4.76,4.77A4.77,4.77,0,0,0,387.46,26.59Z" transform="translate(0 0.01)" style="fill: #ffb000"/>
      <path d="M458.67,39a7.65,7.65,0,1,1,7.64-7.64A7.66,7.66,0,0,1,458.67,39Zm0-12.41a4.77,4.77,0,1,0,4.76,4.77A4.78,4.78,0,0,0,458.67,26.59Z" transform="translate(0 0.01)" style="fill: #ffb000"/>
      <path d="M463.35,39H454a3,3,0,0,1-3-3V26.67a3,3,0,0,1,3-3h9.37a3,3,0,0,1,3,3V36A3,3,0,0,1,463.35,39ZM454,26.59,453.9,36l9.45.08a.07.07,0,0,0,.08-.08V26.67Z" transform="translate(0 0.01)" style="fill: #ffb000"/>
      <path d="M530.73,15.29a7.65,7.65,0,1,1,7.64-7.65A7.65,7.65,0,0,1,530.73,15.29Zm0-12.41a4.77,4.77,0,1,0,4.76,4.76A4.76,4.76,0,0,0,530.73,2.88Z" transform="translate(0 0.01)" style="fill: #ffb000"/>
      <path d="M535.42,15.29H526a3,3,0,0,1-2.95-3V3A3,3,0,0,1,526,0h9.38a3,3,0,0,1,3,3v9.37A3,3,0,0,1,535.42,15.29ZM526,2.88,526,12.33l9.45.08a.08.08,0,0,0,.07-.08h0V3Z" transform="translate(0 0.01)" style="fill: #ffb000"/>
      <path d="M458.67,15.29a7.65,7.65,0,1,1,7.64-7.65A7.67,7.67,0,0,1,458.67,15.29Zm0-12.41a4.77,4.77,0,1,0,4.76,4.76A4.77,4.77,0,0,0,458.67,2.88Z" transform="translate(0 0.01)" style="fill: #ffb000"/>
      <g>
        <rect x="433.61" y="1.45" width="2.88" height="12.41" style="fill: #ffb000"/>
        <rect x="428.85" y="6.21" width="12.41" height="2.88" style="fill: #ffb000"/>
      </g>
      <g>
        <rect x="409.64" y="25.16" width="2.88" height="12.41" style="fill: #ffb000"/>
        <rect x="404.87" y="29.92" width="12.41" height="2.88" style="fill: #ffb000"/>
      </g>
      <path d="M487.79,39H478.5a3,3,0,0,1-3-3V26.71a3,3,0,0,1,3-3h9.29a3,3,0,0,1,3,3V36A3,3,0,0,1,487.79,39ZM478.5,26.59,478.38,36l9.41.12a.13.13,0,0,0,.12-.12V26.71Z" transform="translate(0 0.01)" style="fill: #ffb000"/>
      <path d="M506.76,15.29a7.65,7.65,0,1,1,7.64-7.65A7.67,7.67,0,0,1,506.76,15.29Zm0-12.41a4.77,4.77,0,1,0,4.76,4.76A4.77,4.77,0,0,0,506.76,2.88Z" transform="translate(0 0.01)" style="fill: #ffb000"/>
      <path d="M554.35,15.29A7.65,7.65,0,1,1,562,7.64,7.67,7.67,0,0,1,554.35,15.29Zm0-12.41a4.77,4.77,0,1,0,4.76,4.76A4.77,4.77,0,0,0,554.35,2.88Z" transform="translate(0 0.01)" style="fill: #ffb000"/>
      <g>
        <rect x="481.7" y="1.45" width="2.88" height="12.41" style="fill: #ffb000"/>
        <rect x="476.94" y="6.21" width="12.41" height="2.88" style="fill: #ffb000"/>
      </g>
      <g>
        <rect x="505.32" y="25.16" width="2.88" height="12.41" style="fill: #ffb000"/>
        <rect x="500.56" y="29.92" width="12.41" height="2.88" style="fill: #ffb000"/>
      </g>
    </g>
  </g>
</svg>
