<svg id="Layer_1" data-name="Layer 1" xmlns="http://www.w3.org/2000/svg" xmlns:xlink="http://www.w3.org/1999/xlink" viewBox="0 0 561.99 39">
  <defs>
    <clipPath id="clip-path" transform="translate(-0.01 -8.99)">
      <rect width="265" height="57" style="fill: none"/>
    </clipPath>
  </defs>
  <g style="clip-path: url(#clip-path)">
    <g>
      <g>
        <path d="M7.65,48a7.65,7.65,0,1,1,7.65-7.64A7.65,7.65,0,0,1,7.65,48Zm0-12.41a4.77,4.77,0,1,0,4.77,4.77A4.77,4.77,0,0,0,7.65,35.59Z" transform="translate(-0.01 -8.99)" style="fill: #150035"/>
        <path d="M31.27,24.29a7.65,7.65,0,1,1,7.64-7.65A7.67,7.67,0,0,1,31.27,24.29Zm0-12.41A4.77,4.77,0,1,0,36,16.65,4.78,4.78,0,0,0,31.27,11.88Z" transform="translate(-0.01 -8.99)" style="fill: #150035"/>
        <path d="M78.86,48a7.65,7.65,0,1,1,7.64-7.64A7.66,7.66,0,0,1,78.86,48Zm0-12.41a4.77,4.77,0,1,0,4.76,4.77A4.79,4.79,0,0,0,78.86,35.59Z" transform="translate(-0.01 -8.99)" style="fill: #150035"/>
        <path d="M83.54,48H74.17a3,3,0,0,1-3-3V35.67a3,3,0,0,1,3-3h9.38a3,3,0,0,1,3,3V45A3,3,0,0,1,83.54,48ZM74.17,35.59,74.1,45l9.45.08a.07.07,0,0,0,.07-.08V35.67Z" transform="translate(-0.01 -8.99)" style="fill: #150035"/>
        <path d="M150.93,24.29a7.65,7.65,0,1,1,7.64-7.65A7.67,7.67,0,0,1,150.93,24.29Zm0-12.41a4.77,4.77,0,1,0,4.76,4.76A4.77,4.77,0,0,0,150.93,11.88Z" transform="translate(-0.01 -8.99)" style="fill: #ffb000"/>
        <path d="M155.61,24.29h-9.37a3,3,0,0,1-3-3V12a3,3,0,0,1,3-3h9.37a3,3,0,0,1,3,3v9.37A3,3,0,0,1,155.61,24.29Zm-9.37-12.41-.08,9.45,9.45.08a.09.09,0,0,0,.08-.08V12Z" transform="translate(-0.01 -8.99)" style="fill: #ffb000"/>
        <path d="M78.86,24.29a7.65,7.65,0,1,1,7.64-7.65A7.67,7.67,0,0,1,78.86,24.29Zm0-12.41a4.77,4.77,0,1,0,4.76,4.76A4.77,4.77,0,0,0,78.86,11.88Z" transform="translate(-0.01 -8.99)" style="fill: #150035"/>
        <g>
          <rect x="53.8" y="1.45" width="2.88" height="12.41" style="fill: #150035"/>
          <rect x="49.03" y="6.21" width="12.41" height="2.88" style="fill: #150035"/>
        </g>
        <g>
          <rect x="29.82" y="25.16" width="2.88" height="12.41" style="fill: #150035"/>
          <rect x="25.06" y="29.92" width="12.41" height="2.88" style="fill: #150035"/>
        </g>
        <path d="M108,48H98.69a3,3,0,0,1-3-3V35.71a3,3,0,0,1,3-3H108a3,3,0,0,1,3,3V45A3,3,0,0,1,108,48ZM98.69,35.59,98.57,45l9.41.12a.12.12,0,0,0,.12-.12V35.71Z" transform="translate(-0.01 -8.99)" style="fill: #150035"/>
        <path d="M12.3,24.29H3a3,3,0,0,1-3-3V12A3,3,0,0,1,3,9H12.3a3,3,0,0,1,3,3v9.3A3,3,0,0,1,12.3,24.29ZM3,11.88l-.12,9.41,9.41.12a.13.13,0,0,0,.12-.12V12Z" transform="translate(-0.01 -8.99)" style="fill: #150035"/>
        <path d="M155.61,48h-9.37a3,3,0,0,1-3-3V35.67a3,3,0,0,1,3-3h9.37a3,3,0,0,1,3,3V45A3,3,0,0,1,155.61,48Zm-9.37-12.41L146.16,45l9.45.08a.08.08,0,0,0,.08-.08V35.67Z" transform="translate(-0.01 -8.99)" style="fill: #ffb000"/>
        <path d="M174.54,24.29a7.65,7.65,0,1,1,7.64-7.65A7.65,7.65,0,0,1,174.54,24.29Zm0-12.41a4.77,4.77,0,1,0,4.76,4.76A4.77,4.77,0,0,0,174.54,11.88Z" transform="translate(-0.01 -8.99)" style="fill: #ffb000"/>
        <g>
          <rect x="101.89" y="1.45" width="2.88" height="12.41" style="fill: #150035"/>
          <rect x="97.13" y="6.21" width="12.41" height="2.88" style="fill: #150035"/>
        </g>
        <g>
          <rect x="125.5" y="25.16" width="2.88" height="12.41" style="fill: #ffb000"/>
          <rect x="120.74" y="29.92" width="12.41" height="2.88" style="fill: #ffb000"/>
        </g>
        <g>
          <rect x="173.09" y="25.16" width="2.88" height="12.41" style="fill: #ffb000"/>
          <rect x="168.33" y="29.92" width="12.41" height="2.88" style="fill: #ffb000"/>
        </g>
      </g>
      <g>
        <path d="M197.56,48a7.65,7.65,0,1,1,7.64-7.64A7.65,7.65,0,0,1,197.56,48Zm0-12.41a4.77,4.77,0,1,0,4.76,4.77A4.77,4.77,0,0,0,197.56,35.59Z" transform="translate(-0.01 -8.99)" style="fill: #ffb000"/>
        <path d="M221.18,24.29a7.65,7.65,0,1,1,7.64-7.65A7.67,7.67,0,0,1,221.18,24.29Zm0-12.41a4.77,4.77,0,1,0,4.76,4.76A4.77,4.77,0,0,0,221.18,11.88Z" transform="translate(-0.01 -8.99)" style="fill: #ffb000"/>
        <path d="M268.77,48a7.65,7.65,0,1,1,7.64-7.64A7.66,7.66,0,0,1,268.77,48Zm0-12.41a4.77,4.77,0,1,0,4.76,4.77A4.79,4.79,0,0,0,268.77,35.59Z" transform="translate(-0.01 -8.99)" style="fill: #ffb000"/>
        <path d="M273.45,48h-9.37a3,3,0,0,1-3-3V35.67a3,3,0,0,1,3-3h9.37a3,3,0,0,1,3,3V45A3,3,0,0,1,273.45,48Zm-9.37-12.41L264,45l9.45.08a.07.07,0,0,0,.08-.08V35.67Z" transform="translate(-0.01 -8.99)" style="fill: #ffb000"/>
        <path d="M340.83,24.29a7.65,7.65,0,1,1,7.64-7.64A7.65,7.65,0,0,1,340.83,24.29Zm0-12.41a4.77,4.77,0,1,0,4.77,4.77A4.77,4.77,0,0,0,340.83,11.88Z" transform="translate(-0.01 -8.99)" style="fill: #ffb000"/>
        <path d="M345.52,24.29h-9.37a3,3,0,0,1-3-3V12a3,3,0,0,1,3-3h9.37a3,3,0,0,1,3,3v9.37A3,3,0,0,1,345.52,24.29Zm-9.37-12.41-.08,9.45,9.45.08a.09.09,0,0,0,.08-.08V12Z" transform="translate(-0.01 -8.99)" style="fill: #ffb000"/>
        <path d="M202.25,24.29h-9.38a3,3,0,0,1-3-3V12a3,3,0,0,1,3-3h9.38a3,3,0,0,1,2.95,3v9.37A3,3,0,0,1,202.25,24.29Zm-9.38-12.41-.07,9.45,9.45.08a.08.08,0,0,0,.07-.08V12Z" transform="translate(-0.01 -8.99)" style="fill: #ffb000"/>
        <path d="M268.77,24.29a7.65,7.65,0,1,1,7.64-7.64A7.66,7.66,0,0,1,268.77,24.29Zm0-12.41a4.77,4.77,0,1,0,4.76,4.76A4.77,4.77,0,0,0,268.77,11.88Z" transform="translate(-0.01 -8.99)" style="fill: #ffb000"/>
        <g>
          <rect x="243.7" y="1.45" width="2.88" height="12.41" style="fill: #ffb000"/>
          <rect x="238.94" y="6.21" width="12.41" height="2.88" style="fill: #ffb000"/>
        </g>
        <g>
          <rect x="219.73" y="25.16" width="2.88" height="12.41" style="fill: #ffb000"/>
          <rect x="214.97" y="29.92" width="12.41" height="2.88" style="fill: #ffb000"/>
        </g>
        <path d="M297.89,48H288.6a3,3,0,0,1-3-3V35.71a3,3,0,0,1,3-3h9.29a3,3,0,0,1,3,3V45A3,3,0,0,1,297.89,48ZM288.6,35.59,288.48,45l9.41.12A.12.12,0,0,0,298,45V35.71Z" transform="translate(-0.01 -8.99)" style="fill: #ffb000"/>
        <path d="M316.86,24.29a7.65,7.65,0,1,1,7.64-7.65A7.67,7.67,0,0,1,316.86,24.29Zm0-12.41a4.77,4.77,0,1,0,4.76,4.77A4.77,4.77,0,0,0,316.86,11.88Z" transform="translate(-0.01 -8.99)" style="fill: #ffb000"/>
        <path d="M345.52,48h-9.37a3,3,0,0,1-3-3V35.67a3,3,0,0,1,3-3h9.37a3,3,0,0,1,3,3V45A3,3,0,0,1,345.52,48Zm-9.37-12.41L336.07,45l9.45.08a.08.08,0,0,0,.08-.08V35.67Z" transform="translate(-0.01 -8.99)" style="fill: #ffb000"/>
        <path d="M364.45,24.29a7.65,7.65,0,1,1,7.64-7.65A7.67,7.67,0,0,1,364.45,24.29Zm0-12.41a4.77,4.77,0,1,0,4.76,4.76A4.77,4.77,0,0,0,364.45,11.88Z" transform="translate(-0.01 -8.99)" style="fill: #ffb000"/>
        <g>
          <rect x="291.8" y="1.45" width="2.88" height="12.41" style="fill: #ffb000"/>
          <rect x="287.03" y="6.21" width="12.41" height="2.88" style="fill: #ffb000"/>
        </g>
        <g>
          <rect x="315.41" y="25.16" width="2.88" height="12.41" style="fill: #ffb000"/>
          <rect x="310.65" y="29.92" width="12.41" height="2.88" style="fill: #ffb000"/>
        </g>
        <g>
          <rect x="363" y="25.16" width="2.88" height="12.41" style="fill: #ffb000"/>
          <rect x="358.24" y="29.92" width="12.41" height="2.88" style="fill: #ffb000"/>
        </g>
      </g>
      <g>
        <path d="M387.47,48a7.65,7.65,0,1,1,7.64-7.64A7.65,7.65,0,0,1,387.47,48Zm0-12.41a4.77,4.77,0,1,0,4.76,4.77A4.77,4.77,0,0,0,387.47,35.59Z" transform="translate(-0.01 -8.99)" style="fill: #ffb000"/>
        <path d="M458.67,48a7.65,7.65,0,1,1,7.65-7.64A7.65,7.65,0,0,1,458.67,48Zm0-12.41a4.77,4.77,0,1,0,4.77,4.77A4.77,4.77,0,0,0,458.67,35.59Z" transform="translate(-0.01 -8.99)" style="fill: #ffb000"/>
        <path d="M463.36,48H454a3,3,0,0,1-3-3V35.67a3,3,0,0,1,3-3h9.37a3,3,0,0,1,3,3V45A3,3,0,0,1,463.36,48ZM454,35.59,453.91,45l9.45.08a.08.08,0,0,0,.08-.08V35.67Z" transform="translate(-0.01 -8.99)" style="fill: #ffb000"/>
        <path d="M530.74,24.29a7.65,7.65,0,1,1,7.64-7.65A7.65,7.65,0,0,1,530.74,24.29Zm0-12.41a4.77,4.77,0,1,0,4.76,4.76A4.76,4.76,0,0,0,530.74,11.88Z" transform="translate(-0.01 -8.99)" style="fill: #ffb000"/>
        <path d="M535.43,24.29h-9.38a3,3,0,0,1-2.95-3V12a3,3,0,0,1,2.95-3h9.38a3,3,0,0,1,3,3v9.37A3,3,0,0,1,535.43,24.29Zm-9.38-12.41L526,21.33l9.45.08a.08.08,0,0,0,.07-.08h0V12Z" transform="translate(-0.01 -8.99)" style="fill: #ffb000"/>
        <path d="M458.67,24.29a7.65,7.65,0,1,1,7.65-7.65A7.66,7.66,0,0,1,458.67,24.29Zm0-12.41a4.77,4.77,0,1,0,4.77,4.76A4.76,4.76,0,0,0,458.67,11.88Z" transform="translate(-0.01 -8.99)" style="fill: #ffb000"/>
        <g>
          <rect x="433.61" y="1.45" width="2.88" height="12.41" style="fill: #ffb000"/>
          <rect x="428.85" y="6.21" width="12.41" height="2.88" style="fill: #ffb000"/>
        </g>
        <g>
          <rect x="409.64" y="25.16" width="2.88" height="12.41" style="fill: #ffb000"/>
          <rect x="404.87" y="29.92" width="12.41" height="2.88" style="fill: #ffb000"/>
        </g>
        <path d="M487.8,48h-9.3a3,3,0,0,1-3-3V35.71a3,3,0,0,1,3-3h9.3a3,3,0,0,1,3,3V45A3,3,0,0,1,487.8,48Zm-9.3-12.41L478.39,45l9.41.12a.11.11,0,0,0,.11-.12V35.71Z" transform="translate(-0.01 -8.99)" style="fill: #ffb000"/>
        <path d="M506.77,24.29a7.65,7.65,0,1,1,7.64-7.65A7.67,7.67,0,0,1,506.77,24.29Zm0-12.41a4.77,4.77,0,1,0,4.76,4.76A4.77,4.77,0,0,0,506.77,11.88Z" transform="translate(-0.01 -8.99)" style="fill: #ffb000"/>
        <path d="M554.35,24.29A7.65,7.65,0,1,1,562,16.64,7.67,7.67,0,0,1,554.35,24.29Zm0-12.41a4.77,4.77,0,1,0,4.77,4.76A4.76,4.76,0,0,0,554.35,11.88Z" transform="translate(-0.01 -8.99)" style="fill: #ffb000"/>
        <g>
          <rect x="481.7" y="1.45" width="2.88" height="12.41" style="fill: #ffb000"/>
          <rect x="476.94" y="6.21" width="12.41" height="2.88" style="fill: #ffb000"/>
        </g>
        <g>
          <rect x="505.32" y="25.16" width="2.88" height="12.41" style="fill: #ffb000"/>
          <rect x="500.56" y="29.92" width="12.41" height="2.88" style="fill: #ffb000"/>
        </g>
      </g>
    </g>
  </g>
</svg>
