<svg id="Layer_1" data-name="Layer 1" xmlns="http://www.w3.org/2000/svg" viewBox="0 0 108.77 38.23">
  <g>
    <path d="M78.13,15a7.49,7.49,0,1,1,7.49-7.49h0A7.5,7.5,0,0,1,78.13,15Zm0-12.16A4.67,4.67,0,1,0,82.8,7.49h0A4.69,4.69,0,0,0,78.13,2.82Z" transform="translate(0 0)" style="fill: #150035"/>
    <path d="M82.72,15H73.53a2.9,2.9,0,0,1-2.9-2.9V2.9A2.9,2.9,0,0,1,73.53,0h9.19a2.9,2.9,0,0,1,2.9,2.9v9.18A2.9,2.9,0,0,1,82.72,15ZM73.53,2.82l-.07,9.27,9.26.07a.07.07,0,0,0,.07-.07h0V2.9Z" transform="translate(0 0)" style="fill: #150035"/>
    <path d="M7.49,15A7.49,7.49,0,1,1,15,7.49h0A7.49,7.49,0,0,1,7.49,15Zm0-12.16a4.67,4.67,0,1,0,4.67,4.67h0A4.68,4.68,0,0,0,7.49,2.82Z" transform="translate(0 0)" style="fill: #ffb000"/>
    <path d="M82.72,38.23H73.53a2.9,2.9,0,0,1-2.9-2.9V26.14a2.9,2.9,0,0,1,2.9-2.9h9.19a2.9,2.9,0,0,1,2.9,2.9v9.19A2.9,2.9,0,0,1,82.72,38.23ZM73.53,26.07l-.07,9.26,9.26.07a.07.07,0,0,0,.07-.07V26.14Z" transform="translate(0 0)" style="fill: #150035"/>
    <path d="M105.87,15H96.68a2.9,2.9,0,0,1-2.9-2.9V2.9A2.9,2.9,0,0,1,96.68,0h9.19a2.9,2.9,0,0,1,2.9,2.9v9.18A2.9,2.9,0,0,1,105.87,15ZM96.68,2.82l-.08,9.27,9.27.07a.07.07,0,0,0,.07-.07V2.9Z" transform="translate(0 0)" style="fill: #150035"/>
    <g>
      <rect x="30.07" y="1.42" width="2.82" height="12.16" style="fill: #ffb000"/>
      <rect x="25.4" y="6.09" width="12.16" height="2.82" style="fill: #ffb000"/>
    </g>
    <g>
      <rect x="53.22" y="24.66" width="2.82" height="12.16" style="fill: #ffb000"/>
      <rect x="48.55" y="29.33" width="12.16" height="2.82" style="fill: #ffb000"/>
    </g>
    <g>
      <rect x="99.86" y="24.66" width="2.82" height="12.16" style="fill: #150035"/>
      <rect x="95.19" y="29.33" width="12.16" height="2.82" style="fill: #150035"/>
    </g>
  </g>
</svg>
