<svg id="Layer_1" data-name="Layer 1" xmlns="http://www.w3.org/2000/svg" xmlns:xlink="http://www.w3.org/1999/xlink" viewBox="0 0 561.99 39">
  <defs>
    <clipPath id="clip-path" transform="translate(-6.01 -8.99)">
      <rect width="234" height="60" style="fill: none"/>
    </clipPath>
  </defs>
  <g style="clip-path: url(#clip-path)">
    <g>
      <g>
        <path d="M13.65,48a7.65,7.65,0,1,1,7.65-7.64A7.65,7.65,0,0,1,13.65,48Zm0-12.41a4.77,4.77,0,1,0,4.77,4.77A4.77,4.77,0,0,0,13.65,35.59Z" transform="translate(-6.01 -8.99)" style="fill: #150035"/>
        <path d="M37.27,24.29a7.65,7.65,0,1,1,7.64-7.65A7.67,7.67,0,0,1,37.27,24.29Zm0-12.41A4.77,4.77,0,1,0,42,16.65,4.78,4.78,0,0,0,37.27,11.88Z" transform="translate(-6.01 -8.99)" style="fill: #150035"/>
        <path d="M84.86,48a7.65,7.65,0,1,1,7.64-7.64A7.66,7.66,0,0,1,84.86,48Zm0-12.41a4.77,4.77,0,1,0,4.76,4.77A4.79,4.79,0,0,0,84.86,35.59Z" transform="translate(-6.01 -8.99)" style="fill: #150035"/>
        <path d="M89.54,48H80.17a3,3,0,0,1-3-3V35.67a3,3,0,0,1,3-3h9.38a3,3,0,0,1,3,3V45A3,3,0,0,1,89.54,48ZM80.17,35.59,80.1,45l9.45.08a.07.07,0,0,0,.07-.08V35.67Z" transform="translate(-6.01 -8.99)" style="fill: #150035"/>
        <path d="M156.93,24.29a7.65,7.65,0,1,1,7.64-7.65A7.67,7.67,0,0,1,156.93,24.29Zm0-12.41a4.77,4.77,0,1,0,4.76,4.76A4.77,4.77,0,0,0,156.93,11.88Z" transform="translate(-6.01 -8.99)" style="fill: #ffb000"/>
        <path d="M161.61,24.29h-9.37a3,3,0,0,1-3-3V12a3,3,0,0,1,3-3h9.37a3,3,0,0,1,3,3v9.37A3,3,0,0,1,161.61,24.29Zm-9.37-12.41-.08,9.45,9.45.08a.09.09,0,0,0,.08-.08V12Z" transform="translate(-6.01 -8.99)" style="fill: #ffb000"/>
        <path d="M84.86,24.29a7.65,7.65,0,1,1,7.64-7.65A7.67,7.67,0,0,1,84.86,24.29Zm0-12.41a4.77,4.77,0,1,0,4.76,4.76A4.77,4.77,0,0,0,84.86,11.88Z" transform="translate(-6.01 -8.99)" style="fill: #150035"/>
        <g>
          <rect x="53.8" y="1.45" width="2.88" height="12.41" style="fill: #150035"/>
          <rect x="49.03" y="6.21" width="12.41" height="2.88" style="fill: #150035"/>
        </g>
        <g>
          <rect x="29.82" y="25.16" width="2.88" height="12.41" style="fill: #150035"/>
          <rect x="25.06" y="29.92" width="12.41" height="2.88" style="fill: #150035"/>
        </g>
        <path d="M114,48h-9.29a3,3,0,0,1-3-3V35.71a3,3,0,0,1,3-3H114a3,3,0,0,1,3,3V45A3,3,0,0,1,114,48Zm-9.29-12.41L104.57,45l9.41.12a.12.12,0,0,0,.12-.12V35.71Z" transform="translate(-6.01 -8.99)" style="fill: #150035"/>
        <path d="M18.3,24.29H9a3,3,0,0,1-3-3V12A3,3,0,0,1,9,9H18.3a3,3,0,0,1,3,3v9.3A3,3,0,0,1,18.3,24.29ZM9,11.88l-.12,9.41,9.41.12a.13.13,0,0,0,.12-.12V12Z" transform="translate(-6.01 -8.99)" style="fill: #150035"/>
        <path d="M161.61,48h-9.37a3,3,0,0,1-3-3V35.67a3,3,0,0,1,3-3h9.37a3,3,0,0,1,3,3V45A3,3,0,0,1,161.61,48Zm-9.37-12.41L152.16,45l9.45.08a.08.08,0,0,0,.08-.08V35.67Z" transform="translate(-6.01 -8.99)" style="fill: #ffb000"/>
        <path d="M180.54,24.29a7.65,7.65,0,1,1,7.64-7.65A7.65,7.65,0,0,1,180.54,24.29Zm0-12.41a4.77,4.77,0,1,0,4.76,4.76A4.77,4.77,0,0,0,180.54,11.88Z" transform="translate(-6.01 -8.99)" style="fill: #ffb000"/>
        <g>
          <rect x="101.89" y="1.45" width="2.88" height="12.41" style="fill: #150035"/>
          <rect x="97.13" y="6.21" width="12.41" height="2.88" style="fill: #150035"/>
        </g>
        <g>
          <rect x="125.5" y="25.16" width="2.88" height="12.41" style="fill: #ffb000"/>
          <rect x="120.74" y="29.92" width="12.41" height="2.88" style="fill: #ffb000"/>
        </g>
        <g>
          <rect x="173.09" y="25.16" width="2.88" height="12.41" style="fill: #ffb000"/>
          <rect x="168.33" y="29.92" width="12.41" height="2.88" style="fill: #ffb000"/>
        </g>
      </g>
      <g>
        <path d="M203.56,48a7.65,7.65,0,1,1,7.64-7.64A7.65,7.65,0,0,1,203.56,48Zm0-12.41a4.77,4.77,0,1,0,4.76,4.77A4.77,4.77,0,0,0,203.56,35.59Z" transform="translate(-6.01 -8.99)" style="fill: #ffb000"/>
        <path d="M227.18,24.29a7.65,7.65,0,1,1,7.64-7.65A7.67,7.67,0,0,1,227.18,24.29Zm0-12.41a4.77,4.77,0,1,0,4.76,4.76A4.77,4.77,0,0,0,227.18,11.88Z" transform="translate(-6.01 -8.99)" style="fill: #ffb000"/>
        <path d="M274.77,48a7.65,7.65,0,1,1,7.64-7.64A7.66,7.66,0,0,1,274.77,48Zm0-12.41a4.77,4.77,0,1,0,4.76,4.77A4.79,4.79,0,0,0,274.77,35.59Z" transform="translate(-6.01 -8.99)" style="fill: #ffb000"/>
        <path d="M279.45,48h-9.37a3,3,0,0,1-3-3V35.67a3,3,0,0,1,3-3h9.37a3,3,0,0,1,3,3V45A3,3,0,0,1,279.45,48Zm-9.37-12.41L270,45l9.45.08a.07.07,0,0,0,.08-.08V35.67Z" transform="translate(-6.01 -8.99)" style="fill: #ffb000"/>
        <path d="M346.83,24.29a7.65,7.65,0,1,1,7.64-7.64A7.65,7.65,0,0,1,346.83,24.29Zm0-12.41a4.77,4.77,0,1,0,4.77,4.77A4.77,4.77,0,0,0,346.83,11.88Z" transform="translate(-6.01 -8.99)" style="fill: #ffb000"/>
        <path d="M351.52,24.29h-9.37a3,3,0,0,1-3-3V12a3,3,0,0,1,3-3h9.37a3,3,0,0,1,3,3v9.37A3,3,0,0,1,351.52,24.29Zm-9.37-12.41-.08,9.45,9.45.08a.09.09,0,0,0,.08-.08V12Z" transform="translate(-6.01 -8.99)" style="fill: #ffb000"/>
        <path d="M208.25,24.29h-9.38a3,3,0,0,1-3-3V12a3,3,0,0,1,3-3h9.38a3,3,0,0,1,2.95,3v9.37A3,3,0,0,1,208.25,24.29Zm-9.38-12.41-.07,9.45,9.45.08a.08.08,0,0,0,.07-.08V12Z" transform="translate(-6.01 -8.99)" style="fill: #ffb000"/>
        <path d="M274.77,24.29a7.65,7.65,0,1,1,7.64-7.64A7.66,7.66,0,0,1,274.77,24.29Zm0-12.41a4.77,4.77,0,1,0,4.76,4.76A4.77,4.77,0,0,0,274.77,11.88Z" transform="translate(-6.01 -8.99)" style="fill: #ffb000"/>
        <g>
          <rect x="243.7" y="1.45" width="2.88" height="12.41" style="fill: #ffb000"/>
          <rect x="238.94" y="6.21" width="12.41" height="2.88" style="fill: #ffb000"/>
        </g>
        <g>
          <rect x="219.73" y="25.16" width="2.88" height="12.41" style="fill: #ffb000"/>
          <rect x="214.97" y="29.92" width="12.41" height="2.88" style="fill: #ffb000"/>
        </g>
        <path d="M303.89,48H294.6a3,3,0,0,1-3-3V35.71a3,3,0,0,1,3-3h9.29a3,3,0,0,1,3,3V45A3,3,0,0,1,303.89,48ZM294.6,35.59,294.48,45l9.41.12A.12.12,0,0,0,304,45V35.71Z" transform="translate(-6.01 -8.99)" style="fill: #ffb000"/>
        <path d="M322.86,24.29a7.65,7.65,0,1,1,7.64-7.65A7.67,7.67,0,0,1,322.86,24.29Zm0-12.41a4.77,4.77,0,1,0,4.76,4.77A4.77,4.77,0,0,0,322.86,11.88Z" transform="translate(-6.01 -8.99)" style="fill: #ffb000"/>
        <path d="M351.52,48h-9.37a3,3,0,0,1-3-3V35.67a3,3,0,0,1,3-3h9.37a3,3,0,0,1,3,3V45A3,3,0,0,1,351.52,48Zm-9.37-12.41L342.07,45l9.45.08a.08.08,0,0,0,.08-.08V35.67Z" transform="translate(-6.01 -8.99)" style="fill: #ffb000"/>
        <path d="M370.45,24.29a7.65,7.65,0,1,1,7.64-7.65A7.67,7.67,0,0,1,370.45,24.29Zm0-12.41a4.77,4.77,0,1,0,4.76,4.76A4.77,4.77,0,0,0,370.45,11.88Z" transform="translate(-6.01 -8.99)" style="fill: #ffb000"/>
        <g>
          <rect x="291.8" y="1.45" width="2.88" height="12.41" style="fill: #ffb000"/>
          <rect x="287.03" y="6.21" width="12.41" height="2.88" style="fill: #ffb000"/>
        </g>
        <g>
          <rect x="315.41" y="25.16" width="2.88" height="12.41" style="fill: #ffb000"/>
          <rect x="310.65" y="29.92" width="12.41" height="2.88" style="fill: #ffb000"/>
        </g>
        <g>
          <rect x="363" y="25.16" width="2.88" height="12.41" style="fill: #ffb000"/>
          <rect x="358.24" y="29.92" width="12.41" height="2.88" style="fill: #ffb000"/>
        </g>
      </g>
      <g>
        <path d="M393.47,48a7.65,7.65,0,1,1,7.64-7.64A7.65,7.65,0,0,1,393.47,48Zm0-12.41a4.77,4.77,0,1,0,4.76,4.77A4.77,4.77,0,0,0,393.47,35.59Z" transform="translate(-6.01 -8.99)" style="fill: #ffb000"/>
        <path d="M464.67,48a7.65,7.65,0,1,1,7.65-7.64A7.65,7.65,0,0,1,464.67,48Zm0-12.41a4.77,4.77,0,1,0,4.77,4.77A4.77,4.77,0,0,0,464.67,35.59Z" transform="translate(-6.01 -8.99)" style="fill: #ffb000"/>
        <path d="M469.36,48H460a3,3,0,0,1-3-3V35.67a3,3,0,0,1,3-3h9.37a3,3,0,0,1,3,3V45A3,3,0,0,1,469.36,48ZM460,35.59,459.91,45l9.45.08a.08.08,0,0,0,.08-.08V35.67Z" transform="translate(-6.01 -8.99)" style="fill: #ffb000"/>
        <path d="M536.74,24.29a7.65,7.65,0,1,1,7.64-7.65A7.65,7.65,0,0,1,536.74,24.29Zm0-12.41a4.77,4.77,0,1,0,4.76,4.76A4.76,4.76,0,0,0,536.74,11.88Z" transform="translate(-6.01 -8.99)" style="fill: #ffb000"/>
        <path d="M541.43,24.29h-9.38a3,3,0,0,1-2.95-3V12a3,3,0,0,1,2.95-3h9.38a3,3,0,0,1,3,3v9.37A3,3,0,0,1,541.43,24.29Zm-9.38-12.41L532,21.33l9.45.08a.08.08,0,0,0,.07-.08h0V12Z" transform="translate(-6.01 -8.99)" style="fill: #ffb000"/>
        <path d="M464.67,24.29a7.65,7.65,0,1,1,7.65-7.65A7.66,7.66,0,0,1,464.67,24.29Zm0-12.41a4.77,4.77,0,1,0,4.77,4.76A4.76,4.76,0,0,0,464.67,11.88Z" transform="translate(-6.01 -8.99)" style="fill: #ffb000"/>
        <g>
          <rect x="433.61" y="1.45" width="2.88" height="12.41" style="fill: #ffb000"/>
          <rect x="428.85" y="6.21" width="12.41" height="2.88" style="fill: #ffb000"/>
        </g>
        <g>
          <rect x="409.64" y="25.16" width="2.88" height="12.41" style="fill: #ffb000"/>
          <rect x="404.87" y="29.92" width="12.41" height="2.88" style="fill: #ffb000"/>
        </g>
        <path d="M493.8,48h-9.3a3,3,0,0,1-3-3V35.71a3,3,0,0,1,3-3h9.3a3,3,0,0,1,3,3V45A3,3,0,0,1,493.8,48Zm-9.3-12.41L484.39,45l9.41.12a.11.11,0,0,0,.11-.12V35.71Z" transform="translate(-6.01 -8.99)" style="fill: #ffb000"/>
        <path d="M512.77,24.29a7.65,7.65,0,1,1,7.64-7.65A7.67,7.67,0,0,1,512.77,24.29Zm0-12.41a4.77,4.77,0,1,0,4.76,4.76A4.77,4.77,0,0,0,512.77,11.88Z" transform="translate(-6.01 -8.99)" style="fill: #ffb000"/>
        <path d="M560.35,24.29A7.65,7.65,0,1,1,568,16.64,7.67,7.67,0,0,1,560.35,24.29Zm0-12.41a4.77,4.77,0,1,0,4.77,4.76A4.76,4.76,0,0,0,560.35,11.88Z" transform="translate(-6.01 -8.99)" style="fill: #ffb000"/>
        <g>
          <rect x="481.7" y="1.45" width="2.88" height="12.41" style="fill: #ffb000"/>
          <rect x="476.94" y="6.21" width="12.41" height="2.88" style="fill: #ffb000"/>
        </g>
        <g>
          <rect x="505.32" y="25.16" width="2.88" height="12.41" style="fill: #ffb000"/>
          <rect x="500.56" y="29.92" width="12.41" height="2.88" style="fill: #ffb000"/>
        </g>
      </g>
    </g>
  </g>
</svg>
