<svg xmlns="http://www.w3.org/2000/svg" xmlns:xlink="http://www.w3.org/1999/xlink" width="298" height="58"
    viewBox="0 0 298 58">
    <defs>
        <style>
        </style>
        <clipPath id="a">
            <rect class="a" width="298" height="58" transform="translate(0 224)" style="fill: #fff;stroke: #707070;" />
        </clipPath>
    </defs>
    <g transform="translate(0 -224)" style="clip-path: url(#a);">
        <g transform="translate(-411.186 428.146)">
            <g transform="translate(147.196 -193.146)">
                <g transform="translate(0 23.714)">
                    <path class="c"
                        d="M154.84-140.179a7.652,7.652,0,0,1-7.644-7.643,7.652,7.652,0,0,1,7.644-7.643,7.652,7.652,0,0,1,7.643,7.643A7.652,7.652,0,0,1,154.84-140.179Zm0-12.405a4.769,4.769,0,0,0-4.765,4.763,4.77,4.77,0,0,0,4.765,4.763,4.769,4.769,0,0,0,4.763-4.763A4.769,4.769,0,0,0,154.84-152.584Z"
                        transform="translate(-147.196 155.464)" style="fill: #150035;" />
                </g>
                <g transform="translate(23.615)">
                    <path class="c"
                        d="M192.364-177.86a7.652,7.652,0,0,1-7.644-7.643,7.653,7.653,0,0,1,7.644-7.644,7.652,7.652,0,0,1,7.643,7.644A7.652,7.652,0,0,1,192.364-177.86Zm0-12.407A4.77,4.77,0,0,0,187.6-185.5a4.77,4.77,0,0,0,4.765,4.763,4.769,4.769,0,0,0,4.763-4.763A4.77,4.77,0,0,0,192.364-190.267Z"
                        transform="translate(-184.72 193.146)" style="fill: #150035;" />
                </g>
                <g transform="translate(71.206 23.714)">
                    <path class="c"
                        d="M267.985-140.179a7.652,7.652,0,0,1-7.643-7.643,7.652,7.652,0,0,1,7.643-7.643,7.652,7.652,0,0,1,7.644,7.643A7.652,7.652,0,0,1,267.985-140.179Zm0-12.405a4.769,4.769,0,0,0-4.763,4.763,4.769,4.769,0,0,0,4.763,4.763,4.77,4.77,0,0,0,4.765-4.763A4.769,4.769,0,0,0,267.985-152.584Z"
                        transform="translate(-260.342 155.464)" style="fill: #150035;" />
                </g>
                <g transform="translate(71.206 23.714)">
                    <path class="c"
                        d="M272.672-140.179H263.3a2.959,2.959,0,0,1-2.955-2.955v-9.374a2.959,2.959,0,0,1,2.955-2.955h9.374a2.959,2.959,0,0,1,2.957,2.955v9.374A2.959,2.959,0,0,1,272.672-140.179ZM263.3-152.584l-.076,9.45,9.451.076a.077.077,0,0,0,.077-.076v-9.374Z"
                        transform="translate(-260.342 155.464)" style="fill: #150035;" />
                </g>
                <g transform="translate(143.272)">
                    <g transform="translate(0)">
                        <path class="d" style="fill: #ffb000;"
                            d="M382.5-177.86a7.652,7.652,0,0,1-7.643-7.643,7.652,7.652,0,0,1,7.643-7.644,7.652,7.652,0,0,1,7.644,7.644A7.652,7.652,0,0,1,382.5-177.86Zm0-12.407a4.769,4.769,0,0,0-4.763,4.765,4.769,4.769,0,0,0,4.763,4.763,4.77,4.77,0,0,0,4.765-4.763A4.77,4.77,0,0,0,382.5-190.267Z"
                            transform="translate(-374.855 193.146)" />
                    </g>
                </g>
                <g transform="translate(143.272)">
                    <g transform="translate(0)">
                        <path class="d" style="fill: #ffb000;"
                            d="M387.185-177.86H377.81a2.959,2.959,0,0,1-2.955-2.957v-9.373a2.959,2.959,0,0,1,2.955-2.957h9.374a2.959,2.959,0,0,1,2.957,2.957v9.373A2.959,2.959,0,0,1,387.185-177.86Zm-9.374-12.407-.076,9.451,9.45.077a.078.078,0,0,0,.077-.077v-9.373Z"
                            transform="translate(-374.855 193.146)" />
                    </g>
                </g>
                <g transform="translate(71.206)">
                    <path class="c"
                        d="M267.985-177.86a7.652,7.652,0,0,1-7.643-7.643,7.652,7.652,0,0,1,7.643-7.644,7.652,7.652,0,0,1,7.644,7.644A7.652,7.652,0,0,1,267.985-177.86Zm0-12.407a4.769,4.769,0,0,0-4.763,4.765,4.769,4.769,0,0,0,4.763,4.763,4.769,4.769,0,0,0,4.765-4.763A4.77,4.77,0,0,0,267.985-190.267Z"
                        transform="translate(-260.342 193.146)" style="fill: #150035;" />
                </g>
                <g transform="translate(49.03 1.44)">
                    <g transform="translate(4.765)">
                        <rect class="c" width="2.879" height="12.407" style="fill: #150035;" />
                    </g>
                    <g transform="translate(0 4.765)">
                        <rect class="c" width="12.407" height="2.879" style="fill: #150035;" />
                    </g>
                </g>
                <g transform="translate(25.055 25.154)">
                    <g transform="translate(4.765)">
                        <rect class="c" width="2.879" height="12.406" style="fill: #150035;" />
                    </g>
                    <g transform="translate(0 4.763)">
                        <rect class="c" width="12.407" height="2.879" style="fill: #150035;" />
                    </g>
                </g>
                <g transform="translate(95.683 23.714)">
                    <path class="c"
                        d="M311.525-140.179h-9.293a3,3,0,0,1-3-3v-9.293a3,3,0,0,1,3-3h9.293a3,3,0,0,1,3,3v9.293A3,3,0,0,1,311.525-140.179Zm-9.293-12.405-.116,9.41,9.41.116a.117.117,0,0,0,.116-.116v-9.293Z"
                        transform="translate(-299.236 155.464)" style="fill: #150035;" />
                </g>
                <path class="c"
                    d="M159.485-177.86h-9.291a3,3,0,0,1-3-3v-9.291a3,3,0,0,1,3-3h9.291a3,3,0,0,1,3,3v9.291A3,3,0,0,1,159.485-177.86Zm-9.291-12.407-.118,9.41,9.41.118a.119.119,0,0,0,.118-.118v-9.291Z"
                    transform="translate(-147.196 193.146)" />
                <g transform="translate(143.272 23.714)">
                    <g transform="translate(0)">
                        <path class="d" style="fill: #ffb000;"
                            d="M387.185-140.179H377.81a2.959,2.959,0,0,1-2.955-2.955v-9.374a2.959,2.959,0,0,1,2.955-2.955h9.374a2.959,2.959,0,0,1,2.957,2.955v9.374A2.959,2.959,0,0,1,387.185-140.179Zm-9.374-12.405-.076,9.45,9.45.076a.077.077,0,0,0,.077-.076v-9.374Z"
                            transform="translate(-374.855 155.464)" />
                    </g>
                </g>
                <g transform="translate(166.887)">
                    <path class="d" style="fill: #ffb000;"
                        d="M420.023-177.86a7.652,7.652,0,0,1-7.644-7.643,7.653,7.653,0,0,1,7.644-7.644,7.652,7.652,0,0,1,7.643,7.644A7.652,7.652,0,0,1,420.023-177.86Zm0-12.407a4.77,4.77,0,0,0-4.765,4.765,4.77,4.77,0,0,0,4.765,4.763,4.769,4.769,0,0,0,4.763-4.763A4.769,4.769,0,0,0,420.023-190.267Z"
                        transform="translate(-412.379 193.146)" />
                </g>
                <g transform="translate(97.123 1.44)">
                    <g transform="translate(4.763)">
                        <rect class="c" width="2.879" height="12.407" style="fill: #150035;" />
                    </g>
                    <g transform="translate(0 4.765)">
                        <rect class="c" width="12.406" height="2.879" style="fill: #150035;" />
                    </g>
                </g>
                <g transform="translate(120.737 25.154)">
                    <g transform="translate(4.763)">
                        <rect class="d" style="fill: #ffb000;" width="2.879" height="12.406" />
                    </g>
                    <g transform="translate(0 4.763)">
                        <rect class="d" style="fill: #ffb000;" width="12.407" height="2.879" />
                    </g>
                </g>
                <g transform="translate(168.327 25.154)">
                    <g transform="translate(4.765)">
                        <rect class="d" style="fill: #ffb000;" width="2.879" height="12.406" />
                    </g>
                    <g transform="translate(0 4.763)">
                        <rect class="d" style="fill: #ffb000;" width="12.407" height="2.879" />
                    </g>
                </g>
            </g>
            <g transform="translate(337.105 -193.146)">
                <g transform="translate(0 23.714)">
                    <path class="d" style="fill: #ffb000;"
                        d="M456.6-140.179a7.652,7.652,0,0,1-7.643-7.643,7.652,7.652,0,0,1,7.643-7.643,7.652,7.652,0,0,1,7.643,7.643A7.652,7.652,0,0,1,456.6-140.179Zm0-12.405a4.768,4.768,0,0,0-4.763,4.763,4.769,4.769,0,0,0,4.763,4.763,4.769,4.769,0,0,0,4.763-4.763A4.769,4.769,0,0,0,456.6-152.584Z"
                        transform="translate(-448.96 155.464)" />
                </g>
                <g transform="translate(23.615)">
                    <path class="d" style="fill: #ffb000;"
                        d="M494.127-177.86a7.652,7.652,0,0,1-7.643-7.643,7.653,7.653,0,0,1,7.643-7.644,7.652,7.652,0,0,1,7.644,7.644A7.652,7.652,0,0,1,494.127-177.86Zm0-12.407a4.769,4.769,0,0,0-4.763,4.765,4.769,4.769,0,0,0,4.763,4.763,4.769,4.769,0,0,0,4.765-4.763A4.769,4.769,0,0,0,494.127-190.267Z"
                        transform="translate(-486.484 193.146)" />
                </g>
                <g transform="translate(71.205 23.714)">
                    <path class="d" style="fill: #ffb000;"
                        d="M569.748-140.179a7.652,7.652,0,0,1-7.644-7.643,7.652,7.652,0,0,1,7.644-7.643,7.652,7.652,0,0,1,7.643,7.643A7.652,7.652,0,0,1,569.748-140.179Zm0-12.405a4.769,4.769,0,0,0-4.765,4.763,4.77,4.77,0,0,0,4.765,4.763,4.769,4.769,0,0,0,4.763-4.763A4.769,4.769,0,0,0,569.748-152.584Z"
                        transform="translate(-562.104 155.464)" />
                </g>
                <g transform="translate(71.205 23.714)">
                    <path class="d" style="fill: #ffb000;"
                        d="M574.434-140.179h-9.373a2.959,2.959,0,0,1-2.957-2.955v-9.374a2.959,2.959,0,0,1,2.957-2.955h9.373a2.959,2.959,0,0,1,2.957,2.955v9.374A2.959,2.959,0,0,1,574.434-140.179Zm-9.373-12.405-.077,9.45,9.451.076a.077.077,0,0,0,.077-.076v-9.374Z"
                        transform="translate(-562.104 155.464)" />
                </g>
                <g transform="translate(143.271)">
                    <path class="d" style="fill: #ffb000;"
                        d="M684.261-177.86a7.652,7.652,0,0,1-7.644-7.643,7.653,7.653,0,0,1,7.644-7.644A7.652,7.652,0,0,1,691.9-185.5,7.652,7.652,0,0,1,684.261-177.86Zm0-12.407A4.77,4.77,0,0,0,679.5-185.5a4.77,4.77,0,0,0,4.765,4.763,4.769,4.769,0,0,0,4.763-4.763A4.769,4.769,0,0,0,684.261-190.267Z"
                        transform="translate(-676.617 193.146)" />
                </g>
                <g transform="translate(143.271)">
                    <path class="d" style="fill: #ffb000;"
                        d="M688.947-177.86h-9.373a2.96,2.96,0,0,1-2.957-2.957v-9.373a2.96,2.96,0,0,1,2.957-2.957h9.373a2.959,2.959,0,0,1,2.957,2.957v9.373A2.959,2.959,0,0,1,688.947-177.86Zm-9.373-12.407-.077,9.451,9.451.077a.078.078,0,0,0,.077-.077v-9.373Z"
                        transform="translate(-676.617 193.146)" />
                </g>
                <path class="d" style="fill: #ffb000;"
                    d="M461.29-177.86h-9.374a2.959,2.959,0,0,1-2.955-2.957v-9.373a2.959,2.959,0,0,1,2.955-2.957h9.374a2.959,2.959,0,0,1,2.955,2.957v9.373A2.959,2.959,0,0,1,461.29-177.86Zm-9.374-12.407-.076,9.451,9.45.077a.077.077,0,0,0,.076-.077v-9.373Z"
                    transform="translate(-448.96 193.146)" />
                <g transform="translate(71.205)">
                    <path class="d" style="fill: #ffb000;"
                        d="M569.748-177.86A7.652,7.652,0,0,1,562.1-185.5a7.653,7.653,0,0,1,7.644-7.644,7.652,7.652,0,0,1,7.643,7.644A7.652,7.652,0,0,1,569.748-177.86Zm0-12.407a4.77,4.77,0,0,0-4.765,4.765,4.77,4.77,0,0,0,4.765,4.763,4.769,4.769,0,0,0,4.763-4.763A4.77,4.77,0,0,0,569.748-190.267Z"
                        transform="translate(-562.104 193.146)" />
                </g>
                <g transform="translate(49.03 1.44)">
                    <g transform="translate(4.763)">
                        <rect class="d" style="fill: #ffb000;" width="2.879" height="12.407" />
                    </g>
                    <g transform="translate(0 4.765)">
                        <rect class="d" style="fill: #ffb000;" width="12.407" height="2.879" />
                    </g>
                </g>
                <g transform="translate(25.055 25.154)">
                    <g transform="translate(4.763)">
                        <rect class="d" style="fill: #ffb000;" width="2.879" height="12.406" />
                    </g>
                    <g transform="translate(0 4.763)">
                        <rect class="d" style="fill: #ffb000;" width="12.407" height="2.879" />
                    </g>
                </g>
                <g transform="translate(95.682 23.714)">
                    <path class="d" style="fill: #ffb000;"
                        d="M613.287-140.179h-9.292a3,3,0,0,1-3-3v-9.293a3,3,0,0,1,3-3h9.292a3,3,0,0,1,3,3v9.293A3,3,0,0,1,613.287-140.179Zm-9.292-12.405-.118,9.41,9.41.116a.118.118,0,0,0,.118-.116v-9.293Z"
                        transform="translate(-600.998 155.464)" />
                </g>
                <g transform="translate(119.296)">
                    <path class="d" style="fill: #ffb000;"
                        d="M646.165-177.86a7.653,7.653,0,0,1-7.644-7.643,7.653,7.653,0,0,1,7.644-7.644,7.652,7.652,0,0,1,7.642,7.644A7.652,7.652,0,0,1,646.165-177.86Zm0-12.407A4.769,4.769,0,0,0,641.4-185.5a4.769,4.769,0,0,0,4.765,4.763,4.769,4.769,0,0,0,4.763-4.763A4.769,4.769,0,0,0,646.165-190.267Z"
                        transform="translate(-638.521 193.146)" />
                </g>
                <g transform="translate(143.271 23.714)">
                    <path class="d" style="fill: #ffb000;"
                        d="M688.947-140.179h-9.373a2.959,2.959,0,0,1-2.957-2.955v-9.374a2.959,2.959,0,0,1,2.957-2.955h9.373a2.959,2.959,0,0,1,2.957,2.955v9.374A2.959,2.959,0,0,1,688.947-140.179Zm-9.373-12.405-.077,9.45,9.451.076a.077.077,0,0,0,.077-.076v-9.374Z"
                        transform="translate(-676.617 155.464)" />
                </g>
                <g transform="translate(166.887)">
                    <path class="d" style="fill: #ffb000;"
                        d="M721.786-177.86a7.652,7.652,0,0,1-7.643-7.643,7.652,7.652,0,0,1,7.643-7.644,7.652,7.652,0,0,1,7.643,7.644A7.652,7.652,0,0,1,721.786-177.86Zm0-12.407a4.769,4.769,0,0,0-4.763,4.765,4.769,4.769,0,0,0,4.763,4.763,4.769,4.769,0,0,0,4.763-4.763A4.769,4.769,0,0,0,721.786-190.267Z"
                        transform="translate(-714.143 193.146)" />
                </g>
                <g transform="translate(97.121 1.44)">
                    <g transform="translate(4.763)">
                        <rect class="d" style="fill: #ffb000;" width="2.879" height="12.407" />
                    </g>
                    <g transform="translate(0 4.765)">
                        <rect class="d" style="fill: #ffb000;" width="12.407" height="2.879" />
                    </g>
                </g>
                <g transform="translate(120.736 25.154)">
                    <g transform="translate(4.765)">
                        <rect class="d" style="fill: #ffb000;" width="2.879" height="12.406" />
                    </g>
                    <g transform="translate(0 4.763)">
                        <rect class="d" style="fill: #ffb000;" width="12.407" height="2.879" />
                    </g>
                </g>
                <g transform="translate(168.327 25.154)">
                    <g transform="translate(4.763)">
                        <rect class="d" style="fill: #ffb000;" width="2.879" height="12.406" />
                    </g>
                    <g transform="translate(0 4.763)">
                        <rect class="d" style="fill: #ffb000;" width="12.406" height="2.879" />
                    </g>
                </g>
            </g>
            <g transform="translate(527.012 -193.146)">
                <g transform="translate(0 23.714)">
                    <path class="d" style="fill: #ffb000;"
                        d="M758.365-140.179a7.652,7.652,0,0,1-7.643-7.643,7.652,7.652,0,0,1,7.643-7.643,7.652,7.652,0,0,1,7.644,7.643A7.652,7.652,0,0,1,758.365-140.179Zm0-12.405a4.768,4.768,0,0,0-4.763,4.763,4.769,4.769,0,0,0,4.763,4.763,4.769,4.769,0,0,0,4.765-4.763A4.769,4.769,0,0,0,758.365-152.584Z"
                        transform="translate(-750.722 155.464)" />
                </g>
                <g transform="translate(71.206 23.714)">
                    <path class="d" style="fill: #ffb000;"
                        d="M871.511-140.179a7.652,7.652,0,0,1-7.643-7.643,7.652,7.652,0,0,1,7.643-7.643,7.652,7.652,0,0,1,7.643,7.643A7.652,7.652,0,0,1,871.511-140.179Zm0-12.405a4.768,4.768,0,0,0-4.763,4.763,4.769,4.769,0,0,0,4.763,4.763,4.769,4.769,0,0,0,4.763-4.763A4.769,4.769,0,0,0,871.511-152.584Z"
                        transform="translate(-863.868 155.464)" />
                </g>
                <g transform="translate(71.206 23.714)">
                    <path class="d" style="fill: #ffb000;"
                        d="M876.2-140.179h-9.375a2.959,2.959,0,0,1-2.955-2.955v-9.374a2.959,2.959,0,0,1,2.955-2.955H876.2a2.959,2.959,0,0,1,2.955,2.955v9.374A2.959,2.959,0,0,1,876.2-140.179Zm-9.375-12.405-.076,9.45,9.45.076a.076.076,0,0,0,.076-.076v-9.374Z"
                        transform="translate(-863.868 155.464)" />
                </g>
                <g transform="translate(143.273)">
                    <path class="d" style="fill: #ffb000;"
                        d="M986.024-177.86a7.652,7.652,0,0,1-7.642-7.643,7.652,7.652,0,0,1,7.642-7.644,7.652,7.652,0,0,1,7.643,7.644A7.652,7.652,0,0,1,986.024-177.86Zm0-12.407a4.769,4.769,0,0,0-4.763,4.765,4.769,4.769,0,0,0,4.763,4.763,4.769,4.769,0,0,0,4.763-4.763A4.769,4.769,0,0,0,986.024-190.267Z"
                        transform="translate(-978.382 193.146)" />
                </g>
                <g transform="translate(143.273)">
                    <path class="d" style="fill: #ffb000;"
                        d="M990.711-177.86h-9.375a2.959,2.959,0,0,1-2.955-2.957v-9.373a2.959,2.959,0,0,1,2.955-2.957h9.375a2.959,2.959,0,0,1,2.955,2.957v9.373A2.959,2.959,0,0,1,990.711-177.86Zm-9.375-12.407-.076,9.451,9.45.077a.076.076,0,0,0,.076-.077v-9.373Z"
                        transform="translate(-978.382 193.146)" />
                </g>
                <g transform="translate(71.206)">
                    <path class="d" style="fill: #ffb000;"
                        d="M871.511-177.86a7.652,7.652,0,0,1-7.643-7.643,7.652,7.652,0,0,1,7.643-7.644,7.653,7.653,0,0,1,7.643,7.644A7.652,7.652,0,0,1,871.511-177.86Zm0-12.407a4.769,4.769,0,0,0-4.763,4.765,4.769,4.769,0,0,0,4.763,4.763,4.769,4.769,0,0,0,4.763-4.763A4.769,4.769,0,0,0,871.511-190.267Z"
                        transform="translate(-863.868 193.146)" />
                </g>
                <g transform="translate(49.03 1.44)">
                    <g transform="translate(4.765)">
                        <rect class="d" style="fill: #ffb000;" width="2.879" height="12.407" />
                    </g>
                    <g transform="translate(0 4.765)">
                        <rect class="d" style="fill: #ffb000;" width="12.407" height="2.879" />
                    </g>
                </g>
                <g transform="translate(25.055 25.154)">
                    <g transform="translate(4.765)">
                        <rect class="d" style="fill: #ffb000;" width="2.879" height="12.406" />
                    </g>
                    <g transform="translate(0 4.763)">
                        <rect class="d" style="fill: #ffb000;" width="12.407" height="2.879" />
                    </g>
                </g>
                <g transform="translate(95.682 23.714)">
                    <path class="d" style="fill: #ffb000;"
                        d="M915.049-140.179h-9.292a3,3,0,0,1-3-3v-9.293a3,3,0,0,1,3-3h9.292a3,3,0,0,1,3,3v9.293A3,3,0,0,1,915.049-140.179Zm-9.292-12.405-.118,9.41,9.41.116a.118.118,0,0,0,.118-.116v-9.293Z"
                        transform="translate(-902.76 155.464)" />
                </g>
                <g transform="translate(119.298)">
                    <path class="d" style="fill: #ffb000;"
                        d="M947.929-177.86a7.652,7.652,0,0,1-7.643-7.643,7.652,7.652,0,0,1,7.643-7.644,7.652,7.652,0,0,1,7.642,7.644A7.652,7.652,0,0,1,947.929-177.86Zm0-12.407a4.769,4.769,0,0,0-4.763,4.765,4.769,4.769,0,0,0,4.763,4.763,4.769,4.769,0,0,0,4.763-4.763A4.769,4.769,0,0,0,947.929-190.267Z"
                        transform="translate(-940.286 193.146)" />
                </g>
                <g transform="translate(166.887)">
                    <path class="d" style="fill: #ffb000;"
                        d="M1023.548-177.86a7.652,7.652,0,0,1-7.643-7.643,7.652,7.652,0,0,1,7.643-7.644,7.652,7.652,0,0,1,7.644,7.644A7.652,7.652,0,0,1,1023.548-177.86Zm0-12.407a4.769,4.769,0,0,0-4.763,4.765,4.769,4.769,0,0,0,4.763,4.763,4.769,4.769,0,0,0,4.765-4.763A4.769,4.769,0,0,0,1023.548-190.267Z"
                        transform="translate(-1015.905 193.146)" />
                </g>
                <g transform="translate(97.121 1.44)">
                    <g transform="translate(4.765)">
                        <rect class="d" style="fill: #ffb000;" width="2.879" height="12.407" />
                    </g>
                    <g transform="translate(0 4.765)">
                        <rect class="d" style="fill: #ffb000;" width="12.407" height="2.879" />
                    </g>
                </g>
                <g transform="translate(120.738 25.154)">
                    <g transform="translate(4.763)">
                        <rect class="d" style="fill: #ffb000;" width="2.879" height="12.406" />
                    </g>
                    <g transform="translate(0 4.763)">
                        <rect class="d" style="fill: #ffb000;" width="12.406" height="2.879" />
                    </g>
                </g>
            </g>
        </g>
    </g>
</svg>