<svg id="Layer_1" data-name="Layer 1" xmlns="http://www.w3.org/2000/svg" viewBox="0 0 27.21 35.75">
  <g>
    <g>
      <path d="M5.44,24.23,3.21,25.61a.91.91,0,0,1-.89,0L.22,24.26c-.26-.16-.29-.41-.06-.55l2.23-1.39a.94.94,0,0,1,.89,0l2.1,1.31C5.64,23.83,5.67,24.08,5.44,24.23Z" transform="translate(0 0)" style="fill: #150035"/>
      <path d="M5.47,31,3.24,32.42a.93.93,0,0,1-.9,0l-2.1-1.3C0,30.91,0,30.67.18,30.52l2.23-1.38a.91.91,0,0,1,.89,0l2.1,1.3C5.67,30.65,5.69,30.9,5.47,31Z" transform="translate(0 0)" style="fill: #150035"/>
      <path d="M10.93,27.64,8.7,29a1,1,0,0,1-.89,0l-2.1-1.31c-.26-.17-.29-.41-.06-.56l2.23-1.38a.91.91,0,0,1,.89,0l2.1,1.3C11.13,27.25,11.16,27.5,10.93,27.64Z" transform="translate(0 0)" style="fill: #150035"/>
      <path d="M10.65,34.27,8.42,35.66a1,1,0,0,1-.89,0l-2.1-1.31c-.26-.17-.29-.41-.06-.56L7.6,32.37a.91.91,0,0,1,.89,0l2.1,1.3C10.85,33.87,10.88,34.12,10.65,34.27Z" transform="translate(0 0)" style="fill: #150035"/>
      <path d="M16.12,30.87l-2.23,1.38a.91.91,0,0,1-.89,0l-2.1-1.3c-.26-.17-.29-.42-.06-.56L13.06,29a1,1,0,0,1,.9,0l2.1,1.31C16.32,30.48,16.35,30.72,16.12,30.87Z" transform="translate(0 0)" style="fill: #150035"/>
      <path d="M21.59,27.46l-2.23,1.39a.91.91,0,0,1-.89,0l-2.1-1.31c-.27-.16-.3-.41-.07-.55l2.23-1.39a1,1,0,0,1,.9,0l2.1,1.31C21.79,27.08,21.82,27.32,21.59,27.46Z" transform="translate(0 0)" style="fill: #150035"/>
      <path d="M27.05,24.07l-2.23,1.38a.91.91,0,0,1-.89,0l-2.1-1.3c-.26-.17-.29-.41-.06-.56L24,22.17a.91.91,0,0,1,.89,0l2.1,1.3C27.25,23.68,27.28,23.92,27.05,24.07Z" transform="translate(0 0)" style="fill: #150035"/>
      <path d="M21.31,34.09l-2.23,1.39a.94.94,0,0,1-.89,0l-2.1-1.31c-.27-.16-.29-.41-.07-.55l2.23-1.39a1,1,0,0,1,.9,0l2.1,1.31C21.51,33.7,21.54,34,21.31,34.09Z" transform="translate(0 0)" style="fill: #150035"/>
      <path d="M26.78,30.69l-2.23,1.39a1,1,0,0,1-.9,0l-2.1-1.31c-.26-.16-.29-.41-.06-.55l2.23-1.39a.94.94,0,0,1,.89,0l2.1,1.31C27,30.3,27,30.55,26.78,30.69Z" transform="translate(0 0)" style="fill: #150035"/>
    </g>
    <g>
      <g>
        <g>
          <path d="M22.67,6.2,15.1,1.42a.71.71,0,0,0-.83,0L5.06,7.56a.41.41,0,0,0-.12.53l8.88,10.26a.35.35,0,0,1,0,.2v3.31c0,1,3.6-1.82,4.28-1.4h0a.35.35,0,0,1,.13.14l-4.54,3a.36.36,0,0,0,.48.15l0,0,9.23-6.2a2,2,0,0,0,.4-1V8.7A3.19,3.19,0,0,0,22.67,6.2Z" transform="translate(0 0)" style="fill: #fff"/>
          <path d="M14.06,25.09a1.55,1.55,0,0,1-.37,0,1.64,1.64,0,0,1-1-.8l-.57-1,.68-.45-.06,0-.08-.89v-3L3.84,8.7a1.69,1.69,0,0,1,.51-2.19L13.57.33a2,2,0,0,1,2.19,0l7.57,4.79A4.4,4.4,0,0,1,25.15,8.7v7.83a3.32,3.32,0,0,1-.66,1.8l-.3.29L15,24.82A1.56,1.56,0,0,1,14.06,25.09Zm-7.49-17,8.35,9.67a1.57,1.57,0,0,1,.21.82v1.72l.2-.1c1.4-.74,2.43-1.3,3.33-.86l3.91-2.63a.52.52,0,0,0,.06-.16V8.7A2.06,2.06,0,0,0,22,7.26h0L14.66,2.63Z" transform="translate(0 0)" style="fill: #150035"/>
        </g>
        <g>
          <path d="M7.3,16.9s0,.24-.06.65l6.44,5.85a.59.59,0,0,0,.8.26l.06,0,9-6.06a2.14,2.14,0,0,0,.4-1V9.19a.26.26,0,0,0-.24-.27.28.28,0,0,0-.15,0l-9.11,6.11a.39.39,0,0,0-.08.1Z" transform="translate(0 0)" style="fill: #150035"/>
          <path d="M14.21,25a2,2,0,0,1-.43-.05,1.87,1.87,0,0,1-1.06-.7l-6.8-6.17.22-2.17L13.77,14l9.1-6.11a1.5,1.5,0,0,1,1.54-.08,1.54,1.54,0,0,1,.81,1.36v7.34a3.32,3.32,0,0,1-.66,1.8l-.3.29-9,6.05A1.86,1.86,0,0,1,14.21,25ZM9.28,17.71l5,4.56,8.33-5.6a.77.77,0,0,0,.07-.16V11.06L15.37,16l-.15.28Z" transform="translate(0 0)" style="fill: #150035"/>
        </g>
        <g>
          <path d="M13.12,23.94,5.55,19.16a3.2,3.2,0,0,1-1.22-2.51V8.82c0-1,.55-1.42,1.22-1l7.57,4.78a3.2,3.2,0,0,1,1.22,2.51v7.83C14.34,23.91,13.8,24.35,13.12,23.94Z" transform="translate(0 0)" style="fill: #ffb000"/>
          <path d="M13.61,25.35A2,2,0,0,1,12.46,25h0L4.88,20.22a4.42,4.42,0,0,1-1.81-3.57V8.82a2.39,2.39,0,0,1,1.1-2.18,2,2,0,0,1,2,.12l7.58,4.78a4.42,4.42,0,0,1,1.81,3.57V23a2.34,2.34,0,0,1-1.09,2.17A1.8,1.8,0,0,1,13.61,25.35Zm-8-16v7.32a2.06,2.06,0,0,0,.62,1.44l6.87,4.33V15.11a2.06,2.06,0,0,0-.62-1.44Z" transform="translate(0 0)" style="fill: #150035"/>
        </g>
      </g>
      <rect x="14.38" y="15.61" width="9.67" height="1.94" transform="translate(-5.94 13.14) rotate(-33.01)" style="fill: #ffb000"/>
    </g>
  </g>
</svg>
