<svg id="Layer_1" data-name="Layer 1" xmlns="http://www.w3.org/2000/svg" viewBox="0 0 120.52 85.13">
  <g>
    <g>
      <path d="M18.73,70.65,16.8,71.77a.86.86,0,0,1-.78,0l-1.82-1c-.23-.13-.25-.33-.06-.45l1.94-1.11a.84.84,0,0,1,.77,0l1.83,1C18.91,70.33,18.93,70.53,18.73,70.65Z" transform="translate(0 -0.01)" style="fill: #150035"/>
      <path d="M18.49,76,16.56,77.1a.86.86,0,0,1-.78,0L14,76c-.23-.13-.25-.33-.06-.45l1.94-1.11a.81.81,0,0,1,.77,0l1.83,1.05C18.67,75.67,18.69,75.87,18.49,76Z" transform="translate(0 -0.01)" style="fill: #150035"/>
      <path d="M23.24,73.25,21.3,74.37a.84.84,0,0,1-.77,0l-1.83-1c-.23-.13-.25-.33-.05-.45l1.93-1.11a.86.86,0,0,1,.78,0l1.82,1C23.41,72.93,23.44,73.13,23.24,73.25Z" transform="translate(0 -0.01)" style="fill: #150035"/>
      <path d="M23,78.59,21.06,79.7a.81.81,0,0,1-.77,0l-1.83-1c-.23-.13-.25-.33-.05-.45l1.93-1.11a.86.86,0,0,1,.78,0l1.82,1C23.17,78.27,23.19,78.47,23,78.59Z" transform="translate(0 -0.01)" style="fill: #150035"/>
      <path d="M27.74,75.85,25.8,77a.84.84,0,0,1-.77,0l-1.82-1.05c-.23-.13-.26-.33-.06-.45l1.93-1.11a.86.86,0,0,1,.78,0l1.82,1.05C27.91,75.53,27.94,75.73,27.74,75.85Z" transform="translate(0 -0.01)" style="fill: #150035"/>
      <path d="M27.76,81.34l-1.94,1.11a.81.81,0,0,1-.77,0l-1.82-1c-.23-.13-.26-.33-.06-.45l1.94-1.11a.84.84,0,0,1,.77,0l1.82,1C27.93,81,28,81.22,27.76,81.34Z" transform="translate(0 -0.01)" style="fill: #150035"/>
      <path d="M32.51,78.6l-1.94,1.12a.84.84,0,0,1-.77,0L28,78.63c-.23-.13-.25-.33,0-.45l1.93-1.11a.86.86,0,0,1,.78,0l1.82,1.05C32.68,78.29,32.7,78.49,32.51,78.6Z" transform="translate(0 -0.01)" style="fill: #150035"/>
      <path d="M32.26,83.94l-1.93,1.11a.83.83,0,0,1-.78,0l-1.82-1c-.23-.13-.25-.33-.06-.45l1.94-1.11a.84.84,0,0,1,.77,0l1.83,1C32.44,83.62,32.46,83.82,32.26,83.94Z" transform="translate(0 -0.01)" style="fill: #150035"/>
      <path d="M5,62.7,3,63.82a.86.86,0,0,1-.78,0L.43,62.73C.2,62.6.18,62.4.37,62.28l1.94-1.11a.84.84,0,0,1,.77,0l1.83,1C5.14,62.39,5.16,62.59,5,62.7Z" transform="translate(0 -0.01)" style="fill: #150035"/>
      <path d="M4.72,68,2.79,69.15a.86.86,0,0,1-.78,0L.19,68.07c-.23-.13-.25-.33-.06-.45L2.07,66.5a.84.84,0,0,1,.77,0l1.83,1C4.9,67.72,4.92,67.92,4.72,68Z" transform="translate(0 -0.01)" style="fill: #150035"/>
      <path d="M9.47,65.3,7.53,66.41a.81.81,0,0,1-.77,0l-1.83-1c-.23-.13-.25-.33,0-.45l1.93-1.11a.86.86,0,0,1,.78,0l1.82,1C9.64,65,9.67,65.18,9.47,65.3Z" transform="translate(0 -0.01)" style="fill: #150035"/>
      <path d="M9.22,70.64,7.29,71.75a.86.86,0,0,1-.78,0l-1.82-1c-.23-.13-.25-.34-.06-.45L6.57,69.1a.84.84,0,0,1,.77,0l1.83,1C9.4,70.32,9.42,70.52,9.22,70.64Z" transform="translate(0 -0.01)" style="fill: #150035"/>
      <path d="M14,67.9,12,69a.81.81,0,0,1-.77,0l-1.82-1c-.23-.13-.26-.33-.06-.45l1.94-1.12a.84.84,0,0,1,.77,0l1.82,1C14.14,67.58,14.17,67.78,14,67.9Z" transform="translate(0 -0.01)" style="fill: #150035"/>
      <path d="M14,73.39,12.05,74.5a.81.81,0,0,1-.77,0l-1.82-1c-.23-.13-.26-.33-.06-.45l1.94-1.11a.81.81,0,0,1,.77,0l1.82,1C14.16,73.07,14.19,73.27,14,73.39Z" transform="translate(0 -0.01)" style="fill: #150035"/>
      <path d="M37,81.2l-1.94,1.11a.81.81,0,0,1-.77,0l-1.82-1c-.23-.13-.26-.33-.06-.45l1.93-1.11a.83.83,0,0,1,.78,0l1.82,1C37.18,80.89,37.21,81.09,37,81.2Z" transform="translate(0 -0.01)" style="fill: #150035"/>
      <path d="M41.75,78.46l-1.93,1.12a.86.86,0,0,1-.78,0l-1.82-1.05c-.23-.13-.26-.33-.06-.45l1.94-1.11a.87.87,0,0,1,.77,0L41.7,78C41.92,78.14,42,78.34,41.75,78.46Z" transform="translate(0 -0.01)" style="fill: #150035"/>
      <path d="M46.5,75.72l-1.94,1.12a.87.87,0,0,1-.77,0L42,75.75c-.23-.13-.25-.33-.05-.44l1.93-1.12a.89.89,0,0,1,.78,0l1.82,1C46.67,75.41,46.69,75.61,46.5,75.72Z" transform="translate(0 -0.01)" style="fill: #150035"/>
      <path d="M51.24,73,49.3,74.1a.87.87,0,0,1-.77,0L46.71,73c-.23-.13-.26-.33-.06-.44l1.94-1.12a.87.87,0,0,1,.77,0l1.82,1C51.41,72.67,51.44,72.87,51.24,73Z" transform="translate(0 -0.01)" style="fill: #150035"/>
      <path d="M56,70.24l-1.94,1.12a.87.87,0,0,1-.77,0l-1.83-1.06c-.23-.13-.25-.33-.05-.44l1.93-1.12a.89.89,0,0,1,.78,0l1.82,1.05C56.16,69.93,56.18,70.13,56,70.24Z" transform="translate(0 -0.01)" style="fill: #150035"/>
      <path d="M60.73,67.5,58.8,68.62a.89.89,0,0,1-.78,0l-1.82-1c-.23-.13-.26-.33-.06-.45L58.08,66a.87.87,0,0,1,.77,0l1.83,1.06C60.9,67.19,60.93,67.39,60.73,67.5Z" transform="translate(0 -0.01)" style="fill: #150035"/>
      <path d="M41.51,83.8l-1.94,1.12a.84.84,0,0,1-.77,0l-1.82-1c-.23-.13-.26-.33-.06-.45l1.94-1.11a.84.84,0,0,1,.77,0l1.82,1C41.68,83.48,41.71,83.68,41.51,83.8Z" transform="translate(0 -0.01)" style="fill: #150035"/>
      <path d="M46.26,81.06l-1.94,1.12a.84.84,0,0,1-.77,0l-1.83-1c-.23-.13-.25-.33,0-.45l1.93-1.11a.89.89,0,0,1,.78,0l1.82,1C46.43,80.75,46.45,80.94,46.26,81.06Z" transform="translate(0 -0.01)" style="fill: #150035"/>
      <path d="M51,78.32l-1.94,1.12a.87.87,0,0,1-.77,0l-1.83-1.06c-.22-.13-.25-.33-.05-.44l1.93-1.12a.89.89,0,0,1,.78,0l1.82,1.05C51.17,78,51.2,78.21,51,78.32Z" transform="translate(0 -0.01)" style="fill: #150035"/>
      <path d="M55.75,75.58,53.81,76.7a.87.87,0,0,1-.77,0l-1.83-1.06c-.23-.13-.25-.33-.05-.44l1.93-1.12a.89.89,0,0,1,.78,0l1.82,1C55.92,75.27,56,75.47,55.75,75.58Z" transform="translate(0 -0.01)" style="fill: #150035"/>
      <path d="M60.49,72.84,58.55,74a.87.87,0,0,1-.77,0L56,72.88c-.23-.14-.25-.34-.05-.45l1.93-1.12a.89.89,0,0,1,.78,0l1.82,1.06C60.66,72.53,60.69,72.73,60.49,72.84Z" transform="translate(0 -0.01)" style="fill: #150035"/>
      <path d="M65.59,64.74l-1.93,1.12a.86.86,0,0,1-.78,0l-1.82-1c-.23-.13-.26-.33-.06-.45l1.94-1.11a.87.87,0,0,1,.77,0l1.83,1.05C65.76,64.43,65.79,64.62,65.59,64.74Z" transform="translate(0 -0.01)" style="fill: #150035"/>
      <path d="M70.34,62,68.4,63.12a.84.84,0,0,1-.77,0L65.8,62c-.23-.13-.25-.33,0-.45l1.93-1.11a.89.89,0,0,1,.78,0l1.82,1C70.51,61.68,70.54,61.88,70.34,62Z" transform="translate(0 -0.01)" style="fill: #150035"/>
      <path d="M65.35,70.08,63.42,71.2a.86.86,0,0,1-.78,0l-1.82-1c-.23-.13-.26-.33-.06-.45l1.94-1.11a.84.84,0,0,1,.77,0l1.82,1C65.52,69.76,65.55,70,65.35,70.08Z" transform="translate(0 -0.01)" style="fill: #150035"/>
      <path d="M70.1,67.34l-1.94,1.12a.84.84,0,0,1-.77,0l-1.83-1c-.23-.13-.25-.33,0-.45l1.93-1.11a.89.89,0,0,1,.78,0l1.82,1C70.27,67,70.29,67.23,70.1,67.34Z" transform="translate(0 -0.01)" style="fill: #150035"/>
    </g>
    <g>
      <path d="M33,33,31.1,34.1a.86.86,0,0,1-.78,0L28.5,33c-.23-.13-.26-.33-.06-.45l1.94-1.11a.87.87,0,0,1,.77,0L33,32.53C33.21,32.66,33.23,32.86,33,33Z" transform="translate(0 -0.01)" style="fill: #150035"/>
      <path d="M32.79,38.32l-1.93,1.12a.86.86,0,0,1-.78,0l-1.82-1C28,38.22,28,38,28.2,37.9l1.94-1.11a.84.84,0,0,1,.77,0l1.82,1C33,38,33,38.2,32.79,38.32Z" transform="translate(0 -0.01)" style="fill: #150035"/>
      <path d="M37.54,35.58,35.6,36.7a.87.87,0,0,1-.77,0L33,35.62c-.23-.14-.25-.34,0-.45l1.93-1.12a.89.89,0,0,1,.78,0l1.82,1.06C37.71,35.26,37.73,35.46,37.54,35.58Z" transform="translate(0 -0.01)" style="fill: #150035"/>
      <path d="M37.29,40.92,35.36,42a.86.86,0,0,1-.78,0l-1.82-1c-.23-.13-.25-.33-.06-.45l1.94-1.11a.84.84,0,0,1,.77,0l1.83,1C37.47,40.6,37.49,40.8,37.29,40.92Z" transform="translate(0 -0.01)" style="fill: #150035"/>
      <path d="M42,38.18,40.1,39.3a.84.84,0,0,1-.77,0l-1.82-1c-.23-.13-.26-.33-.06-.45l1.93-1.11a.89.89,0,0,1,.78,0l1.82,1C42.21,37.86,42.24,38.06,42,38.18Z" transform="translate(0 -0.01)" style="fill: #150035"/>
      <path d="M42.06,43.67l-1.94,1.12a.84.84,0,0,1-.77,0l-1.83-1c-.22-.13-.25-.33-.05-.45l1.93-1.11a.89.89,0,0,1,.78,0l1.82,1C42.23,43.35,42.26,43.55,42.06,43.67Z" transform="translate(0 -0.01)" style="fill: #150035"/>
      <path d="M46.8,40.93l-1.93,1.12a.86.86,0,0,1-.78,0l-1.82-1c-.23-.13-.25-.33-.06-.45l1.94-1.11a.87.87,0,0,1,.77,0l1.83,1C47,40.61,47,40.81,46.8,40.93Z" transform="translate(0 -0.01)" style="fill: #150035"/>
      <path d="M46.56,46.27l-1.93,1.12a.86.86,0,0,1-.78,0L42,46.3c-.23-.13-.26-.33-.06-.45l1.94-1.11a.84.84,0,0,1,.77,0l1.83,1C46.73,46,46.76,46.15,46.56,46.27Z" transform="translate(0 -0.01)" style="fill: #150035"/>
      <path d="M19.26,25l-1.93,1.12a.86.86,0,0,1-.78,0l-1.82-1.05c-.23-.13-.26-.33-.06-.45l1.94-1.11a.87.87,0,0,1,.77,0l1.83,1C19.43,24.71,19.46,24.91,19.26,25Z" transform="translate(0 -0.01)" style="fill: #150035"/>
      <path d="M19,30.37l-1.94,1.12a.84.84,0,0,1-.77,0L14.49,30.4c-.23-.13-.26-.33-.06-.45l1.94-1.11a.84.84,0,0,1,.77,0L19,29.92C19.19,30.05,19.22,30.25,19,30.37Z" transform="translate(0 -0.01)" style="fill: #150035"/>
      <path d="M23.76,27.63l-1.93,1.12a.84.84,0,0,1-.77,0l-1.83-1.05c-.23-.13-.25-.33-.05-.45l1.93-1.11a.84.84,0,0,1,.77,0l1.83,1.05C23.94,27.31,24,27.51,23.76,27.63Z" transform="translate(0 -0.01)" style="fill: #150035"/>
      <path d="M23.52,33l-1.93,1.11a.83.83,0,0,1-.78,0L19,33c-.23-.13-.26-.33-.06-.45l1.94-1.12a.84.84,0,0,1,.77,0l1.82,1.05C23.7,32.65,23.72,32.85,23.52,33Z" transform="translate(0 -0.01)" style="fill: #150035"/>
      <path d="M28.27,30.23l-1.94,1.12a.84.84,0,0,1-.77,0l-1.83-1c-.23-.13-.25-.33-.05-.45l1.93-1.11a.89.89,0,0,1,.78,0l1.82,1.05C28.44,29.92,28.46,30.12,28.27,30.23Z" transform="translate(0 -0.01)" style="fill: #150035"/>
      <path d="M28.29,35.72l-1.94,1.12a.84.84,0,0,1-.77,0l-1.82-1c-.23-.13-.26-.33-.06-.45l1.93-1.11a.89.89,0,0,1,.78,0l1.82,1.05C28.46,35.4,28.49,35.6,28.29,35.72Z" transform="translate(0 -0.01)" style="fill: #150035"/>
      <path d="M51.31,43.53l-1.94,1.12a.87.87,0,0,1-.77,0l-1.83-1.06c-.23-.13-.25-.33-.05-.44L48.65,42a.89.89,0,0,1,.78,0l1.82,1C51.48,43.22,51.5,43.42,51.31,43.53Z" transform="translate(0 -0.01)" style="fill: #150035"/>
      <path d="M56.05,40.79l-1.94,1.12a.87.87,0,0,1-.77,0l-1.82-1.06c-.23-.13-.26-.33-.06-.44l1.93-1.12a.89.89,0,0,1,.78,0L56,40.34C56.22,40.48,56.25,40.68,56.05,40.79Z" transform="translate(0 -0.01)" style="fill: #150035"/>
      <path d="M60.79,38.06l-1.93,1.11a.86.86,0,0,1-.78,0l-1.82-1c-.23-.13-.25-.34-.06-.45l1.94-1.12a.84.84,0,0,1,.77,0l1.83,1C61,37.74,61,37.94,60.79,38.06Z" transform="translate(0 -0.01)" style="fill: #150035"/>
      <path d="M65.54,35.31,63.6,36.43a.87.87,0,0,1-.77,0L61,35.34c-.22-.13-.25-.33,0-.44l1.93-1.12a.89.89,0,0,1,.78,0l1.82,1.06C65.71,35,65.74,35.2,65.54,35.31Z" transform="translate(0 -0.01)" style="fill: #150035"/>
      <path d="M55.81,46.13l-1.94,1.12a.84.84,0,0,1-.77,0l-1.82-1.05c-.23-.13-.26-.33-.06-.45l1.93-1.11a.86.86,0,0,1,.78,0l1.82,1C56,45.81,56,46,55.81,46.13Z" transform="translate(0 -0.01)" style="fill: #150035"/>
      <path d="M60.55,43.39l-1.93,1.12a.89.89,0,0,1-.78,0L56,43.42c-.23-.13-.26-.33-.06-.44l1.94-1.12a.87.87,0,0,1,.77,0l1.83,1C60.73,43.08,60.75,43.28,60.55,43.39Z" transform="translate(0 -0.01)" style="fill: #150035"/>
      <path d="M65.3,40.65l-1.94,1.12a.87.87,0,0,1-.77,0l-1.83-1.06c-.23-.13-.25-.33,0-.44l1.93-1.12a.89.89,0,0,1,.78,0l1.82,1.05C65.47,40.34,65.5,40.54,65.3,40.65Z" transform="translate(0 -0.01)" style="fill: #150035"/>
    </g>
    <g>
      <g>
        <g>
          <path d="M47.35,36.38,17.71,19.17a1.12,1.12,0,0,1-.66-1h0v-.07L17.14,9a.38.38,0,0,1,.39-.39l14.94-.13a.46.46,0,0,0,.2,0l-5,2.84a4.28,4.28,0,0,1,3.85-.17l14.88,8.76a.46.46,0,0,0,.2.05l14.87-.12a.4.4,0,0,1,.4.4h0l-.06,9.15a1.62,1.62,0,0,1-.93,1.19l-9.66,5.71A4.29,4.29,0,0,1,47.35,36.38Z" transform="translate(0 -0.01)" style="fill: #ffb000"/>
          <path d="M49,37.77a4.38,4.38,0,0,1-2.16-.51h0L17.21,20.05a2.09,2.09,0,0,1-1.16-1.95L16.13,9a1.43,1.43,0,0,1,1.4-1.4l14.94-.12a.61.61,0,0,0-.3.08l1,1.76h0l-1.39.79a1.51,1.51,0,0,1,.22.11l14.74,8.68,14.7-.12a1.42,1.42,0,0,1,1.43,1.42l-.06,9.15a2.62,2.62,0,0,1-1.44,2.06l-9.65,5.7A5.4,5.4,0,0,1,49,37.77ZM47.86,35.5a3.28,3.28,0,0,0,2.82-.17l9.66-5.7c.32-.19.42-.35.43-.4l.06-8.45-14.25.12a1.52,1.52,0,0,1-.72-.19L31,11.94a3.29,3.29,0,0,0-2.76.15l-.07,0-1-1.75.09,0,1.44-.82-10.51.08-.08,8.51c0,.09,0,.14.15.2Z" transform="translate(0 -0.01)" style="fill: #150035"/>
        </g>
        <g>
          <path d="M48.27,19.76s13,0,13,0a.51.51,0,0,1,.52.51h0l-.06,9a1.62,1.62,0,0,1-.93,1.19l-9.47,5.6a.14.14,0,0,1-.17,0,.15.15,0,0,1,0-.07l.08-9.45v0h0C50.14,23.52,48.27,19.76,48.27,19.76Z" transform="translate(0 -0.01)" style="fill: #150035"/>
          <path d="M51.38,37.27l-.63-.3a1.14,1.14,0,0,1-.57-1l.08-9.31c-1.12-2.88-2.88-6.43-2.9-6.47l-.52-1.05L48,18.79c.19-.06.18-.07,13.36-.05h0a1.53,1.53,0,0,1,1.53,1.54h0l-.06,9a2.61,2.61,0,0,1-1.44,2.06Zm.91-10.44-.07,7.59,8.12-4.79c.32-.19.42-.36.43-.4l.06-8.47H49.89c.65,1.39,1.63,3.52,2.35,5.4l.18.47Z" transform="translate(0 -0.01)" style="fill: #150035"/>
        </g>
        <g>
          <path d="M61.21,18.6,31.57,1.4a4.23,4.23,0,0,0-3.84.17L18.07,7.28c-1.14.66-1.26,1.65-.27,2.22L47.44,26.71a4.26,4.26,0,0,0,3.84-.18l9.66-5.7C62.07,20.16,62.19,19.17,61.21,18.6Z" transform="translate(0 -0.01)" style="fill: #fff"/>
          <path d="M49.1,28.1a4.3,4.3,0,0,1-2.17-.52L17.29,10.37a2.13,2.13,0,0,1-1.18-1.83A2.55,2.55,0,0,1,17.56,6.4L27.21.7A5.22,5.22,0,0,1,32.07.52L61.71,17.73a2.15,2.15,0,0,1,1.18,1.84,2.56,2.56,0,0,1-1.44,2.14l-9.66,5.7A5.39,5.39,0,0,1,49.1,28.1ZM18.15,8.53l.15.09L47.94,25.83a3.34,3.34,0,0,0,2.83-.17L60.42,20a1.06,1.06,0,0,0,.43-.38l-.15-.09h0L31.06,2.28a3.34,3.34,0,0,0-2.83.17l-9.65,5.7a1.06,1.06,0,0,0-.43.38Z" transform="translate(0 -0.01)" style="fill: #150035"/>
        </g>
        <rect x="18.62" y="16.59" width="9.41" height="2.03" transform="translate(5.03 40.38) rotate(-88.28)" style="fill: #150035"/>
        <rect x="49.38" y="29.3" width="8.21" height="1.56" transform="translate(22.57 83.09) rotate(-89.11)" style="fill: #ffb000"/>
      </g>
      <g>
        <g>
          <path d="M33.32,73.84,3.68,56.63a1.12,1.12,0,0,1-.66-1H3v-.07l.09-9.11A.41.41,0,0,1,3.5,46l14.94-.12a.46.46,0,0,0,.2,0l14.6-8.26a4.28,4.28,0,0,1,3.85-.17L52,46.19a.46.46,0,0,0,.2.05l14.88-.12a.4.4,0,0,1,.4.4h0l-.07,9.15a1.61,1.61,0,0,1-.92,1.19L37.17,73.66A4.32,4.32,0,0,1,33.32,73.84Z" transform="translate(0 -0.01)" style="fill: #ffb000"/>
          <path d="M35,75.23a4.35,4.35,0,0,1-2.17-.52h0L3.18,57.51A2.12,2.12,0,0,1,2,55.56l.09-9.14A1.42,1.42,0,0,1,3.5,45l14.78-.12,14.46-8.18a5.23,5.23,0,0,1,4.85-.17l14.74,8.68L67,45.1h0a1.42,1.42,0,0,1,1.42,1.41v0l-.06,9.15A2.64,2.64,0,0,1,67,57.74l-29.3,16.8A5.35,5.35,0,0,1,35,75.23ZM33.82,73a3.31,3.31,0,0,0,2.83-.17L66,56c.32-.18.42-.35.43-.39l.05-8.46-14.25.12a1.4,1.4,0,0,1-.72-.18L36.57,38.3a3.32,3.32,0,0,0-2.82.18L19.14,46.74a1.43,1.43,0,0,1-.67.18L4.12,47,4,55.55c0,.08,0,.13.15.2Z" transform="translate(0 -0.01)" style="fill: #150035"/>
        </g>
        <g>
          <path d="M53.88,46.12h13a.53.53,0,0,1,.53.51h0l-.06,9a1.64,1.64,0,0,1-.93,1.19L37.35,73.56a.14.14,0,0,1-.17,0,.13.13,0,0,1,0-.06L37.25,64v0h0C36.11,61,53.88,46.12,53.88,46.12Z" transform="translate(0 -0.01)" style="fill: #150035"/>
          <path d="M37.34,74.73l-.63-.3a1.12,1.12,0,0,1-.55-1L36.24,64c-.44-3.5,10.36-13.14,17-18.68l.33-.19c.19-.06.19-.06,13.37,0h0a1.55,1.55,0,0,1,1.53,1.54h0l-.06,9A2.61,2.61,0,0,1,67,57.74Zm.92-10.45L38.2,71.9,66,56c.32-.18.42-.35.43-.39l.05-8.46c-3.42,0-10.53,0-12.18,0-7.86,6.61-16.16,14.74-16,16.54l.16.41Z" transform="translate(0 -0.01)" style="fill: #150035"/>
        </g>
        <g>
          <path d="M66.81,45,37.17,27.76a4.23,4.23,0,0,0-3.84.17L4,44.73c-1.14.66-1.26,1.66-.27,2.22L33.4,64.16A4.31,4.31,0,0,0,37.25,64l29.29-16.8C67.68,46.52,67.8,45.53,66.81,45Z" transform="translate(0 -0.01)" style="fill: #fff"/>
          <path d="M35.07,65.56A4.39,4.39,0,0,1,32.91,65L3.26,47.83A2.14,2.14,0,0,1,2.09,46a2.58,2.58,0,0,1,1.44-2.15l29.3-16.8a5.23,5.23,0,0,1,4.85-.17L67.32,44.09a2.15,2.15,0,0,1,1.18,1.84,2.56,2.56,0,0,1-1.44,2.14l-29.3,16.8A5.5,5.5,0,0,1,35.07,65.56ZM4.13,46l.15.09L33.92,63.29a3.32,3.32,0,0,0,2.82-.18L66,46.31a1,1,0,0,0,.43-.37s-.07,0-.16-.09h0L36.67,28.64a3.31,3.31,0,0,0-2.83.17L4.54,45.61a1.18,1.18,0,0,0-.42.38Z" transform="translate(0 -0.01)" style="fill: #150035"/>
        </g>
        <rect x="4.59" y="54.04" width="9.41" height="2.03" transform="translate(-46.02 62.69) rotate(-88.28)" style="fill: #150035"/>
        <rect x="54.99" y="55.66" width="8.21" height="1.56" transform="translate(1.73 114.64) rotate(-89.1)" style="fill: #ffb000"/>
      </g>
      <g>
        <g>
          <path d="M55.67,51.49,49.1,47.64a.63.63,0,0,0-.72,0l-8,5a.33.33,0,0,0-.1.44L48,61.28a.29.29,0,0,1,0,.16v2.67c0,.78,3.13-1.47,3.71-1.13h0a.43.43,0,0,1,.12.11l-3.94,2.46a.32.32,0,0,0,.44.11h0l8-5a1.54,1.54,0,0,0,.35-.84V53.51A2.49,2.49,0,0,0,55.67,51.49Z" transform="translate(0 -0.01)" style="fill: #fff"/>
          <path d="M48.2,66.71a1.55,1.55,0,0,1-.31,0,1.34,1.34,0,0,1-.83-.62l-.51-.85.59-.37,0,0-.06-.7V61.72l-7.61-8.18a1.34,1.34,0,0,1,.44-1.82l8-5a1.69,1.69,0,0,1,1.76,0l6.57,3.86a3.55,3.55,0,0,1,1.57,2.9v6.31a2.67,2.67,0,0,1-.58,1.48l-.25.22-8,5A1.36,1.36,0,0,1,48.2,66.71ZM41.65,53l7.22,7.77a1.37,1.37,0,0,1,.19.68v1.45l.31-.16c1.21-.6,2.1-1,2.83-.66l3.47-2.16a.61.61,0,0,0,0-.12V53.51a1.62,1.62,0,0,0-.55-1.15h0l-6.44-3.77Z" transform="translate(0 -0.01)" style="fill: #150035"/>
        </g>
        <g>
          <path d="M42.34,60.12s0,.19-.06.52l5.59,4.72a.54.54,0,0,0,.74.18h0l7.82-4.88a1.54,1.54,0,0,0,.35-.84V53.9a.22.22,0,0,0-.22-.22.2.2,0,0,0-.11,0l-7.91,4.93a.18.18,0,0,0-.07.08Z" transform="translate(0 -0.01)" style="fill: #150035"/>
          <path d="M48.34,66.63a1.55,1.55,0,0,1-.37,0,1.52,1.52,0,0,1-.84-.54l-5.91-5,.19-1.78L48,57.78l7.89-4.93a1.24,1.24,0,0,1,1.7.4,1.22,1.22,0,0,1,.18.65v5.92a2.58,2.58,0,0,1-.57,1.48l-.25.22L49.15,66.4A1.53,1.53,0,0,1,48.34,66.63ZM44,60.78l4.39,3.7,7.33-4.57a.61.61,0,0,0,.05-.12V55.34L49.25,59.4l-.12.21Z" transform="translate(0 -0.01)" style="fill: #150035"/>
        </g>
        <g>
          <path d="M47.39,65.78l-6.57-3.85a2.52,2.52,0,0,1-1.06-2V53.6c0-.78.47-1.14,1.06-.8l6.57,3.85a2.57,2.57,0,0,1,1.06,2V65C48.45,65.76,48,66.12,47.39,65.78Z" transform="translate(0 -0.01)" style="fill: #ffb000"/>
          <path d="M47.81,66.93a1.9,1.9,0,0,1-.93-.27h0L40.3,62.81a3.57,3.57,0,0,1-1.56-2.9V53.6a1.93,1.93,0,0,1,.87-1.73,1.67,1.67,0,0,1,1.71.05l6.58,3.86a3.55,3.55,0,0,1,1.56,2.9V65a1.92,1.92,0,0,1-.87,1.73A1.55,1.55,0,0,1,47.81,66.93Zm.09-2-.51.87.52-.87ZM40.79,54l0,5.95a1.64,1.64,0,0,0,.55,1.15l6.1,3.57,0-6a1.62,1.62,0,0,0-.55-1.14Z" transform="translate(0 -0.01)" style="fill: #150035"/>
        </g>
        <rect x="48.56" y="59.08" width="8.21" height="1.56" transform="translate(-23.32 35.7) rotate(-31.02)" style="fill: #ffb000"/>
      </g>
    </g>
    <g>
      <g>
        <path d="M103,58.65l-1.8,1.11a.74.74,0,0,1-.72,0l-1.69-1c-.21-.13-.23-.33,0-.45l1.8-1.12a.74.74,0,0,1,.72,0l1.69,1.05C103.15,58.33,103.17,58.53,103,58.65Z" transform="translate(0 -0.01)" style="fill: #150035"/>
        <path d="M103,64.14l-1.8,1.11a.74.74,0,0,1-.72,0l-1.69-1c-.21-.13-.23-.33-.05-.45l1.8-1.12a.74.74,0,0,1,.72,0l1.69,1C103.16,63.82,103.19,64,103,64.14Z" transform="translate(0 -0.01)" style="fill: #150035"/>
        <path d="M107.41,61.4l-1.8,1.11a.74.74,0,0,1-.72,0l-1.7-1c-.21-.13-.23-.33,0-.45l1.8-1.11a.71.71,0,0,1,.72,0l1.7,1.05C107.57,61.08,107.59,61.28,107.41,61.4Z" transform="translate(0 -0.01)" style="fill: #150035"/>
        <path d="M107.18,66.74l-1.8,1.11a.77.77,0,0,1-.72,0l-1.69-1c-.21-.13-.23-.34,0-.45l1.8-1.12a.77.77,0,0,1,.72,0l1.69,1.06C107.35,66.42,107.37,66.62,107.18,66.74Z" transform="translate(0 -0.01)" style="fill: #150035"/>
        <path d="M111.59,64l-1.8,1.11a.74.74,0,0,1-.72,0l-1.69-1c-.22-.13-.24-.33-.06-.45l1.8-1.12a.74.74,0,0,1,.72,0l1.7,1C111.75,63.68,111.78,63.88,111.59,64Z" transform="translate(0 -0.01)" style="fill: #150035"/>
        <path d="M116,61.26l-1.8,1.11a.71.71,0,0,1-.72,0l-1.69-1.05c-.22-.13-.24-.33,0-.45l1.8-1.11a.74.74,0,0,1,.72,0l1.69,1.05C116.15,60.94,116.18,61.14,116,61.26Z" transform="translate(0 -0.01)" style="fill: #150035"/>
        <path d="M120.4,58.52l-1.8,1.12a.74.74,0,0,1-.72,0l-1.69-1.05c-.22-.13-.24-.33-.06-.45L117.94,57a.72.72,0,0,1,.71,0l1.7,1C120.56,58.2,120.58,58.4,120.4,58.52Z" transform="translate(0 -0.01)" style="fill: #150035"/>
        <path d="M115.77,66.6,114,67.71a.74.74,0,0,1-.72,0l-1.69-1.05c-.22-.13-.24-.34-.06-.45l1.81-1.12a.72.72,0,0,1,.71,0l1.7,1.05C115.93,66.28,116,66.48,115.77,66.6Z" transform="translate(0 -0.01)" style="fill: #150035"/>
        <path d="M120.18,63.86,118.37,65a.7.7,0,0,1-.71,0l-1.7-1c-.21-.13-.23-.33,0-.45l1.8-1.11a.74.74,0,0,1,.72,0l1.69,1C120.34,63.54,120.36,63.74,120.18,63.86Z" transform="translate(0 -0.01)" style="fill: #150035"/>
      </g>
      <g>
        <g>
          <path d="M116.87,44.11l-6.1-3.84a.56.56,0,0,0-.67,0l-7.42,5a.34.34,0,0,0-.1.44l7.16,8.26a.32.32,0,0,1,0,.16v2.67c0,.78,2.9-1.47,3.45-1.13h0a.35.35,0,0,1,.1.11l-3.65,2.46a.28.28,0,0,0,.38.12l0,0,7.44-5a1.73,1.73,0,0,0,.32-.84V46.14A2.6,2.6,0,0,0,116.87,44.11Z" transform="translate(0 -0.01)" style="fill: #fff"/>
          <path d="M109.93,59.34a1.3,1.3,0,0,1-1.14-.67l-.45-.82.54-.36,0,0-.06-.72v-2.4l-7.08-8.2a1.36,1.36,0,0,1,.42-1.77l7.42-5a1.57,1.57,0,0,1,1.77,0l6.11,3.85a3.55,3.55,0,0,1,1.45,2.88v6.31a2.57,2.57,0,0,1-.53,1.45l-.24.23-7.44,5A1.22,1.22,0,0,1,109.93,59.34Zm-6-13.72,6.73,7.81a1.29,1.29,0,0,1,.16.64v1.39l.16-.08c1.13-.6,2-1,2.68-.7l3.15-2.12a.52.52,0,0,0,.06-.13v-6.3a1.71,1.71,0,0,0-.5-1.16h0l-5.91-3.73Z" transform="translate(0 -0.01)" style="fill: #150035"/>
        </g>
        <g>
          <path d="M104.48,52.74l0,.53L109.62,58a.47.47,0,0,0,.64.21.05.05,0,0,0,0,0l7.27-4.87a1.73,1.73,0,0,0,.32-.84V46.53a.2.2,0,0,0-.18-.22.28.28,0,0,0-.13,0l-7.34,4.93a.27.27,0,0,0-.07.08Z" transform="translate(0 -0.01)" style="fill: #150035"/>
          <path d="M110.05,59.26a1.39,1.39,0,0,1-.35,0,1.51,1.51,0,0,1-.85-.57l-5.48-5,.17-1.75,6.15-1.5L117,45.51a1.2,1.2,0,0,1,1.24-.06,1.23,1.23,0,0,1,.65,1.09v5.92a2.65,2.65,0,0,1-.53,1.45l-.24.23L110.88,59A1.47,1.47,0,0,1,110.05,59.26Zm-4-5.86,4,3.67,6.71-4.51a.5.5,0,0,0,0-.13V48L111,52l-.12.22Z" transform="translate(0 -0.01)" style="fill: #150035"/>
        </g>
        <g>
          <path d="M109.18,58.41l-6.1-3.85a2.61,2.61,0,0,1-1-2V46.23c0-.78.44-1.14,1-.8l6.1,3.85a2.6,2.6,0,0,1,1,2v6.31C110.16,58.39,109.72,58.75,109.18,58.41Z" transform="translate(0 -0.01)" style="fill: #ffb000"/>
          <path d="M109.56,59.55a1.69,1.69,0,0,1-.92-.28h0l-6.1-3.85a3.56,3.56,0,0,1-1.46-2.88V46.23a1.91,1.91,0,0,1,.88-1.75,1.6,1.6,0,0,1,1.65.09l6.11,3.85a3.56,3.56,0,0,1,1.46,2.88v6.31a1.93,1.93,0,0,1-.88,1.76A1.47,1.47,0,0,1,109.56,59.55Zm-6.46-12.9v5.89a1.67,1.67,0,0,0,.5,1.16l5.54,3.49V51.3a1.69,1.69,0,0,0-.5-1.16Z" transform="translate(0 -0.01)" style="fill: #150035"/>
        </g>
        <rect x="110.18" y="51.71" width="7.78" height="1.56" transform="translate(-10.2 70.5) rotate(-32.96)" style="fill: #ffb000"/>
      </g>
    </g>
  </g>
</svg>
