<svg id="Layer_1" data-name="Layer 1" xmlns="http://www.w3.org/2000/svg" viewBox="0 0 118.35 129.22">
  <g>
    <g>
      <g>
        <path d="M6,26.62,3.53,28.14a1,1,0,0,1-1,0L.24,26.66c-.29-.18-.32-.45-.07-.61l2.45-1.52a1,1,0,0,1,1,0L5.91,26C6.2,26.19,6.23,26.46,6,26.62Z" transform="translate(0 -0.01)" style="fill: #150035"/>
        <path d="M6,34.1,3.56,35.63a1,1,0,0,1-1-.05L.27,34.15C0,34-.06,33.69.2,33.54L2.65,32a1,1,0,0,1,1,.05l2.3,1.43C6.22,33.67,6.26,34,6,34.1Z" transform="translate(0 -0.01)" style="fill: #150035"/>
        <path d="M12,30.37,9.56,31.89a1,1,0,0,1-1,0L6.27,30.41C6,30.23,6,30,6.2,29.8l2.45-1.52a1,1,0,0,1,1,0l2.31,1.44C12.23,29.94,12.26,30.21,12,30.37Z" transform="translate(0 -0.01)" style="fill: #150035"/>
        <path d="M11.71,37.65,9.26,39.17a1,1,0,0,1-1,0L6,37.69c-.29-.18-.32-.45-.07-.61l2.45-1.52a1,1,0,0,1,1,0L11.64,37C11.93,37.22,12,37.49,11.71,37.65Z" transform="translate(0 -0.01)" style="fill: #150035"/>
        <path d="M17.71,33.91l-2.45,1.53a1,1,0,0,1-1,0L12,34c-.29-.18-.32-.46-.07-.61l2.45-1.53a1,1,0,0,1,1,.05l2.31,1.43C17.93,33.48,18,33.76,17.71,33.91Z" transform="translate(0 -0.01)" style="fill: #150035"/>
        <path d="M23.72,30.18,21.27,31.7a1,1,0,0,1-1,0L18,30.22c-.29-.18-.32-.45-.07-.61l2.45-1.52a1,1,0,0,1,1,0l2.31,1.44C23.94,29.75,24,30,23.72,30.18Z" transform="translate(0 -0.01)" style="fill: #150035"/>
        <path d="M29.73,26.44,27.28,28a1,1,0,0,1-1,0L24,26.49c-.29-.18-.33-.46-.07-.61l2.45-1.53a1,1,0,0,1,1,0l2.31,1.43C30,26,30,26.29,29.73,26.44Z" transform="translate(0 -0.01)" style="fill: #150035"/>
        <path d="M23.41,37.46,21,39a1,1,0,0,1-1,0L17.67,37.5c-.29-.18-.32-.45-.07-.61l2.45-1.52a1,1,0,0,1,1,0l2.31,1.44C23.63,37,23.67,37.3,23.41,37.46Z" transform="translate(0 -0.01)" style="fill: #150035"/>
        <path d="M29.42,33.72,27,35.25a1,1,0,0,1-1,0l-2.31-1.43c-.29-.18-.32-.46-.07-.61l2.45-1.53a1,1,0,0,1,1,.05l2.31,1.43C29.64,33.29,29.67,33.57,29.42,33.72Z" transform="translate(0 -0.01)" style="fill: #150035"/>
      </g>
      <g>
        <g>
          <path d="M24.91,6.8,16.58,1.55a.78.78,0,0,0-.9,0L5.56,8.3a.46.46,0,0,0-.13.59l9.76,11.27a.42.42,0,0,1,.05.22V24c0,1.06,4-2,4.7-1.54h0a.54.54,0,0,1,.15.15l-5,3.34a.37.37,0,0,0,.52.17l0,0,10.15-6.81a2.26,2.26,0,0,0,.44-1.14V9.56A3.58,3.58,0,0,0,24.91,6.8Z" transform="translate(0 -0.01)" style="fill: #fff"/>
          <path d="M15.45,27.57a1.84,1.84,0,0,1-.41-.05,1.76,1.76,0,0,1-1.14-.87l-.63-1.11L14,25,14,25l-.09-1V20.74L4.22,9.56a1.85,1.85,0,0,1,.56-2.4L14.91.37a2.13,2.13,0,0,1,2.4,0l8.33,5.26a4.86,4.86,0,0,1,2,3.93v8.6a3.62,3.62,0,0,1-.72,2l-.33.31L16.43,27.27A1.72,1.72,0,0,1,15.45,27.57ZM7.22,8.85l9.17,10.63a1.81,1.81,0,0,1,.24.9v1.89l.21-.11c1.54-.82,2.68-1.43,3.66-.95l4.3-2.88a1.07,1.07,0,0,0,.07-.19V9.56A2.25,2.25,0,0,0,24.18,8h0L16.12,2.89Z" transform="translate(0 -0.01)" style="fill: #150035"/>
        </g>
        <g>
          <path d="M8,18.57s0,.27-.07.72L15,25.72a.67.67,0,0,0,.88.28L16,26l9.91-6.65a2.26,2.26,0,0,0,.44-1.14V10.09a.28.28,0,0,0-.26-.29.32.32,0,0,0-.16,0l-10,6.72a.47.47,0,0,0-.1.1Z" transform="translate(0 -0.01)" style="fill: #150035"/>
          <path d="M15.61,27.45a2.42,2.42,0,0,1-.47-.05A2,2,0,0,1,14,26.62L6.51,19.84l.23-2.38,8.39-2.05,10-6.72a1.63,1.63,0,0,1,1.69-.08,1.66,1.66,0,0,1,.88,1.48v8.08a3.47,3.47,0,0,1-.72,2l-.33.32-9.91,6.65A2.05,2.05,0,0,1,15.61,27.45Zm-5.41-8,5.52,5,9.15-6.15a1,1,0,0,0,.07-.18v-6l-8.06,5.4-.16.31Z" transform="translate(0 -0.01)" style="fill: #150035"/>
        </g>
        <g>
          <path d="M14.42,26.3,6.1,21.05a3.5,3.5,0,0,1-1.34-2.76V9.69c0-1.07.6-1.55,1.34-1.09l8.32,5.25a3.54,3.54,0,0,1,1.34,2.75v8.61C15.76,26.27,15.16,26.76,14.42,26.3Z" transform="translate(0 -0.01)" style="fill: #ffb000"/>
          <path d="M15,27.86a2.37,2.37,0,0,1-1.26-.39h0L5.36,22.22a4.85,4.85,0,0,1-2-3.92V9.69A2.6,2.6,0,0,1,4.57,7.3a2.17,2.17,0,0,1,2.25.13l8.33,5.25a4.88,4.88,0,0,1,2,3.93v8.6a2.6,2.6,0,0,1-1.2,2.39A2,2,0,0,1,15,27.86ZM6.14,10.26v8a2.28,2.28,0,0,0,.69,1.59l7.54,4.76v-8A2.24,2.24,0,0,0,13.69,15Z" transform="translate(0 -0.01)" style="fill: #150035"/>
        </g>
        <rect x="15.79" y="17.16" width="10.62" height="2.13" transform="translate(-6.52 14.43) rotate(-33.01)" style="fill: #ffb000"/>
      </g>
    </g>
    <g>
      <g>
        <path d="M70.59,66.42,68,68a1.17,1.17,0,0,1-1.06,0l-2.48-1.43c-.32-.18-.35-.46-.08-.61L67,64.34a1.14,1.14,0,0,1,1,0l2.49,1.43C70.82,66,70.86,66.27,70.59,66.42Z" transform="translate(0 -0.01)" style="fill: #150035"/>
        <path d="M70.61,73.91,68,75.44a1.2,1.2,0,0,1-1.06,0L64.43,74c-.31-.18-.34-.46-.07-.61L67,71.82a1.18,1.18,0,0,1,1,.05l2.49,1.43C70.85,73.48,70.89,73.76,70.61,73.91Z" transform="translate(0 -0.01)" style="fill: #150035"/>
        <path d="M77.08,70.18,74.45,71.7a1.2,1.2,0,0,1-1.06,0L70.9,70.22c-.31-.18-.34-.45-.07-.61l2.64-1.52a1.15,1.15,0,0,1,1,0L77,69.57C77.32,69.75,77.35,70,77.08,70.18Z" transform="translate(0 -0.01)" style="fill: #150035"/>
        <path d="M76.76,77.46,74.12,79a1.2,1.2,0,0,1-1.06,0L70.57,77.5c-.31-.18-.34-.45-.07-.61l2.64-1.52a1.14,1.14,0,0,1,1,0l2.49,1.44C77,77,77,77.3,76.76,77.46Z" transform="translate(0 -0.01)" style="fill: #150035"/>
        <path d="M83.22,73.72l-2.63,1.52a1.17,1.17,0,0,1-1.06,0L77,73.76c-.31-.18-.34-.45-.07-.61l2.64-1.52a1.15,1.15,0,0,1,1,.05l2.49,1.43C83.46,73.29,83.49,73.56,83.22,73.72Z" transform="translate(0 -0.01)" style="fill: #150035"/>
        <path d="M89.69,70l-2.64,1.52a1.18,1.18,0,0,1-1,0L83.51,70c-.31-.18-.34-.45-.07-.61l2.64-1.52a1.15,1.15,0,0,1,1,0l2.49,1.44C89.93,69.56,90,69.83,89.69,70Z" transform="translate(0 -0.01)" style="fill: #150035"/>
        <path d="M96.16,66.25l-2.63,1.53a1.2,1.2,0,0,1-1.06,0L90,66.3c-.31-.18-.34-.46-.07-.61l2.64-1.53a1.18,1.18,0,0,1,1,0l2.49,1.43C96.4,65.82,96.43,66.1,96.16,66.25Z" transform="translate(0 -0.01)" style="fill: #150035"/>
        <path d="M89.36,77.27l-2.64,1.52a1.18,1.18,0,0,1-1,0l-2.49-1.44c-.31-.18-.34-.45-.07-.61l2.63-1.52a1.17,1.17,0,0,1,1.06,0l2.49,1.44C89.6,76.84,89.63,77.11,89.36,77.27Z" transform="translate(0 -0.01)" style="fill: #150035"/>
        <path d="M95.83,73.53,93.2,75.06a1.2,1.2,0,0,1-1.06,0l-2.49-1.43c-.31-.18-.34-.46-.07-.61l2.64-1.53a1.15,1.15,0,0,1,1,0l2.49,1.43C96.07,73.1,96.1,73.37,95.83,73.53Z" transform="translate(0 -0.01)" style="fill: #150035"/>
      </g>
      <g>
        <path d="M73.84,109.48,71.21,111a1.17,1.17,0,0,1-1.06,0l-2.49-1.44c-.31-.18-.34-.45-.07-.61l2.64-1.52a1.18,1.18,0,0,1,1,0l2.49,1.44C74.08,109.05,74.12,109.32,73.84,109.48Z" transform="translate(0 -0.01)" style="fill: #150035"/>
        <path d="M73.52,116.76l-2.64,1.52a1.17,1.17,0,0,1-1.06,0l-2.48-1.44c-.32-.18-.35-.45-.08-.6l2.64-1.53a1.15,1.15,0,0,1,1,0l2.49,1.43C73.75,116.33,73.79,116.6,73.52,116.76Z" transform="translate(0 -0.01)" style="fill: #150035"/>
        <path d="M80,113l-2.63,1.53a1.2,1.2,0,0,1-1.06,0l-2.49-1.43c-.31-.18-.34-.46-.07-.61l2.64-1.53a1.18,1.18,0,0,1,1,0l2.49,1.43C80.22,112.59,80.26,112.87,80,113Z" transform="translate(0 -0.01)" style="fill: #150035"/>
        <path d="M79.66,120.3,77,121.83a1.2,1.2,0,0,1-1.06,0l-2.48-1.43c-.32-.18-.35-.46-.08-.61L76,118.21a1.18,1.18,0,0,1,1,.05l2.49,1.43C79.89,119.87,79.93,120.15,79.66,120.3Z" transform="translate(0 -0.01)" style="fill: #150035"/>
        <path d="M86.13,116.57l-2.64,1.52a1.2,1.2,0,0,1-1.06,0L80,116.61c-.32-.18-.35-.45-.08-.61l2.64-1.52a1.18,1.18,0,0,1,1,0L86.05,116C86.36,116.14,86.4,116.41,86.13,116.57Z" transform="translate(0 -0.01)" style="fill: #150035"/>
        <path d="M86.15,124.05l-2.64,1.53a1.18,1.18,0,0,1-1.05,0L80,124.1c-.31-.18-.34-.46-.07-.61L82.53,122a1.17,1.17,0,0,1,1.06,0l2.49,1.43C86.39,123.63,86.42,123.9,86.15,124.05Z" transform="translate(0 -0.01)" style="fill: #150035"/>
        <path d="M92.62,120.32,90,121.84a1.14,1.14,0,0,1-1,0l-2.49-1.44c-.31-.18-.35-.45-.07-.61L89,118.23a1.2,1.2,0,0,1,1.06,0l2.49,1.44C92.86,119.89,92.89,120.16,92.62,120.32Z" transform="translate(0 -0.01)" style="fill: #150035"/>
        <path d="M92.29,127.6l-2.63,1.52a1.17,1.17,0,0,1-1.06,0l-2.49-1.44c-.31-.18-.34-.45-.07-.61l2.64-1.52a1.18,1.18,0,0,1,1,0L92.22,127C92.53,127.17,92.57,127.44,92.29,127.6Z" transform="translate(0 -0.01)" style="fill: #150035"/>
        <path d="M55.07,98.64l-2.64,1.52a1.2,1.2,0,0,1-1.06,0l-2.48-1.44c-.31-.18-.35-.45-.08-.61l2.64-1.52a1.17,1.17,0,0,1,1.06,0L55,98C55.3,98.21,55.34,98.48,55.07,98.64Z" transform="translate(0 -0.01)" style="fill: #150035"/>
        <path d="M54.74,105.92l-2.64,1.52a1.2,1.2,0,0,1-1.06,0L48.56,106c-.31-.18-.35-.45-.08-.61l2.64-1.52a1.17,1.17,0,0,1,1.06,0l2.48,1.44C55,105.49,55,105.76,54.74,105.92Z" transform="translate(0 -0.01)" style="fill: #150035"/>
        <path d="M61.21,102.18l-2.64,1.53a1.2,1.2,0,0,1-1.06,0L55,102.23c-.32-.18-.35-.46-.08-.61l2.64-1.53a1.18,1.18,0,0,1,1,0l2.49,1.43C61.44,101.75,61.48,102,61.21,102.18Z" transform="translate(0 -0.01)" style="fill: #150035"/>
        <path d="M60.88,109.46,58.24,111a1.18,1.18,0,0,1-1.05,0l-2.49-1.43c-.31-.18-.35-.46-.08-.61l2.64-1.53a1.2,1.2,0,0,1,1.06,0l2.48,1.43C61.12,109,61.15,109.31,60.88,109.46Z" transform="translate(0 -0.01)" style="fill: #150035"/>
        <path d="M67.35,105.73l-2.64,1.52a1.2,1.2,0,0,1-1.06,0l-2.48-1.44c-.32-.18-.35-.45-.08-.61l2.64-1.52a1.14,1.14,0,0,1,1.05,0l2.49,1.44C67.58,105.3,67.62,105.57,67.35,105.73Z" transform="translate(0 -0.01)" style="fill: #150035"/>
        <path d="M67.38,113.21l-2.64,1.53a1.2,1.2,0,0,1-1.06,0l-2.49-1.43c-.31-.18-.34-.46-.07-.61l2.64-1.53a1.18,1.18,0,0,1,1.05,0l2.49,1.43C67.61,112.78,67.65,113.06,67.38,113.21Z" transform="translate(0 -0.01)" style="fill: #150035"/>
        <path d="M98.76,123.86l-2.64,1.53a1.18,1.18,0,0,1-1.05,0l-2.49-1.43c-.31-.18-.34-.46-.07-.61l2.64-1.53a1.18,1.18,0,0,1,1,0l2.49,1.43C99,123.43,99,123.71,98.76,123.86Z" transform="translate(0 -0.01)" style="fill: #150035"/>
        <path d="M105.23,120.13l-2.64,1.53a1.18,1.18,0,0,1-1,0l-2.49-1.43c-.31-.18-.34-.46-.07-.61l2.63-1.53a1.2,1.2,0,0,1,1.06,0l2.49,1.43C105.47,119.7,105.5,120,105.23,120.13Z" transform="translate(0 -0.01)" style="fill: #150035"/>
        <path d="M111.7,116.39l-2.64,1.53a1.18,1.18,0,0,1-1,0l-2.49-1.43c-.31-.18-.35-.45-.08-.61l2.64-1.52a1.17,1.17,0,0,1,1.06,0l2.48,1.43C111.94,116,112,116.24,111.7,116.39Z" transform="translate(0 -0.01)" style="fill: #150035"/>
        <path d="M118.16,112.66l-2.63,1.52a1.2,1.2,0,0,1-1.06,0L112,112.7c-.31-.18-.34-.45-.07-.61l2.64-1.52a1.14,1.14,0,0,1,1,0l2.49,1.44C118.41,112.23,118.44,112.5,118.16,112.66Z" transform="translate(0 -0.01)" style="fill: #150035"/>
        <path d="M104.9,127.41l-2.64,1.52a1.14,1.14,0,0,1-1.05,0l-2.49-1.44c-.31-.18-.35-.45-.07-.61l2.63-1.52a1.2,1.2,0,0,1,1.06,0l2.49,1.44C105.14,127,105.17,127.26,104.9,127.41Z" transform="translate(0 -0.01)" style="fill: #150035"/>
        <path d="M111.37,123.67l-2.64,1.53a1.2,1.2,0,0,1-1.06,0l-2.48-1.43c-.32-.18-.35-.46-.08-.61l2.64-1.53a1.18,1.18,0,0,1,1,0l2.49,1.43C111.61,123.24,111.64,123.52,111.37,123.67Z" transform="translate(0 -0.01)" style="fill: #150035"/>
        <path d="M117.84,119.94l-2.64,1.52a1.14,1.14,0,0,1-1,0L111.66,120c-.31-.18-.34-.45-.07-.61l2.63-1.52a1.2,1.2,0,0,1,1.06,0l2.49,1.44C118.08,119.51,118.11,119.78,117.84,119.94Z" transform="translate(0 -0.01)" style="fill: #150035"/>
      </g>
      <g>
        <g>
          <g>
            <path d="M92.86,114.27,52.45,90.81a1.52,1.52,0,0,1-.9-1.39h0v-.09l.11-12.43a.54.54,0,0,1,.54-.54l20.37-.17a.5.5,0,0,0,.27-.07L66,80a5.82,5.82,0,0,1,5.25-.24L91.52,91.7a.5.5,0,0,0,.27.08l20.28-.17a.55.55,0,0,1,.55.54h0l-.08,12.49a2.26,2.26,0,0,1-1.27,1.62L98.1,114A5.83,5.83,0,0,1,92.86,114.27Z" transform="translate(0 -0.01)" style="fill: #ffb000"/>
            <path d="M95.13,116.18a6.09,6.09,0,0,1-3-.7h0L51.75,92a2.89,2.89,0,0,1-1.59-2.66l.12-12.45A1.93,1.93,0,0,1,52.19,75l20.37-.17a.79.79,0,0,0-.4.1l1.38,2.39,0,0-1.89,1.07.3.15L92,90.4l20-.17h0A1.92,1.92,0,0,1,114,92.15v0l-.08,12.48a3.56,3.56,0,0,1-2,2.8L98.8,115.23A7.49,7.49,0,0,1,95.13,116.18Zm-1.58-3.1a4.51,4.51,0,0,0,3.86-.24l13.16-7.78c.44-.26.58-.48.59-.54L111.24,93l-19.43.16a1.86,1.86,0,0,1-1-.25L70.53,81a4.48,4.48,0,0,0-3.77.2l-.1,0-1.37-2.4.12-.07,2-1.11L53,77.74l-.11,11.6c0,.11.06.18.21.27Z" transform="translate(0 -0.01)" style="fill: #150035"/>
          </g>
          <g>
            <path d="M94.12,91.61s17.79,0,17.79,0a.7.7,0,0,1,.71.7h0l-.08,12.32a2.25,2.25,0,0,1-1.27,1.62l-12.92,7.63a.15.15,0,0,1-.22-.06.11.11,0,0,1,0-.08l.12-12.89v0h0C96.67,96.74,94.12,91.61,94.12,91.61Z" transform="translate(0 -0.01)" style="fill: #150035"/>
            <path d="M98.35,115.5l-.87-.42a1.53,1.53,0,0,1-.76-1.35L96.83,101c-1.53-3.93-3.93-8.77-4-8.81l-.7-1.42,1.49-.51c.27-.09.27-.09,18.25-.07h0a2.08,2.08,0,0,1,2.08,2.1l-.08,12.32a3.58,3.58,0,0,1-2,2.8Zm1.25-14.22-.09,10.32,11.06-6.53c.44-.26.58-.49.59-.55L111.24,93H96.32c.89,1.89,2.23,4.8,3.21,7.36l.25.66Z" transform="translate(0 -0.01)" style="fill: #150035"/>
          </g>
          <g>
            <path d="M111.75,90,71.34,66.57a5.8,5.8,0,0,0-5.24.24L52.93,74.59c-1.55.9-1.72,2.26-.37,3L93,101.08a5.85,5.85,0,0,0,5.25-.23l13.17-7.78C112.94,92.16,113.1,90.81,111.75,90Z" transform="translate(0 -0.01)" style="fill: #fff"/>
            <path d="M95.24,103a5.84,5.84,0,0,1-2.95-.7L51.87,78.81a2.9,2.9,0,0,1-1.6-2.5,3.47,3.47,0,0,1,2-2.91L65.4,65.62A7.1,7.1,0,0,1,72,65.38l40.42,23.46a2.94,2.94,0,0,1,1.6,2.5,3.48,3.48,0,0,1-2,2.92L98.92,102A7.52,7.52,0,0,1,95.24,103ZM53,76.3a1.13,1.13,0,0,1,.21.12L93.66,99.89a4.54,4.54,0,0,0,3.86-.24l13.16-7.78a1.35,1.35,0,0,0,.59-.52h0a.82.82,0,0,1-.2-.12h0L70.65,67.77a4.54,4.54,0,0,0-3.86.23L53.63,75.78a1.56,1.56,0,0,0-.59.52Z" transform="translate(0 -0.01)" style="fill: #150035"/>
          </g>
          <rect x="53.68" y="87.29" width="12.84" height="2.76" transform="translate(-30.34 146.07) rotate(-88.28)" style="fill: #150035"/>
          <rect x="95.63" y="104.62" width="11.2" height="2.13" transform="translate(-5.93 205.35) rotate(-89.16)" style="fill: #ffb000"/>
        </g>
        <g>
          <g>
            <path d="M81.74,52.94l-9-5.25a.89.89,0,0,0-1,0L60.91,54.44a.42.42,0,0,0-.15.58L71.28,66.29a.46.46,0,0,1,.06.22v3.64c0,1.06,4.26-2,5-1.54h0a.46.46,0,0,1,.16.15l-5.37,3.35a.45.45,0,0,0,.6.15h0l10.93-6.81a2.16,2.16,0,0,0,.48-1.14V55.69A3.47,3.47,0,0,0,81.74,52.94Z" transform="translate(0 -0.01)" style="fill: #fff"/>
            <path d="M71.55,73.7A1.81,1.81,0,0,1,70,72.82l-.7-1.17.81-.5-.07,0-.09-1V66.91L59.58,55.73a1.8,1.8,0,0,1,.59-2.46l10.9-6.8a2.28,2.28,0,0,1,2.4,0l9,5.25a4.86,4.86,0,0,1,2.13,3.95V64.3a3.48,3.48,0,0,1-.79,2l-.34.3L72.51,73.43A1.81,1.81,0,0,1,71.55,73.7ZM62.63,55l9.82,10.57a1.8,1.8,0,0,1,.27,1v2l.43-.21c1.65-.82,2.86-1.41,3.86-.9l4.73-3a1.11,1.11,0,0,0,.07-.16V55.69a2.14,2.14,0,0,0-.75-1.56h0L72.27,49Z" transform="translate(0 -0.01)" style="fill: #150035"/>
          </g>
          <g>
            <path d="M63.56,64.7l-.08.72,7.63,6.43a.73.73,0,0,0,1,.25h0l10.67-6.65a2.14,2.14,0,0,0,.47-1.14V56.23a.3.3,0,0,0-.3-.3.38.38,0,0,0-.15,0L72,62.7a.24.24,0,0,0-.1.1Z" transform="translate(0 -0.01)" style="fill: #150035"/>
            <path d="M71.74,73.59a2.13,2.13,0,0,1-1.66-.8L62,66l.27-2.44,9-2L82.08,54.8a1.67,1.67,0,0,1,2.31.54,1.74,1.74,0,0,1,.26.89V64.3a3.49,3.49,0,0,1-.8,2l-.33.3L72.85,73.27A2.1,2.1,0,0,1,71.74,73.59Zm-5.9-8,6,5.05,10-6.23a1.19,1.19,0,0,0,.08-.16V58.18L73,63.71l-.16.3Z" transform="translate(0 -0.01)" style="fill: #150035"/>
          </g>
          <g>
            <path d="M70.45,72.43l-9-5.25A3.45,3.45,0,0,1,60,64.43V55.82c0-1.06.65-1.55,1.44-1.09l9,5.25a3.47,3.47,0,0,1,1.44,2.76v8.6C71.89,72.41,71.24,72.89,70.45,72.43Z" transform="translate(0 -0.01)" style="fill: #ffb000"/>
            <path d="M71,74a2.59,2.59,0,0,1-1.27-.36h0l-9-5.25a4.85,4.85,0,0,1-2.12-3.95V55.82a2.58,2.58,0,0,1,1.19-2.36,2.27,2.27,0,0,1,2.32.08l9,5.25a4.82,4.82,0,0,1,2.13,4v8.61a2.61,2.61,0,0,1-1.19,2.36A2.18,2.18,0,0,1,71,74Zm.12-2.75-.7,1.19.71-1.19Zm-9.7-14.93v8.12A2.16,2.16,0,0,0,62.18,66l8.31,4.87,0-8.12a2.12,2.12,0,0,0-.75-1.56Z" transform="translate(0 -0.01)" style="fill: #150035"/>
          </g>
          <rect x="72.05" y="63.29" width="11.2" height="2.13" transform="translate(-22.07 49.27) rotate(-31.05)" style="fill: #ffb000"/>
        </g>
      </g>
    </g>
  </g>
</svg>
