<svg id="Layer_1" data-name="Layer 1" xmlns="http://www.w3.org/2000/svg" viewBox="0 0 49.76 72.32">
  <g>
    <path d="M48.46,9.63,41.69,34.91a14.58,14.58,0,0,1,3.55,4.89c1.42,3.26,1.13,5.05,1.13,12.81A18.67,18.67,0,0,1,27.71,71.27H19.79A18.67,18.67,0,0,1,1.13,52.6V29.42a4.53,4.53,0,1,1,9.05,0h0v-4a5.09,5.09,0,0,1,5.09-5.09,5.24,5.24,0,0,1,1.42.2c-3.15-11.74-2.38-8.88-3.49-13A5.09,5.09,0,0,1,23,4.78a.57.57,0,0,1,0,.14c.7,2.62,0,0,6.87,25.63h2.42L38.63,7a5.09,5.09,0,0,1,9.83,2.63Z" transform="translate(0 -0.08)" style="fill: #ffecc3"/>
    <g>
      <path d="M22.62,28.29V25.46a7.35,7.35,0,0,0-3.76-6.41L14.35,2.81a5.1,5.1,0,0,1,7.2-.32A5,5,0,0,1,23,4.91c.86,3.2-.23-.87,6.26,23.37Z" transform="translate(0 -0.08)" style="fill: #ffb000"/>
      <path d="M48.46,9.63l-6.1,22.76c-1.42-1.42-3.75-4.1-8.32-4.1H32.92L38.62,7a5.09,5.09,0,1,1,9.85,2.56l0,.08Z" transform="translate(0 -0.08)" style="fill: #ffb000"/>
      <path d="M20.23,39a5.12,5.12,0,0,1-3.83,3.83,5.1,5.1,0,0,1-4-5V21.23a5.1,5.1,0,0,1,7.92,4.23C20.36,30,20.38,27.09,20.23,39Z" transform="translate(0 -0.08)" style="fill: #ffb000"/>
      <path d="M10.18,29.42V39.6A4.54,4.54,0,0,1,6.79,44a4.53,4.53,0,0,1-3.4-4.38V25.5a4.53,4.53,0,0,1,6.79,3.92Z" transform="translate(0 -0.08)" style="fill: #ffb000"/>
      <path d="M46.37,52.6a18.61,18.61,0,0,1-6.69,14.32A18.55,18.55,0,0,1,31.1,69H23.18A18.67,18.67,0,0,1,4.52,50.34V46.29a6.8,6.8,0,0,0,6.42-2.43h0a7.36,7.36,0,0,0,10.27-1.63A7.65,7.65,0,0,0,22,40.83C25.12,43.27,28,43,30.81,43A19.24,19.24,0,0,0,18.13,59.86a1.13,1.13,0,0,0,2.26.15v0A17,17,0,0,1,35.06,44.27,6,6,0,0,0,34,40.82c-.09-.13.51-.09-5.69-.09a7.92,7.92,0,0,1-7.92-7.92h0a2.26,2.26,0,0,1,2.26-2.26H34a7.91,7.91,0,0,1,5.6,2.32c2.73,2.73,4.35,4.06,5.6,6.93,1.42,3.26,1.13,5.05,1.13,12.81Z" transform="translate(0 -0.08)" style="fill: #ffb000"/>
    </g>
    <path d="M35.32,19.27a1.18,1.18,0,0,0,1.44-.86,1.1,1.1,0,0,0,0-.36,1.15,1.15,0,1,0-1.47,1.22Z" transform="translate(0 -0.08)"/>
    <path d="M48.93,5.2a6.23,6.23,0,0,0-11.4,1.5l-1.79,6.68a1.13,1.13,0,0,0,2.18.58l1.79-6.68a4,4,0,0,1,7.68,2l0,.09L41.1,32.72l-.66-.66a9.05,9.05,0,0,0-6.65-2.65l1.76-6.57a1.13,1.13,0,1,0-2.19-.59h0l-1.92,7.16h-.68L24.12,4.62a6.22,6.22,0,0,0-12,3.23l3.05,11.4a6.22,6.22,0,0,0-6.09,5.67A5.66,5.66,0,0,0,0,29.42V52.6A19.81,19.81,0,0,0,19.79,72.4h7.92A19.81,19.81,0,0,0,47.5,52.6c0-7.63.32-9.73-1.22-13.26A14.82,14.82,0,0,0,43,34.57l6.6-24.65a6.23,6.23,0,0,0-.62-4.72ZM14.69,4.26a4,4,0,0,1,7.25,1l6.49,24.21c-6.06,0-6.17-.08-6.94.19V25.46a6.23,6.23,0,0,0-3.86-5.75L14.29,7.26a3.94,3.94,0,0,1,.4-3Zm-3.38,21.2a4,4,0,0,1,7.92,0V37.9a4,4,0,0,1-7.92,0V25.46Zm-9,4a3.4,3.4,0,1,1,6.79,0V39.6a3.4,3.4,0,0,1-6.79,0ZM44.2,40.25c1.3,3,1,4.46,1,12.35A17.54,17.54,0,0,1,27.71,70.13H19.79A17.55,17.55,0,0,1,2.26,52.6V44.12A5.65,5.65,0,0,0,10.17,43a5.16,5.16,0,0,0,.54-.86,6.22,6.22,0,0,0,10.72-3.41,9.05,9.05,0,0,0,6.84,3.14h5a4.86,4.86,0,0,1,.56,1.47A18.13,18.13,0,0,0,19.23,61.09a1.13,1.13,0,0,0,2.26,0,15.87,15.87,0,0,1,13.72-15.7,1.12,1.12,0,0,0,1-1.12,7.09,7.09,0,0,0-.53-2.69,6.34,6.34,0,0,0-1-1.71c-.44-.38-.39-.27-6.36-.27a6.79,6.79,0,0,1-6.78-6.79,1.13,1.13,0,0,1,1.12-1.13H34a6.76,6.76,0,0,1,4.8,2c2.7,2.7,4.21,3.92,5.36,6.58Z" transform="translate(0 -0.08)"/>
  </g>
</svg>
