<svg xmlns="http://www.w3.org/2000/svg" xmlns:xlink="http://www.w3.org/1999/xlink" width="1122" height="1079" viewBox="0 0 1122 1079">
  <defs>
    <clipPath id="clip-path">
      <rect id="Rectangle_1367" data-name="Rectangle 1367" width="1122" height="1079" transform="translate(436)" fill="#fff" stroke="#707070" stroke-width="1"/>
    </clipPath>
  </defs>
  <g id="Mask_Group_139" data-name="Mask Group 139" transform="translate(-436)" clip-path="url(#clip-path)">
    <path id="Path_32645" data-name="Path 32645" d="M638.43,566.969q0-29.058-.008-58.117c26.32-78.824,82.982-111.031,163.972-106.873,36.75-.146,73.364-.146,110.6-.205,65.664.462,131.413-1.01,196.983,1.814,116.43,5.014,223.722,35.869,311.437,118.159C1490.759,586.8,1527.75,668.28,1544.29,760.153a858.015,858.015,0,0,1,13.245,155.4V1332.7c0,77.746-57.09,138.2-130.189,141.15-80.047,3.226-141.913-57.287-141.9-140.483V880.434c-.017-18.568,1.275-37.076-2.824-55.55-22.119-99.71-82-148.7-184.242-150.2h-185c-37.9,0-76.317.077-114.342,0C708.185,674.5,672.187,649.241,638.43,566.969Z" transform="translate(0.793 -394.97)" fill="#f8f6fa"/>
    <path id="Path_73715" data-name="Path 73715" d="M1557.535,566.969q0-29.058.008-58.117c-26.32-78.824-82.982-111.031-163.972-106.873-36.75-.146-73.364-.146-110.6-.205-65.664.462-131.413-1.01-196.983,1.814-116.43,5.014-223.722,35.869-311.437,118.159C705.206,586.8,668.215,668.28,651.675,760.153a858.015,858.015,0,0,0-13.245,155.4V1332.7c0,77.746,57.09,138.2,130.189,141.15,80.047,3.226,141.913-57.287,141.9-140.483V880.434c.017-18.568-1.275-37.076,2.824-55.55,22.119-99.71,82-148.7,184.242-150.2h185c37.9,0,76.317.077,114.342,0C1487.781,674.5,1523.779,649.241,1557.535,566.969Z" transform="translate(-608.758 -394.97)" fill="#f8f6fa"/>
  </g>
</svg>
