<svg xmlns="http://www.w3.org/2000/svg" width="788.001" height="406.233" viewBox="0 0 788.001 406.233">
  <g id="Group_4874" data-name="Group 4874" transform="translate(-670.345 6300.424) rotate(-90)">
    <path id="Path_73754" data-name="Path 73754" d="M5894.191,842.072a41.969,41.969,0,0,1,16.628,3.319,42.927,42.927,0,0,1,26.3,39.565V1163.9a85.843,85.843,0,1,0,171.686,0V884.955a214.655,214.655,0,0,0-214.61-214.61Z" transform="translate(0)" fill="#d26f5d"/>
    <path id="Path_73755" data-name="Path 73755" d="M6128.777,1339.739a169.325,169.325,0,0,1-169.316-169.318V950.433a67.694,67.694,0,1,1,135.387,0v219.988a33.364,33.364,0,0,0,5.742,18.919,35.6,35.6,0,0,0,14.94,12.359,36.7,36.7,0,0,0,13.247,2.616Z" transform="translate(36.236 118.607)" fill="#fff" opacity="0.45"/>
    <path id="Path_73756" data-name="Path 73756" d="M6066.056,881.319h0a135.409,135.409,0,0,1,135.41-135.41h0v135.41Z" transform="translate(98.958 43.508)" fill="#715397"/>
    <path id="Path_73757" data-name="Path 73757" d="M6103.127,859.974h0a77,77,0,0,1,77-76.994h0v76.994Z" transform="translate(120.301 64.853)" fill="#e0aa55"/>
    <path id="Path_73758" data-name="Path 73758" d="M6066.056,1048.028h0a135.408,135.408,0,0,0,135.41-135.41h-135.41Z" transform="translate(98.958 139.495)" fill="#e0aa55"/>
    <path id="Path_73759" data-name="Path 73759" d="M6066.056,989.614h0a77,77,0,0,0,77-77h-77Z" transform="translate(98.958 139.495)" fill="#79b8cc"/>
    <rect id="Rectangle_1495" data-name="Rectangle 1495" width="135.411" height="135.411" transform="translate(6300.423 916.702) rotate(90)" fill="#33357d"/>
    <path id="Path_73761" data-name="Path 73761" d="M6066.056,1219.894V1084.483h135.41a135.41,135.41,0,0,1-135.41,135.411Z" transform="translate(98.958 238.451)" fill="#e0aa55"/>
    <path id="Path_73795" data-name="Path 73795" d="M6066.056,1084.483v135.41h135.411a135.409,135.409,0,0,0-135.411-135.41Z" transform="translate(98.957 103.042)" fill="#79b8cc"/>
    <path id="Path_73762" data-name="Path 73762" d="M6066.056,1169.533v-85.05H6151.1a85.048,85.048,0,0,1-85.048,85.05Z" transform="translate(98.958 238.451)" fill="#fff" opacity="0.45"/>
    <path id="Path_73794" data-name="Path 73794" d="M6066.056,1084.483v85.047h85.049a85.047,85.047,0,0,0-85.049-85.047Z" transform="translate(98.958 153.405)" fill="#715397"/>
    <path id="Path_73763" data-name="Path 73763" d="M6029.6,872.037h0a135.41,135.41,0,0,0-135.411-135.41h0v135.41Z" transform="translate(0 38.164)" fill="#79b8cc"/>
    <path id="Path_73764" data-name="Path 73764" d="M6029.6,822.561v0H5894.191V957.97h0A135.411,135.411,0,0,0,6029.6,822.561Z" transform="translate(0 87.641)" fill="#e0aa55"/>
    <path id="Path_73765" data-name="Path 73765" d="M5972.441,851.15h0a78.249,78.249,0,0,0-78.25-78.248h0V851.15Z" transform="translate(0 59.05)" fill="#fff" opacity="0.45"/>
    <path id="Path_73766" data-name="Path 73766" d="M5972.441,822.561v0h-78.25v78.25h0A78.249,78.249,0,0,0,5972.441,822.561Z" transform="translate(0 87.641)" fill="#5a408b"/>
    <path id="Path_73767" data-name="Path 73767" d="M6092.216,1074.846h0a35.8,35.8,0,0,0-35.8-35.794h0a35.8,35.8,0,0,0-35.8,35.794h0a35.8,35.8,0,0,0,35.8,35.8h0A35.8,35.8,0,0,0,6092.216,1074.846Z" transform="translate(72.798 212.293)" fill="#e0aa55"/>
    <path id="Path_73768" data-name="Path 73768" d="M6054.907,1064.862h0a8.47,8.47,0,0,0-8.471-8.47h0a8.47,8.47,0,0,0-8.471,8.47h0a8.47,8.47,0,0,0,8.471,8.471h0A8.47,8.47,0,0,0,6054.907,1064.862Z" transform="translate(82.781 222.277)" fill="#33357d"/>
    <path id="Path_73769" data-name="Path 73769" d="M6092.216,1029.415h0a35.8,35.8,0,0,0-35.8-35.8h0a35.8,35.8,0,0,0-35.8,35.8h0a35.8,35.8,0,0,0,35.8,35.8h0A35.8,35.8,0,0,0,6092.216,1029.415Z" transform="translate(72.797 186.134)" fill="#d26f5d"/>
    <path id="Path_73770" data-name="Path 73770" d="M6054.907,1019.431h0a8.471,8.471,0,0,0-8.471-8.471h0a8.471,8.471,0,0,0-8.471,8.471h0a8.471,8.471,0,0,0,8.471,8.471h0A8.471,8.471,0,0,0,6054.907,1019.431Z" transform="translate(82.78 196.119)" fill="#4eaec5"/>
    <path id="Path_73771" data-name="Path 73771" d="M6046.783,1074.846h0a35.794,35.794,0,0,0-35.795-35.794h0a35.793,35.793,0,0,0-35.794,35.794h0a35.794,35.794,0,0,0,35.794,35.8h0A35.8,35.8,0,0,0,6046.783,1074.846Z" transform="translate(46.639 212.293)" fill="#33357d"/>
    <path id="Path_73772" data-name="Path 73772" d="M6009.476,1064.862h0a8.469,8.469,0,0,0-8.471-8.47h0a8.469,8.469,0,0,0-8.47,8.47h0a8.469,8.469,0,0,0,8.47,8.471h0A8.469,8.469,0,0,0,6009.476,1064.862Z" transform="translate(56.624 222.277)" fill="#e0aa55"/>
    <rect id="Rectangle_1499" data-name="Rectangle 1499" width="71.59" height="71.59" rx="35.795" transform="translate(6091.424 1177.863) rotate(86.886)" fill="#715397"/>
    <path id="Path_73773" data-name="Path 73773" d="M6009.476,1019.431h0a8.47,8.47,0,0,0-8.471-8.471h0a8.47,8.47,0,0,0-8.47,8.471h0a8.47,8.47,0,0,0,8.47,8.471h0A8.47,8.47,0,0,0,6009.476,1019.431Z" transform="translate(56.623 196.119)" fill="#d26f5d"/>
    <g id="Group_4872" data-name="Group 4872" transform="translate(6172.273 929.105)">
      <path id="Path_73774" data-name="Path 73774" d="M6121.959,841.116a6.561,6.561,0,1,0,1.921-4.638,6.6,6.6,0,0,0-1.921,4.638" transform="translate(-6041.129 -834.556)" fill="#4eaec5"/>
      <path id="Path_73775" data-name="Path 73775" d="M6121.959,884.033v.032a6.559,6.559,0,1,0,13.119,0v-.032a6.559,6.559,0,1,0-13.119,0Z" transform="translate(-6041.129 -809.845)" fill="#4eaec5"/>
      <path id="Path_73776" data-name="Path 73776" d="M6121.959,862.568v.033a6.559,6.559,0,1,0,13.119,0v-.033a6.559,6.559,0,0,0-13.119,0Z" transform="translate(-6041.129 -822.203)" fill="#4eaec5"/>
      <path id="Path_73777" data-name="Path 73777" d="M6121.959,905.507a6.558,6.558,0,1,0,1.921-4.639,6.6,6.6,0,0,0-1.921,4.639" transform="translate(-6041.129 -797.481)" fill="#4eaec5"/>
      <path id="Path_73778" data-name="Path 73778" d="M6139.057,841.116a6.561,6.561,0,1,0,1.921-4.638,6.6,6.6,0,0,0-1.921,4.638" transform="translate(-6031.285 -834.556)" fill="#4eaec5"/>
      <path id="Path_73779" data-name="Path 73779" d="M6139.057,884.033v.032a6.559,6.559,0,1,0,13.118,0v-.032a6.559,6.559,0,1,0-13.118,0Z" transform="translate(-6031.285 -809.845)" fill="#4eaec5"/>
      <path id="Path_73780" data-name="Path 73780" d="M6139.057,862.568v.033a6.559,6.559,0,1,0,13.118,0v-.033a6.559,6.559,0,0,0-13.118,0Z" transform="translate(-6031.285 -822.203)" fill="#4eaec5"/>
      <path id="Path_73781" data-name="Path 73781" d="M6139.057,905.507a6.558,6.558,0,1,0,1.921-4.639,6.6,6.6,0,0,0-1.921,4.639" transform="translate(-6031.285 -797.481)" fill="#4eaec5"/>
      <path id="Path_73782" data-name="Path 73782" d="M6104.86,841.116a6.562,6.562,0,1,0,1.921-4.638,6.606,6.606,0,0,0-1.921,4.638" transform="translate(-6050.976 -834.556)" fill="#4eaec5"/>
      <path id="Path_73783" data-name="Path 73783" d="M6104.86,884.033v.032a6.559,6.559,0,1,0,13.118,0v-.032a6.559,6.559,0,1,0-13.118,0Z" transform="translate(-6050.976 -809.845)" fill="#4eaec5"/>
      <path id="Path_73784" data-name="Path 73784" d="M6104.86,862.568v.033a6.559,6.559,0,1,0,13.118,0v-.033a6.559,6.559,0,0,0-13.118,0Z" transform="translate(-6050.976 -822.203)" fill="#4eaec5"/>
      <path id="Path_73785" data-name="Path 73785" d="M6104.86,905.507a6.559,6.559,0,1,0,1.921-4.639,6.606,6.606,0,0,0-1.921,4.639" transform="translate(-6050.976 -797.481)" fill="#4eaec5"/>
      <path id="Path_73786" data-name="Path 73786" d="M6087.762,841.116a6.561,6.561,0,1,0,1.921-4.638,6.6,6.6,0,0,0-1.921,4.638" transform="translate(-6060.819 -834.556)" fill="#4eaec5"/>
      <path id="Path_73787" data-name="Path 73787" d="M6087.762,884.033v.032a6.559,6.559,0,1,0,13.119,0v-.032a6.559,6.559,0,1,0-13.119,0Z" transform="translate(-6060.819 -809.845)" fill="#4eaec5"/>
      <path id="Path_73788" data-name="Path 73788" d="M6087.762,862.568v.033a6.559,6.559,0,1,0,13.119,0v-.033a6.559,6.559,0,0,0-13.119,0Z" transform="translate(-6060.819 -822.203)" fill="#4eaec5"/>
      <path id="Path_73789" data-name="Path 73789" d="M6087.762,905.507a6.558,6.558,0,1,0,1.921-4.639,6.6,6.6,0,0,0-1.921,4.639" transform="translate(-6060.819 -797.481)" fill="#4eaec5"/>
      <path id="Path_73790" data-name="Path 73790" d="M6070.664,841.116a6.561,6.561,0,1,0,1.921-4.638,6.6,6.6,0,0,0-1.921,4.638" transform="translate(-6070.664 -834.556)" fill="#4eaec5"/>
      <path id="Path_73791" data-name="Path 73791" d="M6070.664,884.033v.032a6.559,6.559,0,1,0,13.118,0v-.032a6.559,6.559,0,1,0-13.118,0Z" transform="translate(-6070.664 -809.845)" fill="#4eaec5"/>
      <path id="Path_73792" data-name="Path 73792" d="M6070.664,862.568v.033a6.559,6.559,0,1,0,13.118,0v-.033a6.559,6.559,0,0,0-13.118,0Z" transform="translate(-6070.664 -822.203)" fill="#4eaec5"/>
      <path id="Path_73793" data-name="Path 73793" d="M6070.664,905.507a6.558,6.558,0,1,0,1.921-4.639,6.6,6.6,0,0,0-1.921,4.639" transform="translate(-6070.664 -797.481)" fill="#4eaec5"/>
    </g>
  </g>
</svg>
