<svg xmlns="http://www.w3.org/2000/svg" xmlns:xlink="http://www.w3.org/1999/xlink" width="789" height="477" viewBox="0 0 789 477">
  <defs>
    <clipPath id="clip-path">
      <rect id="Rectangle_1493" data-name="Rectangle 1493" width="789" height="477" fill="#d85144"/>
    </clipPath>
  </defs>
  <g id="Mask_Group_139" data-name="Mask Group 139" clip-path="url(#clip-path)">
    <g id="Group_4870" data-name="Group 4870" transform="translate(-0.001 -1.053)">
      <g id="Group_4862" data-name="Group 4862" transform="translate(166.197 560.173)">
        <g id="Group_4861" data-name="Group 4861" transform="translate(0 92.566)">
          <path id="Path_73715" data-name="Path 73715" d="M7447.123,1124.4a18.093,18.093,0,0,1-1.433,7.176,18.523,18.523,0,0,1-17.073,11.348H7308.234a37.06,37.06,0,0,0-37.064,37.063c0,20.436,16.592,37.558,37.064,37.558h120.383a93.4,93.4,0,0,0,92.617-93.146Z" transform="translate(-7271.169 -1124.403)" fill="#715397"/>
        </g>
        <path id="Path_73716" data-name="Path 73716" d="M7521.2,1155a92.622,92.622,0,0,0-92.617-92.616H7308.249a37.029,37.029,0,1,0,0,74.058h120.333a18.245,18.245,0,0,1,10.349,3.139,19.5,19.5,0,0,1,6.76,8.174,20.081,20.081,0,0,1,1.432,7.244Z" transform="translate(-7271.134 -1062.381)" fill="#715397"/>
      </g>
      <g id="Group_4863" data-name="Group 4863" transform="translate(248.61 325.932)">
        <path id="Path_73717" data-name="Path 73717" d="M7376.166,905.433h102.706a46.912,46.912,0,0,1,0,93.824H7143.242c-.559.019-1.117.042-1.68.042a46.933,46.933,0,1,1,0-93.866h234.6" transform="translate(-7094.586 -905.433)" fill="#79b8cc"/>
      </g>
      <path id="Path_73718" data-name="Path 73718" d="M7116.189,1051.38v-68l-36.672-34.51-13.067-2.68-4.02,105.2,18.763,6.031Z" transform="translate(-6388.391 -559.428)" fill="#79b8cc"/>
      <path id="Path_73719" data-name="Path 73719" d="M7139.011,882.275a116.92,116.92,0,0,0,116.921-116.919h-58.448a58.471,58.471,0,0,1-116.941.167v-.169h-58.449v.276A116.919,116.919,0,0,0,7139.011,882.275Z" transform="translate(-6467.931 -648.485)" fill="#d26f5d"/>
      <path id="Path_73720" data-name="Path 73720" d="M7022.093,803.968a58.472,58.472,0,1,1,116.943,0h58.446a116.919,116.919,0,0,0-116.921-116.919" transform="translate(-6409.481 -687.049)" fill="#79b8cc"/>
      <path id="Path_73721" data-name="Path 73721" d="M7076.441,905.286a54.377,54.377,0,1,0,54.353,54.351A54.374,54.374,0,0,0,7076.441,905.286Z" transform="translate(-6342.793 -579.573)" fill="#e0aa55"/>
      <g id="Group_4865" data-name="Group 4865" transform="translate(265.951 70.574)">
        <path id="Path_73722" data-name="Path 73722" d="M7370.889,734.336h102.706a46.912,46.912,0,0,1,0,93.824H7081.188c-.558.019-1.116.042-1.679.042-25.891,0,9.8-21.019,9.8-46.955a46.988,46.988,0,0,1,46.976-46.912h234.6" transform="translate(-7070.089 -734.336)" fill="#d26f5d"/>
      </g>
      <rect id="Rectangle_1492" data-name="Rectangle 1492" width="96.934" height="115.463" transform="translate(582.772 0.424)" fill="#e0aa55"/>
      <path id="Path_73723" data-name="Path 73723" d="M7159.205,1113.447a96.775,96.775,0,0,0,96.775-96.775H7207.6a48.4,48.4,0,0,1-96.794.139v-.14h-48.378v.23A96.775,96.775,0,0,0,7159.205,1113.447Z" transform="translate(-6528.182 -524.718)" fill="#79b8cc"/>
      <path id="Path_73724" data-name="Path 73724" d="M7094.846,1016.671" transform="translate(-6415.428 -524.718)" fill="#030504"/>
      <path id="Path_73725" data-name="Path 73725" d="M7224.046,951.83a96.774,96.774,0,0,0-96.774,96.775h48.376a48.4,48.4,0,0,1,48.4-48.4" transform="translate(-6593.022 -556.651)" fill="#e0aa55"/>
      <path id="Path_73726" data-name="Path 73726" d="M7191.505,1025.958V1155.59a48.439,48.439,0,0,1-96.877,0V785.455c-.02-.576-.042-1.152-.042-1.733a48.46,48.46,0,1,1,96.92,0v242.236" transform="translate(-6511.699 -663.327)" fill="#715397"/>
      <path id="Path_73727" data-name="Path 73727" d="M7357.924,903.086a105.8,105.8,0,0,0,105.8-105.8h-52.887a52.907,52.907,0,0,1-105.814.152v-.152h-52.89v.249A105.8,105.8,0,0,0,7357.924,903.086Z" transform="translate(-7019.042 -632.758)" fill="#79b8cc"/>
      <path id="Path_73728" data-name="Path 73728" d="M7287.566,797.29" transform="translate(-6895.776 -632.758)" fill="#030504"/>
      <path id="Path_73729" data-name="Path 73729" d="M7428.81,734.342c-58.429,0-105.8,35.519-105.8,93.948H7375.9a52.908,52.908,0,0,1,52.909-52.908" transform="translate(-7089.928 -663.758)" fill="#d26f5d"/>
      <path id="Path_73730" data-name="Path 73730" d="M7159.494,873.318A108.366,108.366,0,0,0,7267.86,981.683V927.512h0a54.2,54.2,0,0,1-54.194-54.195c0-29.878,23.924-52.971,53.782-53.056l.247-.122.317-.248-.153-54.939h-.255A108.368,108.368,0,0,0,7159.494,873.318Z" transform="translate(-6685.078 -648.683)" fill="#e0aa55"/>
      <path id="Path_73731" data-name="Path 73731" d="M7180.951,801.594a54.377,54.377,0,1,0,54.352,54.353A54.377,54.377,0,0,0,7180.951,801.594Z" transform="translate(-6603.28 -630.638)" fill="#79b8cc"/>
      <path id="Path_73732" data-name="Path 73732" d="M7219.105,801.846q-2.6-.251-5.261-.252a54.377,54.377,0,0,0,0,108.753q2.662,0,5.261-.252" transform="translate(-6636.172 -630.638)" fill="#fff" opacity="0.45"/>
      <path id="Path_73733" data-name="Path 73733" d="M7379.836,976.961V818.57c-6.25,8.047-19.138,21.641-42.456,21.274a53.465,53.465,0,0,1-42.812-21.522v158.64" transform="translate(-6998.499 -622.401)" fill="#fff" opacity="0.45"/>
      <g id="Group_4868" data-name="Group 4868" transform="translate(109.182 325.89)">
        <path id="Path_73734" data-name="Path 73734" d="M7336.478,999.27H7233.772c-25.892,0-43.446-20.684-43.446-46.579,0-25.936,17.554-47.246,43.446-47.246H7569.4c.559-.019,1.116-.042,1.679-.042a46.933,46.933,0,1,1,0,93.866h-234.6" transform="translate(-7190.327 -905.404)" fill="#79b8cc"/>
      </g>
      <path id="Path_73735" data-name="Path 73735" d="M7473.717,859.054v68l36.672,34.51,13.066,2.68,4.021-105.2-18.763-6.031Z" transform="translate(-7413.514 -605.319)" fill="#79b8cc"/>
      <path id="Path_73736" data-name="Path 73736" d="M7509.189,1030.035a116.921,116.921,0,0,0-116.921,116.92l58.448,0h0a58.471,58.471,0,0,1,116.942-.167v.169h58.45v-.276A116.919,116.919,0,0,0,7509.189,1030.035Z" transform="translate(-7390.586 -518.137)" fill="#d26f5d"/>
      <path id="Path_73737" data-name="Path 73737" d="M7606.821,1108.342a58.471,58.471,0,1,1-116.942,0h-58.447c0,64.573,52.347,117.468,116.92,117.468" transform="translate(-7429.749 -479.573)" fill="#79b8cc"/>
      <path id="Path_73738" data-name="Path 73738" d="M7531.594,1004.33a54.377,54.377,0,1,0-54.352-54.351A54.376,54.376,0,0,0,7531.594,1004.33Z" transform="translate(-7477.242 -584.354)" fill="#e0aa55"/>
      <g id="Group_4869" data-name="Group 4869" transform="translate(71.663 581.247)">
        <path id="Path_73739" data-name="Path 73739" d="M7349.887,1170.367H7247.181a46.911,46.911,0,1,1,0-93.823h392.406c.559-.021,1.117-.043,1.678-.043,25.892,0-9.8,21.018-9.8,46.955a46.989,46.989,0,0,1-46.978,46.911h-234.6" transform="translate(-7200.267 -1076.501)" fill="#d26f5d"/>
      </g>
      <path id="Path_73740" data-name="Path 73740" d="M7509.5,1225.028l-96.934-.026V1109.033H7509.5Z" transform="translate(-7304.271 -479.233)" fill="#e0aa55"/>
      <path id="Path_73741" data-name="Path 73741" d="M7476.829,792.216a96.774,96.774,0,0,0-96.773,96.775h48.377a48.4,48.4,0,0,1,96.792-.137v.139H7573.6v-.228A96.775,96.775,0,0,0,7476.829,792.216Z" transform="translate(-7319.851 -635.257)" fill="#79b8cc"/>
      <path id="Path_73742" data-name="Path 73742" d="M7478.983,857.059" transform="translate(-7372.879 -603.324)" fill="#030504"/>
      <path id="Path_73743" data-name="Path 73743" d="M7380.055,953.833a96.773,96.773,0,0,0,96.774-96.775l-48.376,0h0a48.4,48.4,0,0,1-48.4,48.4" transform="translate(-7223.078 -603.324)" fill="#e0aa55"/>
      <path id="Path_73744" data-name="Path 73744" d="M7412.642,1002.467V872.834a48.439,48.439,0,0,1,96.878,0v370.135c.019.576.043,1.152.043,1.733a48.461,48.461,0,1,1-96.922,0V1002.467" transform="translate(-7304.449 -619.409)" fill="#715397"/>
      <path id="Path_73745" data-name="Path 73745" d="M7284.043,1005.554a105.8,105.8,0,0,0-105.8,105.8h52.888a52.907,52.907,0,0,1,105.814-.152v.152h52.89v-.249A105.8,105.8,0,0,0,7284.043,1005.554Z" transform="translate(-6834.894 -530.193)" fill="#79b8cc"/>
      <path id="Path_73746" data-name="Path 73746" d="M7284.582,1076.441" transform="translate(-6888.34 -495.283)" fill="#030504"/>
      <path id="Path_73747" data-name="Path 73747" d="M7178.247,1170.388c58.428,0,105.8-35.519,105.8-93.948l-52.889,0h0a52.907,52.907,0,0,1-52.907,52.908" transform="translate(-6729.098 -495.283)" fill="#d26f5d"/>
      <path id="Path_73748" data-name="Path 73748" d="M7448.474,1071.928a108.366,108.366,0,0,0-108.366-108.366v54.171h0a54.194,54.194,0,0,1,54.193,54.195c0,29.878-24.479,53.051-54.339,53.135l.145,1.057h0v54.174h.257A108.365,108.365,0,0,0,7448.474,1071.928Z" transform="translate(-7134.89 -550.873)" fill="#e0aa55"/>
      <path id="Path_73749" data-name="Path 73749" d="M7427.086,1108.021a54.377,54.377,0,1,0-54.352-54.351A54.375,54.375,0,0,0,7427.086,1108.021Z" transform="translate(-7216.758 -533.29)" fill="#79b8cc"/>
      <path id="Path_73750" data-name="Path 73750" d="M7393.288,814.722a52.882,52.882,0,1,0-105.763,0" transform="translate(-7001.438 -650.217)" fill="#fff" opacity="0.45"/>
      <path id="Path_73751" data-name="Path 73751" d="M7509.616,872.82a48.54,48.54,0,1,0-97.081,0" transform="translate(-7304.342 -619.467)" fill="#fff" opacity="0.45"/>
      <path id="Path_73752" data-name="Path 73752" d="M7461.723,999.454a54.37,54.37,0,0,0,.006,108.219" transform="translate(-7256.65 -533.198)" fill="#fff" opacity="0.45"/>
      <path id="Path_73753" data-name="Path 73753" d="M7331.075,1061.088a46.421,46.421,0,1,0-46.4-46.4A46.419,46.419,0,0,0,7331.075,1061.088Z" transform="translate(-6981.368 -548.566)" fill="#fff" opacity="0.45"/>
    </g>
  </g>
</svg>
